<?xml version="1.0" encoding="UTF-8"?>
<svg width="160px" height="20px" viewBox="0 0 160 20" version="1.1" xmlns="http://www.w3.org/2000/svg" xmlns:xlink="http://www.w3.org/1999/xlink">
    <!-- Generator: Sketch 49.2 (51160) - http://www.bohemiancoding.com/sketch -->
    <title>Docker</title>
    <desc>Created with Sketch.</desc>
    <defs></defs>
    <g id="Docker" stroke="none" stroke-width="1" fill="none" fill-rule="evenodd">
        <g>
            <rect id="Rectangle-4" fill="#0087C8" x="0" y="0" width="160" height="20"></rect>
            <path d="M24.150651,5.54492188 L26.9338542,5.54492188 C29.5119792,5.54492188 30.947526,7.14453125 30.947526,9.76953125 C30.947526,12.4003906 29.5178385,14 26.9338542,14 L24.150651,14 L24.150651,5.54492188 Z M24.9533854,6.27148438 L24.9533854,13.2734375 L26.8869792,13.2734375 C28.9553385,13.2734375 30.1272135,11.9609375 30.1272135,9.77539062 C30.1272135,7.58984375 28.9494792,6.27148438 26.8869792,6.27148438 L24.9533854,6.27148438 Z M35.2248698,13.4082031 C36.525651,13.4082031 37.2990885,12.4414062 37.2990885,10.8417969 C37.2990885,9.2421875 36.525651,8.27539062 35.2248698,8.27539062 C33.9240885,8.27539062 33.150651,9.2421875 33.150651,10.8417969 C33.150651,12.4414062 33.9240885,13.4082031 35.2248698,13.4082031 Z M35.2248698,14.1054688 C33.4611979,14.1054688 32.3596354,12.8574219 32.3596354,10.8417969 C32.3596354,8.82617188 33.4611979,7.58398438 35.2248698,7.58398438 C36.9885417,7.58398438 38.0959635,8.82617188 38.0959635,10.8417969 C38.0959635,12.8574219 36.9885417,14.1054688 35.2248698,14.1054688 Z M44.869401,9.546875 L44.0901042,9.546875 C43.8967448,8.8203125 43.2463542,8.27539062 42.2795573,8.27539062 C41.025651,8.27539062 40.228776,9.265625 40.228776,10.8242188 C40.228776,12.4003906 41.0315104,13.4082031 42.2795573,13.4082031 C43.2111979,13.4082031 43.8908854,12.9570312 44.0842448,12.1835938 L44.8635417,12.1835938 C44.6701823,13.3144531 43.7268229,14.1054688 42.2854167,14.1054688 C40.5451823,14.1054688 39.4377604,12.828125 39.4377604,10.8242188 C39.4377604,8.84960938 40.5393229,7.58398438 42.2795573,7.58398438 C43.7268229,7.58398438 44.681901,8.4453125 44.869401,9.546875 Z M47.3596354,10.6425781 L50.4416667,7.68945312 L51.4026042,7.68945312 L48.5842448,10.3964844 L51.5315104,14 L50.5471354,14 L48.0041667,10.8886719 L47.2893229,11.5507812 L47.2893229,14 L46.5217448,14 L46.5217448,5.17578125 L47.2893229,5.17578125 L47.2893229,10.6425781 L47.3596354,10.6425781 Z M55.3576823,8.26367188 C54.2092448,8.26367188 53.4123698,9.11328125 53.3420573,10.4140625 L57.2736979,10.4140625 C57.2561198,9.11328125 56.5002604,8.26367188 55.3576823,8.26367188 Z M57.197526,12.4414062 L57.9768229,12.4414062 C57.666276,13.4667969 56.6936198,14.1054688 55.369401,14.1054688 C53.635026,14.1054688 52.5451823,12.8398438 52.5451823,10.8476562 C52.5451823,8.8671875 53.6467448,7.58398438 55.3635417,7.58398438 C57.0451823,7.58398438 58.0764323,8.77929688 58.0764323,10.7070312 L58.0764323,11.046875 L53.3361979,11.046875 L53.3361979,11.0820312 C53.3772135,12.5058594 54.1682292,13.4199219 55.3869792,13.4199219 C56.2834635,13.4199219 56.9279948,13.0625 57.197526,12.4414062 Z M59.7404948,14 L59.7404948,7.68945312 L60.4729167,7.68945312 L60.4729167,8.7265625 L60.5490885,8.7265625 C60.760026,8.04101562 61.4690104,7.58398438 62.306901,7.58398438 C62.5178385,7.58398438 62.728776,7.59570312 62.8986979,7.63671875 L62.8986979,8.40429688 C62.7580729,8.36328125 62.4416667,8.328125 62.213151,8.328125 C61.2346354,8.328125 60.5080729,9.06640625 60.5080729,10.0625 L60.5080729,14 L59.7404948,14 Z M68.3596354,14 L67.556901,14 L67.556901,5.54492188 L68.3596354,5.54492188 L68.3596354,14 Z M70.4338542,14 L70.4338542,7.68945312 L71.166276,7.68945312 L71.166276,8.82617188 L71.2424479,8.82617188 C71.5178385,8.05273438 72.1916667,7.58398438 73.0647135,7.58398438 C73.9494792,7.58398438 74.5822917,8.0703125 74.8518229,8.82617188 L74.9279948,8.82617188 C75.2502604,8.0703125 75.9885417,7.58398438 76.8967448,7.58398438 C78.1623698,7.58398438 78.8947917,8.34570312 78.8947917,9.68164062 L78.8947917,14 L78.1272135,14 L78.1272135,9.85742188 C78.1272135,8.82617188 77.6174479,8.27539062 76.6682292,8.27539062 C75.6955729,8.27539062 75.0451823,9.01953125 75.0451823,9.99804688 L75.0451823,14 L74.2776042,14 L74.2776042,9.77539062 C74.2776042,8.8671875 73.697526,8.27539062 72.8244792,8.27539062 C71.9104167,8.27539062 71.2014323,9.09570312 71.2014323,10.1269531 L71.2014323,14 L70.4338542,14 Z M82.7033854,13.4257812 C83.8342448,13.4257812 84.6955729,12.6523438 84.6955729,11.6503906 L84.6955729,10.9121094 L82.8264323,11.046875 C81.7541667,11.1230469 81.2385417,11.5214844 81.2385417,12.2421875 C81.2385417,12.96875 81.853776,13.4257812 82.7033854,13.4257812 Z M82.5744792,14.1054688 C81.338151,14.1054688 80.447526,13.3847656 80.447526,12.2539062 C80.447526,11.1523438 81.2619792,10.5136719 82.7209635,10.4140625 L84.6955729,10.2851562 L84.6955729,9.67578125 C84.6955729,8.7734375 84.150651,8.26953125 83.1252604,8.26953125 C82.2580729,8.26953125 81.6311198,8.63867188 81.478776,9.24804688 L80.6994792,9.24804688 C80.8459635,8.24609375 81.8244792,7.58398438 83.1486979,7.58398438 C84.6311198,7.58398438 85.4690104,8.35742188 85.4690104,9.66992188 L85.4690104,14 L84.7307292,14 L84.7307292,12.9160156 L84.6604167,12.9160156 C84.2736979,13.6660156 83.5002604,14.1054688 82.5744792,14.1054688 Z M91.9553385,10.7773438 C91.9553385,9.27734375 91.1526042,8.27539062 89.9045573,8.27539062 C88.6447917,8.27539062 87.8830729,9.265625 87.8830729,10.765625 C87.8830729,12.2597656 88.6447917,13.25 89.9045573,13.25 C91.1701823,13.25 91.9553385,12.2714844 91.9553385,10.7773438 Z M89.9690104,16.3671875 C88.5217448,16.3671875 87.5608073,15.7226562 87.3967448,14.7382812 L88.2111979,14.7382812 C88.3518229,15.3183594 89.0080729,15.6933594 89.9690104,15.6933594 C91.1877604,15.6933594 91.9436198,15.0546875 91.9436198,14.0351562 L91.9436198,12.6171875 L91.8674479,12.6171875 C91.4924479,13.4492188 90.7190104,13.9355469 89.7522135,13.9355469 C88.1291667,13.9355469 87.0920573,12.6582031 87.0920573,10.765625 C87.0920573,8.87304688 88.135026,7.58398438 89.7522135,7.58398438 C90.7190104,7.58398438 91.556901,8.1171875 91.9026042,8.9375 L91.9729167,8.9375 L91.9729167,7.68945312 L92.7111979,7.68945312 L92.7111979,14.09375 C92.7111979,15.4648438 91.6272135,16.3671875 89.9690104,16.3671875 Z M97.181901,8.26367188 C96.0334635,8.26367188 95.2365885,9.11328125 95.166276,10.4140625 L99.0979167,10.4140625 C99.0803385,9.11328125 98.3244792,8.26367188 97.181901,8.26367188 Z M99.0217448,12.4414062 L99.8010417,12.4414062 C99.4904948,13.4667969 98.5178385,14.1054688 97.1936198,14.1054688 C95.4592448,14.1054688 94.369401,12.8398438 94.369401,10.8476562 C94.369401,8.8671875 95.4709635,7.58398438 97.1877604,7.58398438 C98.869401,7.58398438 99.900651,8.77929688 99.900651,10.7070312 L99.900651,11.046875 L95.1604167,11.046875 L95.1604167,11.0820312 C95.2014323,12.5058594 95.9924479,13.4199219 97.2111979,13.4199219 C98.1076823,13.4199219 98.7522135,13.0625 99.0217448,12.4414062 Z M110.529557,14 L109.592057,11.4101563 L106.041276,11.4101563 L105.103776,14 L104.254167,14 L107.418229,5.54492188 L108.215104,5.54492188 L111.373307,14 L110.529557,14 Z M107.775651,6.59375 L106.28151,10.71875 L109.351823,10.71875 L107.851823,6.59375 L107.775651,6.59375 Z M112.199479,7.68945312 L113.019792,7.68945312 L114.929948,13.1621094 L115.00026,13.1621094 L116.904557,7.68945312 L117.730729,7.68945312 L115.37526,14 L114.554948,14 L112.199479,7.68945312 Z M121.00026,13.4257812 C122.13112,13.4257812 122.992448,12.6523438 122.992448,11.6503906 L122.992448,10.9121094 L121.123307,11.046875 C120.051042,11.1230469 119.535417,11.5214844 119.535417,12.2421875 C119.535417,12.96875 120.150651,13.4257812 121.00026,13.4257812 Z M120.871354,14.1054688 C119.635026,14.1054688 118.744401,13.3847656 118.744401,12.2539062 C118.744401,11.1523438 119.558854,10.5136719 121.017839,10.4140625 L122.992448,10.2851562 L122.992448,9.67578125 C122.992448,8.7734375 122.447526,8.26953125 121.422135,8.26953125 C120.554948,8.26953125 119.927995,8.63867188 119.775651,9.24804688 L118.996354,9.24804688 C119.142839,8.24609375 120.121354,7.58398438 121.445573,7.58398438 C122.927995,7.58398438 123.765885,8.35742188 123.765885,9.66992188 L123.765885,14 L123.027604,14 L123.027604,12.9160156 L122.957292,12.9160156 C122.570573,13.6660156 121.797135,14.1054688 120.871354,14.1054688 Z M125.740495,14 L125.740495,7.68945312 L126.508073,7.68945312 L126.508073,14 L125.740495,14 Z M126.121354,6.28320312 C125.810807,6.28320312 125.552995,6.02539062 125.552995,5.70898438 C125.552995,5.3984375 125.810807,5.140625 126.121354,5.140625 C126.43776,5.140625 126.695573,5.3984375 126.695573,5.70898438 C126.695573,6.02539062 126.43776,6.28320312 126.121354,6.28320312 Z M128.576432,14 L128.576432,5.17578125 L129.34401,5.17578125 L129.34401,14 L128.576432,14 Z M133.269792,13.4257812 C134.400651,13.4257812 135.261979,12.6523438 135.261979,11.6503906 L135.261979,10.9121094 L133.392839,11.046875 C132.320573,11.1230469 131.804948,11.5214844 131.804948,12.2421875 C131.804948,12.96875 132.420182,13.4257812 133.269792,13.4257812 Z M133.140885,14.1054688 C131.904557,14.1054688 131.013932,13.3847656 131.013932,12.2539062 C131.013932,11.1523438 131.828385,10.5136719 133.28737,10.4140625 L135.261979,10.2851562 L135.261979,9.67578125 C135.261979,8.7734375 134.717057,8.26953125 133.691667,8.26953125 C132.824479,8.26953125 132.197526,8.63867188 132.045182,9.24804688 L131.265885,9.24804688 C131.41237,8.24609375 132.390885,7.58398438 133.715104,7.58398438 C135.197526,7.58398438 136.035417,8.35742188 136.035417,9.66992188 L136.035417,14 L135.297135,14 L135.297135,12.9160156 L135.226823,12.9160156 C134.840104,13.6660156 134.066667,14.1054688 133.140885,14.1054688 Z M140.998307,14.1054688 C140.03151,14.1054688 139.217057,13.5898438 138.842057,12.7402344 L138.765885,12.7402344 L138.765885,14 L138.033464,14 L138.033464,5.17578125 L138.801042,5.17578125 L138.801042,8.9140625 L138.871354,8.9140625 C139.222917,8.09375 140.043229,7.58398438 140.998307,7.58398438 C142.597917,7.58398438 143.652604,8.87304688 143.652604,10.8417969 C143.652604,12.7988281 142.592057,14.1054688 140.998307,14.1054688 Z M140.840104,8.27539062 C139.597917,8.27539062 138.783464,9.2890625 138.783464,10.8417969 C138.783464,12.3945312 139.597917,13.4082031 140.840104,13.4082031 C142.082292,13.4082031 142.861589,12.4121094 142.861589,10.8359375 C142.861589,9.265625 142.082292,8.27539062 140.840104,8.27539062 Z M145.369401,14 L145.369401,5.17578125 L146.136979,5.17578125 L146.136979,14 L145.369401,14 Z M150.672135,8.26367188 C149.523698,8.26367188 148.726823,9.11328125 148.65651,10.4140625 L152.588151,10.4140625 C152.570573,9.11328125 151.814714,8.26367188 150.672135,8.26367188 Z M152.511979,12.4414062 L153.291276,12.4414062 C152.980729,13.4667969 152.008073,14.1054688 150.683854,14.1054688 C148.949479,14.1054688 147.859635,12.8398438 147.859635,10.8476562 C147.859635,8.8671875 148.961198,7.58398438 150.677995,7.58398438 C152.359635,7.58398438 153.390885,8.77929688 153.390885,10.7070312 L153.390885,11.046875 L148.650651,11.046875 L148.650651,11.0820312 C148.691667,12.5058594 149.482682,13.4199219 150.701432,13.4199219 C151.597917,13.4199219 152.242448,13.0625 152.511979,12.4414062 Z" id="Docker-Image-Availab" fill="#FFFFFF"></path>
        </g>
        <path d="M8.07942446,12.8964029 C7.69165468,12.8964029 7.33913669,12.5791367 7.33913669,12.1913669 C7.33913669,11.8035971 7.65640288,11.4863309 8.07942446,11.4863309 C8.50244604,11.4863309 8.81971223,11.8035971 8.81971223,12.1913669 C8.81971223,12.5791367 8.46719424,12.8964029 8.07942446,12.8964029 Z M17.1743885,9.05395683 C17.1038849,8.48992806 16.7513669,8.03165468 16.2930935,7.67913669 L16.1168345,7.5381295 L15.9758273,7.71438849 C15.6938129,8.03165468 15.5880576,8.59568345 15.6233094,9.01870504 C15.6585612,9.33597122 15.7643165,9.65323741 15.9405755,9.9 C15.7995683,9.9705036 15.6233094,10.0410072 15.4823022,10.1115108 C15.165036,10.2172662 14.8477698,10.252518 14.5305036,10.252518 L5.40028777,10.252518 L5.36503597,10.4640288 C5.29453237,11.1338129 5.40028777,11.8388489 5.68230216,12.4733813 L5.82330935,12.7201439 L5.82330935,12.7553957 C6.66935252,14.1654676 8.18517986,14.8 9.84201439,14.8 C13.0146763,14.8 15.6233094,13.4251799 16.8571223,10.4640288 C17.6679137,10.4992806 18.478705,10.2877698 18.8664748,9.51223022 L18.9722302,9.33597122 L18.7959712,9.23021583 C18.3376978,8.94820144 17.7031655,8.91294964 17.1743885,9.05395683 Z M12.6269065,8.48992806 L11.2520863,8.48992806 L11.2520863,9.8647482 L12.6269065,9.8647482 L12.6269065,8.48992806 Z M12.6269065,6.76258993 L11.2520863,6.76258993 L11.2520863,8.13741007 L12.6269065,8.13741007 L12.6269065,6.76258993 Z M12.6269065,5 L11.2520863,5 L11.2520863,6.37482014 L12.6269065,6.37482014 L12.6269065,5 Z M14.3189928,8.48992806 L12.9441727,8.48992806 L12.9441727,9.8647482 L14.3189928,9.8647482 L14.3189928,8.48992806 Z M9.20748201,8.48992806 L7.83266187,8.48992806 L7.83266187,9.8647482 L9.20748201,9.8647482 L9.20748201,8.48992806 Z M10.9348201,8.48992806 L9.56,8.48992806 L9.56,9.8647482 L10.9348201,9.8647482 L10.9348201,8.48992806 Z M7.51539568,8.48992806 L6.14057554,8.48992806 L6.14057554,9.8647482 L7.51539568,9.8647482 L7.51539568,8.48992806 Z M10.9348201,6.76258993 L9.56,6.76258993 L9.56,8.13741007 L10.9348201,8.13741007 L10.9348201,6.76258993 Z M9.20748201,6.76258993 L7.83266187,6.76258993 L7.83266187,8.13741007 L9.20748201,8.13741007 L9.20748201,6.76258993 Z" id="SVGID_1_" fill="#FFFFFF" fill-rule="nonzero"></path>
    </g>
</svg>