<svg xmlns="http://www.w3.org/2000/svg" xmlns:xlink="http://www.w3.org/1999/xlink" width="149px" height="177px" viewBox="0 0 149 177" version="1.1"><title>foundations</title><desc>Created with Sketch.</desc><g id="Page-1" stroke="none" stroke-width="1" fill="none" fill-rule="evenodd"><g id="foundations"><g id="Group-10"><polygon id="Path-5" fill="#A6C571" points="75.062796 86 4.86745144 126.486043 0 132.204968 72.7928929 177 149 131.67418 144.271535 126.183015"/><polygon id="Path-2" fill="#EAB68E" points="72.7976074 176.989136 72.7976074 167.363037 144.263977 126.120422 148.996765 131.672424"/><polygon id="Path-3" fill="#BC8D6A" points="72.7877197 167.354492 72.7877197 177.018066 0.0202636719 132.205444 4.87982178 126.492554"/><polygon id="Path-4" fill="#E8C792" points="72.6274414 163.989746 44.644043 147 74.0415781 130.5 102.362061 146.647949"/><path d="M5.88412511 126.505947L74.997017 86.5949835 143.234151 126.113256 72.7888824 166.767667 5.88412511 126.505947Z" id="Path-28" stroke="#8FB260"/><g id="Group" transform="translate(62.000000, 105.000000)"><polyline id="Fill-224" fill="#BBBBBB" points="10.4996069 0.6 0 6.77119991 0 8.82839993 10.4996069 15 21 8.82839993 21 6.77119991 10.4996069 0.6"/><polygon id="Fill-225" fill="#828282" points="0 6.01550293 0 8.22839993 10.4996069 14.4 21 8.22839993 21 6.17160007 10.4996069 0"/><polyline id="Fill-226" fill="#585858" points="20.8037383 6 20.8037383 8.04970092 10.4018692 14.2 10.4018692 12.1499003 20.8037383 6"/><polyline id="Fill-227" fill="#444444" points="0 6 0 8.04970092 10.4018692 14.2 10.4018692 12.1499003 0 6"/></g><g id="Group-2" transform="translate(64.000000, 22.000000)"><polygon id="Fill-229" fill="#ED9D2F" points="14.875 5.79420044 14.875 90.5022856 12.75 89.5098704 12.75 4.80331263"/><polygon id="Fill-230" fill="#FFB53A" points="14.875 90.5204462 17 89.5100041 16.8545634 4.82170727 14.875 5.7939134"/><polygon id="Fill-233" fill="#D9820C" points="12.9910441 68.9275362 9.81959364 74.7977565 9.81959364 79.1491168 15.1111111 70.1562844"/><polyline id="Fill-234" fill="#FFB53A" points="14.875 70.36853 10.625 77.7536232 10.625 80.2153209 14.875 72.8302277 14.875 70.36853"/><polyline id="Fill-235" fill="#FFB53A" points="10.625 82.6770186 14.875 90.0621118 14.875 87.5999352 10.625 80.2153209 10.625 82.6770186"/><polyline id="Fill-236" fill="#FF9400" points="14.875 90.0621118 10.625 82.6169772 10.625 85.0986888 12.75 88.8137737 14.875 90.0621118"/><polyline id="Fill-241" fill="#D9820C" points="14.875 50.4750592 12.754933 49.2339545 8.5 56.6383324 10.620067 57.8799172 14.875 50.4750592"/><polyline id="Fill-242" fill="#FFA200" points="14.875 50.4347826 10.625 57.8198758 10.625 60.2815735 14.875 52.8964803 14.875 50.4347826"/><polyline id="Fill-243" fill="#FFB53A" points="10.625 62.9834369 14.875 70.36853 14.875 67.9068323 10.625 60.5217391 10.625 62.9834369"/><polyline id="Fill-244" fill="#FF9400" points="14.875 70.36853 10.625 62.9233954 10.625 65.405107 12.7573909 69.120192 14.875 70.36853"/><polyline id="Fill-245" fill="#D9820C" points="14.875 30.7691209 12.740134 29.5403727 8.5 36.9575872 10.620067 38.1863354 14.875 30.7691209"/><polyline id="Fill-246" fill="#FFA200" points="14.875 30.7412008 10.625 38.126294 10.625 40.5879917 14.875 33.2028986 14.875 30.7412008"/><polyline id="Fill-247" fill="#FFA200" points="10.625 43.0496894 14.875 50.4347826 14.875 47.9730849 10.625 40.5879917 10.625 43.0496894"/><polyline id="Fill-248" fill="#FF9400" points="14.875 50.4347826 10.625 42.989648 10.625 45.4713596 12.7573909 49.1864445 14.875 50.4347826"/><polyline id="Fill-249" fill="#D9820C" points="14.875 11.0756558 12.740134 9.84679089 8.5 17.2638888 10.620067 18.4927536 14.875 11.0756558"/><polyline id="Fill-250" fill="#FFB53A" points="14.875 11.047619 10.625 18.4325805 10.625 20.8944099 14.875 13.5094485 14.875 11.047619"/><polyline id="Fill-251" fill="#FFA200" points="10.625 23.3561077 14.875 30.7412008 14.875 28.2795031 10.625 20.8944099 10.625 23.3561077"/><polygon id="Fill-252" fill="#FF9400" points="10.1035495 22.4550175 10.1035495 25.6499943 12.8726671 29.5621846 15.1111111 30.9813665"/><polygon id="Fill-253" fill="#F6A623" points="2.125 5.77138303 2.125 90.5004133 0 89.5098664 0 4.94834006"/><polyline id="Fill-254" fill="#D48400" points="2.125 5.79401284 2.125 90.5004133 4.25 89.5098664 4.25 4.80331263 2.125 5.79401284"/><polyline id="Fill-255" fill="#D9820C" points="2.125 70.1563528 4.24522579 68.9275362 8.5 76.3446824 6.36545158 77.573499 2.125 70.1563528"/><polyline id="Fill-256" fill="#FFA200" points="2.125 70.1283644 6.375 77.5133378 6.375 79.9751553 2.125 72.5901818 2.125 70.1283644"/><polygon id="Fill-257" fill="#FFA200" points="2.125 90.0509713 2.125 87.3601287 6.375 79.9751553 6.375 82.6245997"/><polyline id="Fill-258" fill="#FF8E00" points="2.125 90.0621118 6.375 82.6169772 6.375 85.0988497 4.25 88.8286584 2.125 90.0621118"/><polyline id="Fill-263" fill="#D08625" points="2.125 50.462771 4.24522579 49.2339545 8.5 56.6511007 6.37977421 57.8799172 2.125 50.462771"/><polygon id="Fill-264" fill="#FFA200" points="6.375 57.8197561 6.375 60.2815735 2.125 52.8966 2.125 50.4347826"/><polygon id="Fill-265" fill="#FFA200" points="2.125 70.3494153 2.125 67.666547 6.375 60.2815735 6.375 62.9142485"/><polyline id="Fill-266" fill="#FF9400" points="2.125 70.36853 6.375 62.9233954 6.375 65.4052679 4.25 69.1350766 2.125 70.36853"/><polygon id="Fill-267" fill="#C88932" points="4.19719781 29.542249 8.5 36.9447506 6.37977421 38.1863354 2.08499485 30.7327575"/><polyline id="Fill-268" fill="#FFA200" points="2.125 30.7412008 6.375 38.126294 6.375 40.5879917 2.125 33.2028986 2.125 30.7412008"/><polygon id="Fill-269" fill="#FFA200" points="2.125 50.7816625 2.125 47.973444 6.375 40.5879917 6.375 43.2279374"/><polyline id="Fill-270" fill="#F79916" points="2.125 50.6749482 6.375 43.2298137 6.375 45.7116861 4.24284672 49.4414948 2.125 50.6749482"/><polyline id="Fill-271" fill="#D9820C" points="2.125 11.0881081 4.24522579 9.84679089 8.5 17.2512444 6.37977421 18.4927536 2.125 11.0881081"/><polyline id="Fill-272" fill="#FFA200" points="2.125 11.047619 6.375 18.4328439 6.375 20.8944099 2.125 13.5094245 2.125 11.047619"/><polygon id="Fill-273" fill="#FFA200" points="2.125 30.7412008 2.125 28.2798623 6.375 20.5270081 6.375 23.3562274"/><polyline id="Fill-274" fill="#ED9D2F" points="2.125 30.7412008 6.375 23.2960663 6.375 25.7779387 4.24284672 29.5077474 2.125 30.7412008"/><polygon id="Fill-277" fill="#FFA200" points="8.48847114 12.3878793 8.48847114 9.86609112 0.0137914022 4.98650049 0.0137914022 7.55504436"/><polygon id="Fill-277" fill="#FFB53A" transform="translate(12.681749, 8.486273) scale(1, -1) translate(-12.681749, -8.486273) " points="16.8634983 12.1692324 16.8634983 9.64744423 8.5 4.80331263 8.5 7.32500271"/><polyline id="Fill-279" fill="#F6A623" points="6.375 7.87077037 8.5 8.85006704 8.5 93.5678711 6.375 92.5886894 6.375 7.87077037"/><polyline id="Fill-280" fill="#FFB53A" points="8.5 8.85006704 8.5 93.5678711 10.625 92.5886894 10.625 7.87077037 8.5 8.85006704"/><polygon id="Path-10" fill="#FFB328" points="8.34747314 2.50180351 8.34747314 4.72722326 3.90471056 7.26360313 1.9303928 6.09291295"/><polygon id="Path-11" fill="#FF9D00" points="8.34020996 2.43871312 8.34020996 4.76742969 12.6326362 7.44525184 14.6649441 6.22999968"/><path d="M8.40638563 0L16.9258694 4.85631793 8.53205024 9.90894313 0 4.98202963 8.40638563 0ZM8.36753337 2.49605736L4.18705241 4.92046374 8.24884372 7.38180965 12.310635 4.92046374 8.36753337 2.49605736Z" id="Combined-Shape" fill="#F7AE35"/></g><g id="Group-7" transform="translate(10.000000, 91.000000)"><g id="Group-4" transform="translate(0.000000, 19.000000)"><polygon id="Path-12" fill="#8D8D8D" points="0.922363281 15.4007568 28.7333984 31.2168579 28.7333984 33.1704712 0.922363281 17.2060547"/><polygon id="Path-14" fill="#B4B4B4" points="28.7491455 31.2521973 54.7329102 16.0671387 27.3414307 0.564208984 0.918304443 15.38974"/><polygon id="Path-13" fill="#EAEAEA" points="28.755127 31.2775269 54.7459717 16.0623169 54.7459717 17.5574341 28.755127 33.1257935"/></g><g id="Group-4" transform="translate(44.000000, 21.000000)"><g id="Group-3" transform="translate(0.000000, 0.439074)" fill="#8D8D8D"><path d="M0.761534692 0.581188431L0.75 0.576923077 0.75 13.7409478 1.75 14.1315963 1.75 0.950383126 1.75 0.950383126 1.75 14.1364732 2.75 13.7938547 2.75 0.576923077 2.7390052 0.580997332 1.78034973 0.20906634 0.761534692 0.581188431Z" id="Combined-Shape"/></g><g id="Group-3" transform="translate(0.000000, 0.439074)" fill="#E9E9E9"><path d="M1.75 0.950383126L1.75 14.1364732 2.75 13.7938547 2.75 0.576923077 2.7390052 0.580997332 1.78034973 0.20906634 0.752243042 0.584582205 1.75 0.950383126Z" id="Combined-Shape"/></g></g><g id="Group-4" transform="translate(26.000000, 35.000000)"><g id="Group-3" transform="translate(0.000000, 0.409803)" fill="#8D8D8D"><path d="M0.761534692 0.542442535L0.75 0.538461538 0.75 12.8248846 1.75 13.1894899 1.75 0.887024251 1.75 0.887024251 1.75 13.1940417 2.75 12.8742644 2.75 0.538461538 2.7390052 0.542264176 1.78034973 0.195128584 0.761534692 0.542442535Z" id="Combined-Shape"/></g><g id="Group-3" transform="translate(0.000000, 0.409803)" fill="#E9E9E9"><path d="M1.75 0.887024251L1.75 13.1940417 2.75 12.8742644 2.75 0.538461538 2.7390052 0.542264176 1.78034973 0.195128584 0.752243042 0.545610058 1.75 0.887024251Z" id="Combined-Shape"/></g></g><g id="Group-4" transform="translate(8.000000, 23.000000)"><g id="Group-3" transform="translate(0.000000, 0.380531)" fill="#8D8D8D"><path d="M0.761534692 0.50369664L0.75 0.5 0.75 11.9088214 1.75 12.2473835 1.75 0.823665376 1.75 0.823665376 1.75 12.2516101 2.75 11.9546741 2.75 0.5 2.7390052 0.503531021 1.78034973 0.181190828 0.761534692 0.50369664Z" id="Combined-Shape"/></g><g id="Group-3" transform="translate(0.000000, 0.380531)" fill="#E9E9E9"><path d="M1.75 0.823665376L1.75 12.2516101 2.75 11.9546741 2.75 0.5 2.7390052 0.503531021 1.78034973 0.181190828 0.752243042 0.506637911 1.75 0.823665376Z" id="Combined-Shape"/></g></g><g id="Group-4" transform="translate(17.000000, 31.000000)"><g id="Group-3" transform="translate(0.000000, 0.351259)" fill="#8D8D8D"><path d="M0.761534692 0.464950744L0.75 0.461538462 0.75 10.9927583 1.75 11.305277 1.75 0.760306501 1.75 0.760306501 1.75 11.3091786 2.75 11.0350838 2.75 0.461538462 2.7390052 0.464797865 1.78034973 0.167253072 0.761534692 0.464950744Z" id="Combined-Shape"/></g><g id="Group-3" transform="translate(0.000000, 0.351259)" fill="#E9E9E9"><path d="M1.75 0.760306501L1.75 11.3091786 2.75 11.0350838 2.75 0.461538462 2.7390052 0.464797865 1.78034973 0.167253072 0.752243042 0.467665764 1.75 0.760306501Z" id="Combined-Shape"/></g></g><g id="Group-4" transform="translate(0.000000, 6.000000)"><polygon id="Path-12" fill="#8D8D8D" points="0.922363281 15.4007568 28.7333984 31.2168579 28.7333984 33.1704712 0.922363281 17.2060547"/><polygon id="Path-14" fill="#B4B4B4" points="28.7491455 31.2521973 54.7329102 16.0671387 27.3414307 0.564208984 0.918304443 15.38974"/><polygon id="Path-13" fill="#EAEAEA" points="28.755127 31.2775269 54.7459717 16.0623169 54.7459717 17.5574341 28.755127 33.1257935"/></g><g id="Group-4" transform="translate(8.000000, 10.000000)"><g id="Group-3" transform="translate(0.000000, 0.409803)" fill="#8D8D8D"><path d="M0.761534692 0.542442535L0.75 0.538461538 0.75 12.8248846 1.75 13.1894899 1.75 0.887024251 1.75 0.887024251 1.75 13.1940417 2.75 12.8742644 2.75 0.538461538 2.7390052 0.542264176 1.78034973 0.195128584 0.761534692 0.542442535Z" id="Combined-Shape"/></g><g id="Group-3" transform="translate(0.000000, 0.409803)" fill="#E9E9E9"><path d="M1.75 0.887024251L1.75 13.1940417 2.75 12.8742644 2.75 0.538461538 2.7390052 0.542264176 1.78034973 0.195128584 0.752243042 0.545610058 1.75 0.887024251Z" id="Combined-Shape"/></g></g><g id="Group-4" transform="translate(17.000000, 15.000000)"><g id="Group-3" transform="translate(0.000000, 0.409803)" fill="#8D8D8D"><path d="M0.761534692 0.542442535L0.75 0.538461538 0.75 12.8248846 1.75 13.1894899 1.75 0.887024251 1.75 0.887024251 1.75 13.1940417 2.75 12.8742644 2.75 0.538461538 2.7390052 0.542264176 1.78034973 0.195128584 0.761534692 0.542442535Z" id="Combined-Shape"/></g><g id="Group-3" transform="translate(0.000000, 0.409803)" fill="#E9E9E9"><path d="M1.75 0.887024251L1.75 13.1940417 2.75 12.8742644 2.75 0.538461538 2.7390052 0.542264176 1.78034973 0.195128584 0.752243042 0.545610058 1.75 0.887024251Z" id="Combined-Shape"/></g></g><g id="Group-4" transform="translate(26.000000, 20.000000)"><g id="Group-3" transform="translate(0.000000, 0.409803)" fill="#8D8D8D"><path d="M0.761534692 0.542442535L0.75 0.538461538 0.75 12.8248846 1.75 13.1894899 1.75 0.887024251 1.75 0.887024251 1.75 13.1940417 2.75 12.8742644 2.75 0.538461538 2.7390052 0.542264176 1.78034973 0.195128584 0.761534692 0.542442535Z" id="Combined-Shape"/></g><g id="Group-3" transform="translate(0.000000, 0.409803)" fill="#E9E9E9"><path d="M1.75 0.887024251L1.75 13.1940417 2.75 12.8742644 2.75 0.538461538 2.7390052 0.542264176 1.78034973 0.195128584 0.752243042 0.545610058 1.75 0.887024251Z" id="Combined-Shape"/></g></g><g id="Group-4" transform="translate(27.000000, 0.000000)"><g id="Group-3" transform="translate(0.000000, 0.409803)" fill="#8D8D8D"><path d="M0.761534692 0.542442535L0.75 0.538461538 0.75 12.8248846 1.75 13.1894899 1.75 0.887024251 1.75 0.887024251 1.75 13.1940417 2.75 12.8742644 2.75 0.538461538 2.7390052 0.542264176 1.78034973 0.195128584 0.761534692 0.542442535Z" id="Combined-Shape"/></g><g id="Group-3" transform="translate(0.000000, 0.409803)" fill="#E9E9E9"><path d="M1.75 0.887024251L1.75 13.1940417 2.75 12.8742644 2.75 0.538461538 2.7390052 0.542264176 1.78034973 0.195128584 0.752243042 0.545610058 1.75 0.887024251Z" id="Combined-Shape"/></g></g><g id="Group-4" transform="translate(35.000000, 4.000000)"><g id="Group-3" transform="translate(0.000000, 0.439074)" fill="#8D8D8D"><path d="M0.761534692 0.581188431L0.75 0.576923077 0.75 13.7409478 1.75 14.1315963 1.75 0.950383126 1.75 0.950383126 1.75 14.1364732 2.75 13.7938547 2.75 0.576923077 2.7390052 0.580997332 1.78034973 0.20906634 0.761534692 0.581188431Z" id="Combined-Shape"/></g><g id="Group-3" transform="translate(0.000000, 0.439074)" fill="#E9E9E9"><path d="M1.75 0.950383126L1.75 14.1364732 2.75 13.7938547 2.75 0.576923077 2.7390052 0.580997332 1.78034973 0.20906634 0.752243042 0.584582205 1.75 0.950383126Z" id="Combined-Shape"/></g></g><g id="Group-4" transform="translate(44.000000, 10.000000)"><g id="Group-3" transform="translate(0.000000, 0.439074)" fill="#8D8D8D"><path d="M0.761534692 0.581188431L0.75 0.576923077 0.75 13.7409478 1.75 14.1315963 1.75 0.950383126 1.75 0.950383126 1.75 14.1364732 2.75 13.7938547 2.75 0.576923077 2.7390052 0.580997332 1.78034973 0.20906634 0.761534692 0.581188431Z" id="Combined-Shape"/></g><g id="Group-3" transform="translate(0.000000, 0.439074)" fill="#E9E9E9"><path d="M1.75 0.950383126L1.75 14.1364732 2.75 13.7938547 2.75 0.576923077 2.7390052 0.580997332 1.78034973 0.20906634 0.752243042 0.584582205 1.75 0.950383126Z" id="Combined-Shape"/></g></g></g><g id="Group-7" transform="translate(10.000000, 63.000000)"><g id="Group-4" transform="translate(0.000000, 19.000000)"><polygon id="Path-12" fill="#8D8D8D" points="0.922363281 15.4007568 28.7333984 31.2168579 28.7333984 33.1704712 0.922363281 17.2060547"/><polygon id="Path-14" fill="#B4B4B4" points="28.7491455 31.2521973 54.7329102 16.0671387 27.3414307 0.564208984 0.918304443 15.38974"/><polygon id="Path-13" fill="#EAEAEA" points="28.755127 31.2775269 54.7459717 16.0623169 54.7459717 17.5574341 28.755127 33.1257935"/></g><g id="Group-4" transform="translate(44.000000, 21.000000)"><g id="Group-3" transform="translate(0.000000, 0.439074)" fill="#8D8D8D"><path d="M0.761534692 0.581188431L0.75 0.576923077 0.75 13.7409478 1.75 14.1315963 1.75 0.950383126 1.75 0.950383126 1.75 14.1364732 2.75 13.7938547 2.75 0.576923077 2.7390052 0.580997332 1.78034973 0.20906634 0.761534692 0.581188431Z" id="Combined-Shape"/></g><g id="Group-3" transform="translate(0.000000, 0.439074)" fill="#E9E9E9"><path d="M1.75 0.950383126L1.75 14.1364732 2.75 13.7938547 2.75 0.576923077 2.7390052 0.580997332 1.78034973 0.20906634 0.752243042 0.584582205 1.75 0.950383126Z" id="Combined-Shape"/></g></g><g id="Group-4" transform="translate(26.000000, 35.000000)"><g id="Group-3" transform="translate(0.000000, 0.409803)" fill="#8D8D8D"><path d="M0.761534692 0.542442535L0.75 0.538461538 0.75 12.8248846 1.75 13.1894899 1.75 0.887024251 1.75 0.887024251 1.75 13.1940417 2.75 12.8742644 2.75 0.538461538 2.7390052 0.542264176 1.78034973 0.195128584 0.761534692 0.542442535Z" id="Combined-Shape"/></g><g id="Group-3" transform="translate(0.000000, 0.409803)" fill="#E9E9E9"><path d="M1.75 0.887024251L1.75 13.1940417 2.75 12.8742644 2.75 0.538461538 2.7390052 0.542264176 1.78034973 0.195128584 0.752243042 0.545610058 1.75 0.887024251Z" id="Combined-Shape"/></g></g><g id="Group-4" transform="translate(8.000000, 23.000000)"><g id="Group-3" transform="translate(0.000000, 0.380531)" fill="#8D8D8D"><path d="M0.761534692 0.50369664L0.75 0.5 0.75 11.9088214 1.75 12.2473835 1.75 0.823665376 1.75 0.823665376 1.75 12.2516101 2.75 11.9546741 2.75 0.5 2.7390052 0.503531021 1.78034973 0.181190828 0.761534692 0.50369664Z" id="Combined-Shape"/></g><g id="Group-3" transform="translate(0.000000, 0.380531)" fill="#E9E9E9"><path d="M1.75 0.823665376L1.75 12.2516101 2.75 11.9546741 2.75 0.5 2.7390052 0.503531021 1.78034973 0.181190828 0.752243042 0.506637911 1.75 0.823665376Z" id="Combined-Shape"/></g></g><g id="Group-4" transform="translate(17.000000, 31.000000)"><g id="Group-3" transform="translate(0.000000, 0.351259)" fill="#8D8D8D"><path d="M0.761534692 0.464950744L0.75 0.461538462 0.75 10.9927583 1.75 11.305277 1.75 0.760306501 1.75 0.760306501 1.75 11.3091786 2.75 11.0350838 2.75 0.461538462 2.7390052 0.464797865 1.78034973 0.167253072 0.761534692 0.464950744Z" id="Combined-Shape"/></g><g id="Group-3" transform="translate(0.000000, 0.351259)" fill="#E9E9E9"><path d="M1.75 0.760306501L1.75 11.3091786 2.75 11.0350838 2.75 0.461538462 2.7390052 0.464797865 1.78034973 0.167253072 0.752243042 0.467665764 1.75 0.760306501Z" id="Combined-Shape"/></g></g><g id="Group-4" transform="translate(0.000000, 6.000000)"><polygon id="Path-12" fill="#8D8D8D" points="0.922363281 15.4007568 28.7333984 31.2168579 28.7333984 33.1704712 0.922363281 17.2060547"/><polygon id="Path-14" fill="#C7C7C7" points="28.7491455 31.2521973 54.7329102 16.0671387 27.3414307 0.564208984 0.918304443 15.38974"/><polygon id="Path-13" fill="#EAEAEA" points="28.755127 31.2775269 54.7459717 16.0623169 54.7459717 17.5574341 28.755127 33.1257935"/></g><g id="Group-4" transform="translate(8.000000, 10.000000)"><g id="Group-3" transform="translate(0.000000, 0.409803)" fill="#8D8D8D"><path d="M0.761534692 0.542442535L0.75 0.538461538 0.75 12.8248846 1.75 13.1894899 1.75 0.887024251 1.75 0.887024251 1.75 13.1940417 2.75 12.8742644 2.75 0.538461538 2.7390052 0.542264176 1.78034973 0.195128584 0.761534692 0.542442535Z" id="Combined-Shape"/></g><g id="Group-3" transform="translate(0.000000, 0.409803)" fill="#E9E9E9"><path d="M1.75 0.887024251L1.75 13.1940417 2.75 12.8742644 2.75 0.538461538 2.7390052 0.542264176 1.78034973 0.195128584 0.752243042 0.545610058 1.75 0.887024251Z" id="Combined-Shape"/></g></g><g id="Group-4" transform="translate(17.000000, 15.000000)"><g id="Group-3" transform="translate(0.000000, 0.409803)" fill="#8D8D8D"><path d="M0.761534692 0.542442535L0.75 0.538461538 0.75 12.8248846 1.75 13.1894899 1.75 0.887024251 1.75 0.887024251 1.75 13.1940417 2.75 12.8742644 2.75 0.538461538 2.7390052 0.542264176 1.78034973 0.195128584 0.761534692 0.542442535Z" id="Combined-Shape"/></g><g id="Group-3" transform="translate(0.000000, 0.409803)" fill="#E9E9E9"><path d="M1.75 0.887024251L1.75 13.1940417 2.75 12.8742644 2.75 0.538461538 2.7390052 0.542264176 1.78034973 0.195128584 0.752243042 0.545610058 1.75 0.887024251Z" id="Combined-Shape"/></g></g><g id="Group-4" transform="translate(26.000000, 20.000000)"><g id="Group-3" transform="translate(0.000000, 0.409803)" fill="#8D8D8D"><path d="M0.761534692 0.542442535L0.75 0.538461538 0.75 12.8248846 1.75 13.1894899 1.75 0.887024251 1.75 0.887024251 1.75 13.1940417 2.75 12.8742644 2.75 0.538461538 2.7390052 0.542264176 1.78034973 0.195128584 0.761534692 0.542442535Z" id="Combined-Shape"/></g><g id="Group-3" transform="translate(0.000000, 0.409803)" fill="#E9E9E9"><path d="M1.75 0.887024251L1.75 13.1940417 2.75 12.8742644 2.75 0.538461538 2.7390052 0.542264176 1.78034973 0.195128584 0.752243042 0.545610058 1.75 0.887024251Z" id="Combined-Shape"/></g></g><g id="Group-4" transform="translate(27.000000, 0.000000)"><g id="Group-3" transform="translate(0.000000, 0.409803)" fill="#8D8D8D"><path d="M0.761534692 0.542442535L0.75 0.538461538 0.75 12.8248846 1.75 13.1894899 1.75 0.887024251 1.75 0.887024251 1.75 13.1940417 2.75 12.8742644 2.75 0.538461538 2.7390052 0.542264176 1.78034973 0.195128584 0.761534692 0.542442535Z" id="Combined-Shape"/></g><g id="Group-3" transform="translate(0.000000, 0.409803)" fill="#E9E9E9"><path d="M1.75 0.887024251L1.75 13.1940417 2.75 12.8742644 2.75 0.538461538 2.7390052 0.542264176 1.78034973 0.195128584 0.752243042 0.545610058 1.75 0.887024251Z" id="Combined-Shape"/></g></g><g id="Group-4" transform="translate(35.000000, 4.000000)"><g id="Group-3" transform="translate(0.000000, 0.439074)" fill="#8D8D8D"><path d="M0.761534692 0.581188431L0.75 0.576923077 0.75 13.7409478 1.75 14.1315963 1.75 0.950383126 1.75 0.950383126 1.75 14.1364732 2.75 13.7938547 2.75 0.576923077 2.7390052 0.580997332 1.78034973 0.20906634 0.761534692 0.581188431Z" id="Combined-Shape"/></g><g id="Group-3" transform="translate(0.000000, 0.439074)" fill="#E9E9E9"><path d="M1.75 0.950383126L1.75 14.1364732 2.75 13.7938547 2.75 0.576923077 2.7390052 0.580997332 1.78034973 0.20906634 0.752243042 0.584582205 1.75 0.950383126Z" id="Combined-Shape"/></g></g><g id="Group-4" transform="translate(44.000000, 10.000000)"><g id="Group-3" transform="translate(0.000000, 0.439074)" fill="#8D8D8D"><path d="M0.761534692 0.581188431L0.75 0.576923077 0.75 13.7409478 1.75 14.1315963 1.75 0.950383126 1.75 0.950383126 1.75 14.1364732 2.75 13.7938547 2.75 0.576923077 2.7390052 0.580997332 1.78034973 0.20906634 0.761534692 0.581188431Z" id="Combined-Shape"/></g><g id="Group-3" transform="translate(0.000000, 0.439074)" fill="#E9E9E9"><path d="M1.75 0.950383126L1.75 14.1364732 2.75 13.7938547 2.75 0.576923077 2.7390052 0.580997332 1.78034973 0.20906634 0.752243042 0.584582205 1.75 0.950383126Z" id="Combined-Shape"/></g></g></g><g id="Group-8" transform="translate(53.000000, 6.387207)"><polyline id="Fill-209" fill="#F7F7F7" points="62 45 62 47.6671854 64.3284409 51.6747066 66.6720833 53 69 51.6747066 69 49.0080399 62 45"/><polygon id="Fill-211" fill="#FFA200" points="60.1829834 45.083374 71.6057129 52.0123901 71.6057129 48.7385254 60.1829834 41.5561523"/><polygon id="Fill-212" fill="#D08625" points="73.6865234 50.4458618 73.6865234 47.3365479 71.5640259 48.7631226 71.5640259 52.0218506"/><polygon id="Fill-213" fill="#D9820C" points="62.2806396 40.5131226 60.1821289 41.5575562 71.5586548 48.7767334 73.6986694 47.3374023"/><polygon id="Fill-214" fill="#FFB53A" points="66 42.7369995 66 40 64 41.1850586 64 44"/><polygon id="Fill-215" fill="#FFB53A" points="69 47.1616211 71 45.7335815 71 43 69 43.9818726"/><polygon id="Fill-216" fill="#FFA200" points="83.8000488 52.5567627 81.7767352 54 79.5534703 52.702715 77.3146862 48.8419627 0.304534912 4.3951416 0.304534912 1.81622328 83.8000488 49.977744"/><polygon id="Fill-217" fill="#F6A623" points="86 48.7298819 2.51660156 0.546386719 0.299952989 1.83161702 83.7678783 50"/><polygon id="Fill-218" fill="#FFB53A" points="86 51.3015747 83.7936401 52.5717163 83.7936401 49.9588013 86 48.7121582"/><polygon id="Fill-281" fill="#FFA200" points="62 42.725708 64 44 64 40.9770508 62 40"/><polygon id="Fill-282" fill="#FFA200" points="69 47.1471558 67 45.8746948 67 42.874939 69 44.0246582"/><polygon id="Fill-283" fill="#171E37" points="62.1731567 47.9220581 63.2838745 49.824707 65.6965332 48.3818359 63.789917 47.2515869"/><polygon id="Fill-284" fill="#171E37" points="64.2859497 51.6720374 66.4580688 53.0735474 69.9326172 50.9780273 67.5814209 49.6082764"/></g><polygon id="Path-15" fill="#FFB021" points="72.4407959 30.4418945 75.2270508 20.4174805 83.8717041 15.9829102 79.9882812 26.256958"/><polygon id="Path-15" fill="#C9E2FF" points="73.4233398 29.2359619 75.612793 21.5854492 82.6396484 18.0526123 79.7554932 25.6108398"/><polygon id="Path-16" fill="#FF9D00" points="64.9421387 26.3991699 72.5064697 30.3425293 75.2484131 20.4797363 64 15"/><polygon id="Path-17" fill="#FFB61E" points="63.9992676 15.0860596 75.1949463 20.4981689 83.8637695 15.9819336 73.0407715 10.387207"/><polygon id="Path-18" fill="#464646" opacity="0.210880888" points="64.9499512 26.1525879 64.9499512 26.4598298 72.4453125 30.7816162 80.0627441 26.3482666 80.0627441 26.1525879 72.4453125 30.4968262"/><polygon id="Path-23" fill="#FFB53A" points="58.7724609 11.4553223 58.7724609 5.27307129 61.236084 4.05810547 61.236084 10.2645264"/><polygon id="Path-24" fill="#FFA200" points="58.8109741 11.4753418 53.2937012 8.22839355 53.2733154 2.22741699 58.8109741 5.31329346"/><polygon id="Path-25" fill="#FFB200" points="58.8126221 5.33596802 61.2323151 4.05775452 55.635437 0.913452148 53.2731781 2.23301697"/><g id="lg-block-tree" transform="translate(81.000000, 77.000000)"><polyline id="Fill-3503" fill="#906F4F" points="8.75008 24.9147913 8.75008 21.8129422 7 22.8382252 7 25.9400743 8.75008 24.9147913"/><polyline id="Fill-3504" fill="#B38E67" points="5.32 24.9147913 5.32 21.8129422 7.07008 22.8382252 7.07008 25.9400743 5.32 24.9147913"/><polyline id="Fill-3506" fill="#6A8A3C" points="12.95032 19.6149611 12.95032 15.1903007 7 18.676263 7 23.1009233 12.95032 19.6149611"/><polyline id="Fill-3507" fill="#9CB664" points="1 19.6149611 1 15.1903007 6.95032 18.676263 6.95032 23.1009233 1 19.6149611"/><polyline id="Fill-3508" fill="#556A31" points="6.95032 11.6336969 1 15.1199045 6.95032 18.6058667 12.90064 15.1199045 6.95032 11.6336969"/><polygon id="Fill-3509" fill="#6A8A3C" points="12.95032 9.42614976 7 12.9123573 7 17.3370177 12.95032 13.8510554"/><polyline id="Fill-3510" fill="#9CB664" points="1 13.8510554 1 9.42614976 6.95032 12.9123573 6.95032 17.3370177 1 13.8510554"/><polygon id="Fill-3511" fill="#556A31" points="0.984466553 9.42559814 6.95032 12.921936 12.9506226 9.42559814 6.95032 5.86954599"/><polyline id="Fill-3512" fill="#6A8A3C" points="12.95032 7.96401769 12.95032 3.53935731 7 7.02531958 7 11.44998 12.95032 7.96401769"/><polyline id="Fill-3513" fill="#9CB664" points="1 7.96401769 1 3.53935731 6.95032 7.02531958 6.95032 11.44998 1 7.96401769"/><polyline id="Fill-3514" fill="#B7CC86" points="6.95032 0.105395047 1 3.59135731 6.95032 7.07731958 12.90064 3.59135731 6.95032 0.105395047"/></g><g id="md-block-tree" transform="translate(91.000000, 88.000000)"><polyline id="Fill-3503" fill="#906F4F" points="6.37951947 20.0861553 6.37951947 17.59763 4.92957746 18.4201854 4.92957746 20.9087107 6.37951947 20.0861553"/><polyline id="Fill-3504" fill="#B38E67" points="3.52112676 20.0861553 3.52112676 17.59763 4.97106877 18.4201854 4.97106877 20.9087107 3.52112676 20.0861553"/><polyline id="Fill-3506" fill="#6A8A3C" points="9.85942005 15.7917045 9.85942005 12.2419253 4.92957746 15.0386137 4.92957746 18.5883929 9.85942005 15.7917045"/><polyline id="Fill-3507" fill="#9CB664" points="0 15.7917045 0 12.2419253 4.92984258 15.0386137 4.92984258 18.5883929 0 15.7917045"/><polyline id="Fill-3508" fill="#556A31" points="4.92984258 9.42313339 0 12.2200185 4.92984258 15.0167069 9.85968517 12.2200185 4.92984258 9.42313339"/><polyline id="Fill-3509" fill="#6A8A3C" points="9.85942005 11.1408946 9.85942005 7.59091862 4.92957746 10.3878038 4.92957746 13.9375829 9.85942005 11.1408946"/><polyline id="Fill-3510" fill="#9CB664" points="0 11.1408946 0 7.59091862 4.92984258 10.3878038 4.92984258 13.9375829 0 11.1408946"/><polyline id="Fill-3511" fill="#556A31" points="4.92984258 4.77212668 0 7.56881504 4.92984258 10.3657002 9.85968517 7.56881504 4.92984258 4.77212668"/><polyline id="Fill-3512" fill="#6A8A3C" points="9.85942005 6.48969107 9.85942005 2.93991191 4.92957746 5.73660028 4.92957746 9.28637943 9.85942005 6.48969107"/><polyline id="Fill-3513" fill="#9CB664" points="0 6.48969107 0 2.93991191 4.92984258 5.73660028 4.92984258 9.28637943 0 6.48969107"/><polyline id="Fill-3514" fill="#B7CC86" points="4.92984258 0.121119966 0 2.91780833 4.92984258 5.71449669 9.85968517 2.91780833 4.92984258 0.121119966"/></g><g id="Group-7" transform="translate(82.000000, 90.000000)"><g id="Group-4" transform="translate(0.000000, 19.000000)"><polygon id="Path-12" fill="#8D8D8D" points="0.922363281 15.4007568 28.7333984 31.2168579 28.7333984 33.1704712 0.922363281 17.2060547"/><polygon id="Path-14" fill="#B4B4B4" points="28.7491455 31.2521973 54.7329102 16.0671387 27.3414307 0.564208984 0.918304443 15.38974"/><polygon id="Path-13" fill="#EAEAEA" points="28.755127 31.2775269 54.7459717 16.0623169 54.7459717 17.5574341 28.755127 33.1257935"/></g><g id="Group-4" transform="translate(44.000000, 21.000000)"><g id="Group-3" transform="translate(0.000000, 0.439074)" fill="#8D8D8D"><path d="M0.761534692 0.581188431L0.75 0.576923077 0.75 13.7409478 1.75 14.1315963 1.75 0.950383126 1.75 0.950383126 1.75 14.1364732 2.75 13.7938547 2.75 0.576923077 2.7390052 0.580997332 1.78034973 0.20906634 0.761534692 0.581188431Z" id="Combined-Shape"/></g><g id="Group-3" transform="translate(0.000000, 0.439074)" fill="#E9E9E9"><path d="M1.75 0.950383126L1.75 14.1364732 2.75 13.7938547 2.75 0.576923077 2.7390052 0.580997332 1.78034973 0.20906634 0.752243042 0.584582205 1.75 0.950383126Z" id="Combined-Shape"/></g></g><g id="Group-4" transform="translate(26.000000, 35.000000)"><g id="Group-3" transform="translate(0.000000, 0.409803)" fill="#8D8D8D"><path d="M0.761534692 0.542442535L0.75 0.538461538 0.75 12.8248846 1.75 13.1894899 1.75 0.887024251 1.75 0.887024251 1.75 13.1940417 2.75 12.8742644 2.75 0.538461538 2.7390052 0.542264176 1.78034973 0.195128584 0.761534692 0.542442535Z" id="Combined-Shape"/></g><g id="Group-3" transform="translate(0.000000, 0.409803)" fill="#E9E9E9"><path d="M1.75 0.887024251L1.75 13.1940417 2.75 12.8742644 2.75 0.538461538 2.7390052 0.542264176 1.78034973 0.195128584 0.752243042 0.545610058 1.75 0.887024251Z" id="Combined-Shape"/></g></g><g id="Group-4" transform="translate(8.000000, 23.000000)"><g id="Group-3" transform="translate(0.000000, 0.380531)" fill="#8D8D8D"><path d="M0.761534692 0.50369664L0.75 0.5 0.75 11.9088214 1.75 12.2473835 1.75 0.823665376 1.75 0.823665376 1.75 12.2516101 2.75 11.9546741 2.75 0.5 2.7390052 0.503531021 1.78034973 0.181190828 0.761534692 0.50369664Z" id="Combined-Shape"/></g><g id="Group-3" transform="translate(0.000000, 0.380531)" fill="#E9E9E9"><path d="M1.75 0.823665376L1.75 12.2516101 2.75 11.9546741 2.75 0.5 2.7390052 0.503531021 1.78034973 0.181190828 0.752243042 0.506637911 1.75 0.823665376Z" id="Combined-Shape"/></g></g><g id="Group-4" transform="translate(17.000000, 31.000000)"><g id="Group-3" transform="translate(0.000000, 0.351259)" fill="#8D8D8D"><path d="M0.761534692 0.464950744L0.75 0.461538462 0.75 10.9927583 1.75 11.305277 1.75 0.760306501 1.75 0.760306501 1.75 11.3091786 2.75 11.0350838 2.75 0.461538462 2.7390052 0.464797865 1.78034973 0.167253072 0.761534692 0.464950744Z" id="Combined-Shape"/></g><g id="Group-3" transform="translate(0.000000, 0.351259)" fill="#E9E9E9"><path d="M1.75 0.760306501L1.75 11.3091786 2.75 11.0350838 2.75 0.461538462 2.7390052 0.464797865 1.78034973 0.167253072 0.752243042 0.467665764 1.75 0.760306501Z" id="Combined-Shape"/></g></g><g id="Group-4" transform="translate(0.000000, 6.000000)"><polygon id="Path-12" fill="#8D8D8D" points="0.922363281 15.4007568 28.7333984 31.2168579 28.7333984 33.1704712 0.922363281 17.2060547"/><polygon id="Path-14" fill="#B4B4B4" points="28.7491455 31.2521973 54.7329102 16.0671387 27.3414307 0.564208984 0.918304443 15.38974"/><polygon id="Path-13" fill="#EAEAEA" points="28.755127 31.2775269 54.7459717 16.0623169 54.7459717 17.5574341 28.755127 33.1257935"/></g><g id="Group-4" transform="translate(8.000000, 10.000000)"><g id="Group-3" transform="translate(0.000000, 0.409803)" fill="#8D8D8D"><path d="M0.761534692 0.542442535L0.75 0.538461538 0.75 12.8248846 1.75 13.1894899 1.75 0.887024251 1.75 0.887024251 1.75 13.1940417 2.75 12.8742644 2.75 0.538461538 2.7390052 0.542264176 1.78034973 0.195128584 0.761534692 0.542442535Z" id="Combined-Shape"/></g><g id="Group-3" transform="translate(0.000000, 0.409803)" fill="#E9E9E9"><path d="M1.75 0.887024251L1.75 13.1940417 2.75 12.8742644 2.75 0.538461538 2.7390052 0.542264176 1.78034973 0.195128584 0.752243042 0.545610058 1.75 0.887024251Z" id="Combined-Shape"/></g></g><g id="Group-4" transform="translate(17.000000, 15.000000)"><g id="Group-3" transform="translate(0.000000, 0.409803)" fill="#8D8D8D"><path d="M0.761534692 0.542442535L0.75 0.538461538 0.75 12.8248846 1.75 13.1894899 1.75 0.887024251 1.75 0.887024251 1.75 13.1940417 2.75 12.8742644 2.75 0.538461538 2.7390052 0.542264176 1.78034973 0.195128584 0.761534692 0.542442535Z" id="Combined-Shape"/></g><g id="Group-3" transform="translate(0.000000, 0.409803)" fill="#E9E9E9"><path d="M1.75 0.887024251L1.75 13.1940417 2.75 12.8742644 2.75 0.538461538 2.7390052 0.542264176 1.78034973 0.195128584 0.752243042 0.545610058 1.75 0.887024251Z" id="Combined-Shape"/></g></g><g id="Group-4" transform="translate(26.000000, 20.000000)"><g id="Group-3" transform="translate(0.000000, 0.409803)" fill="#8D8D8D"><path d="M0.761534692 0.542442535L0.75 0.538461538 0.75 12.8248846 1.75 13.1894899 1.75 0.887024251 1.75 0.887024251 1.75 13.1940417 2.75 12.8742644 2.75 0.538461538 2.7390052 0.542264176 1.78034973 0.195128584 0.761534692 0.542442535Z" id="Combined-Shape"/></g><g id="Group-3" transform="translate(0.000000, 0.409803)" fill="#E9E9E9"><path d="M1.75 0.887024251L1.75 13.1940417 2.75 12.8742644 2.75 0.538461538 2.7390052 0.542264176 1.78034973 0.195128584 0.752243042 0.545610058 1.75 0.887024251Z" id="Combined-Shape"/></g></g><g id="Group-4" transform="translate(27.000000, 0.000000)"><g id="Group-3" transform="translate(0.000000, 0.409803)" fill="#8D8D8D"><path d="M0.761534692 0.542442535L0.75 0.538461538 0.75 12.8248846 1.75 13.1894899 1.75 0.887024251 1.75 0.887024251 1.75 13.1940417 2.75 12.8742644 2.75 0.538461538 2.7390052 0.542264176 1.78034973 0.195128584 0.761534692 0.542442535Z" id="Combined-Shape"/></g><g id="Group-3" transform="translate(0.000000, 0.409803)" fill="#E9E9E9"><path d="M1.75 0.887024251L1.75 13.1940417 2.75 12.8742644 2.75 0.538461538 2.7390052 0.542264176 1.78034973 0.195128584 0.752243042 0.545610058 1.75 0.887024251Z" id="Combined-Shape"/></g></g><g id="Group-4" transform="translate(35.000000, 4.000000)"><g id="Group-3" transform="translate(0.000000, 0.439074)" fill="#8D8D8D"><path d="M0.761534692 0.581188431L0.75 0.576923077 0.75 13.7409478 1.75 14.1315963 1.75 0.950383126 1.75 0.950383126 1.75 14.1364732 2.75 13.7938547 2.75 0.576923077 2.7390052 0.580997332 1.78034973 0.20906634 0.761534692 0.581188431Z" id="Combined-Shape"/></g><g id="Group-3" transform="translate(0.000000, 0.439074)" fill="#E9E9E9"><path d="M1.75 0.950383126L1.75 14.1364732 2.75 13.7938547 2.75 0.576923077 2.7390052 0.580997332 1.78034973 0.20906634 0.752243042 0.584582205 1.75 0.950383126Z" id="Combined-Shape"/></g></g><g id="Group-4" transform="translate(44.000000, 10.000000)"><g id="Group-3" transform="translate(0.000000, 0.439074)" fill="#8D8D8D"><path d="M0.761534692 0.581188431L0.75 0.576923077 0.75 13.7409478 1.75 14.1315963 1.75 0.950383126 1.75 0.950383126 1.75 14.1364732 2.75 13.7938547 2.75 0.576923077 2.7390052 0.580997332 1.78034973 0.20906634 0.761534692 0.581188431Z" id="Combined-Shape"/></g><g id="Group-3" transform="translate(0.000000, 0.439074)" fill="#E9E9E9"><path d="M1.75 0.950383126L1.75 14.1364732 2.75 13.7938547 2.75 0.576923077 2.7390052 0.580997332 1.78034973 0.20906634 0.752243042 0.584582205 1.75 0.950383126Z" id="Combined-Shape"/></g></g></g><polygon id="Path-26" stroke="#E4BC88" points="47.9477539 146.820312 74.0395508 132.467285 99.3525391 146.820312 72.612793 161.955566"/><polygon id="Path-27" fill="#FFE5B9" points="55 146.400879 55.9428711 147.009888 69.0615234 139.02771 69.0860596 138.481201 68.0834961 138 55 145.855469"/><polygon id="Path-27" fill="#FFE5B9" transform="translate(84.307861, 141.431519) scale(-1, 1) translate(-84.307861, -141.431519) " points="77 145.254028 77.9428711 145.863037 91.5911865 138.02771 91.6157227 137.481201 90.6131592 137 77 144.708618"/><polygon id="Path-27" fill="#FFE5B9" points="73.6746826 157.793701 74.6175537 158.40271 88.0615234 150.582489 88.0860596 150.03598 87.0834961 149.554779 73.6746826 157.248291"/></g><polygon id="Path-29" fill="#D8D8D8" points="118.107056 58.6218262 118.107056 89.3897079 118.806152 89.3897079 118.806152 59.0722656"/><circle id="Oval" fill="#FFB53A" cx="118.5" cy="89.5" r="1.5"/></g></g></svg>