<?xml version="1.0" encoding="UTF-8"?>
<svg width="400px" height="560px" viewBox="0 0 400 560" version="1.1" xmlns="http://www.w3.org/2000/svg" xmlns:xlink="http://www.w3.org/1999/xlink">
    <!-- Generator: Sketch 49.3 (51167) - http://www.bohemiancoding.com/sketch -->
    <title>ico-xml</title>
    <desc>Created with Sketch.</desc>
    <defs></defs>
    <g id="Page-1" stroke="none" stroke-width="1" fill="none" fill-rule="evenodd">
        <g id="ico-xml" fill="#000000">
            <path d="M21.4285714,21.3430127 L21.4285714,538.656987 L378.571429,538.656987 L378.571429,122.769964 L319.220344,122.769964 C296.114554,122.769964 277.38361,104.113807 277.38361,81.1002722 L277.38361,21.3430127 L21.4285714,21.3430127 Z M20.4081633,0 L298.812181,0 L298.812181,81.1002722 C298.812181,92.3263869 307.949227,101.426951 319.220344,101.426951 L400,101.426951 L400,539.673321 C400,550.899436 390.862954,560 379.591837,560 L20.4081633,560 C9.13704592,560 1.38031378e-15,550.899436 0,539.673321 L0,20.3266788 C-1.38031378e-15,9.10056407 9.13704592,2.06220381e-15 20.4081633,0 Z" id="Rectangle" fill-rule="nonzero"></path>
            <polygon id="Rectangle-2" points="298.7499 0.299739111 355.46875 56.366833 399.98854 101.624957 297.959184 104.388612"></polygon>
            <path d="M151.467383,226.979923 L111.109443,247.763158 L111.109443,248.358666 L151.467383,268.189088 L151.467383,283.255445 L96.1022678,254.135095 L96.1022678,242.522686 L151.467383,211.973117 L151.467383,226.979923 Z M179.004179,283.195894 C174.161226,283.195894 170.394485,279.444192 170.394485,274.620576 C170.394485,269.79696 174.161226,266.045259 179.004179,266.045259 C183.787342,266.045259 187.554084,269.79696 187.554084,274.620576 C187.554084,279.444192 183.787342,283.195894 179.004179,283.195894 Z M208.812978,300.763385 L195.479911,300.763385 L220.830676,196.549456 L234.402902,196.549456 L208.812978,300.763385 Z M245.437785,226.920372 L245.437785,211.913566 L300.8029,242.463135 L300.8029,254.075544 L245.437785,283.195894 L245.437785,268.189088 L285.795725,248.299115 L285.795725,247.703607 L245.437785,226.920372 Z M75.2525219,427.876588 L103.353606,384.821348 L103.353606,384.404492 L75.4916801,341.94476 L93.72749,341.94476 L113.697197,374.221302 L114.175513,374.221302 L134.384378,341.94476 L151.663555,341.94476 L122.904786,384.761797 L122.904786,385.178652 L151.185239,427.876588 L133.427745,427.876588 L113.099301,396.314655 L112.620985,396.314655 L92.0533829,427.876588 L75.2525219,427.876588 Z M250.947801,341.94476 L250.947801,427.876588 L237.076627,427.876588 L237.076627,366.896552 L236.6581,366.896552 L211.725862,427.161978 L201.202903,427.161978 L176.270664,366.896552 L175.852137,366.896552 L175.852137,427.876588 L161.921174,427.876588 L161.921174,341.94476 L179.798247,341.94476 L206.225224,406.795599 L206.70354,406.795599 L233.130518,341.94476 L250.947801,341.94476 Z M320.815592,414.89451 L320.815592,427.876588 L266.227741,427.876588 L266.227741,341.94476 L281.653443,341.94476 L281.653443,414.89451 L320.815592,414.89451 Z" id="&lt;./&gt;-XML"></path>
        </g>
    </g>
</svg>