<?xml version="1.0" encoding="UTF-8"?>
<svg width="86px" height="86px" viewBox="0 0 86 86" version="1.1" xmlns="http://www.w3.org/2000/svg" xmlns:xlink="http://www.w3.org/1999/xlink">
    <!-- Generator: Sketch 49.3 (51167) - http://www.bohemiancoding.com/sketch -->
    <title>ico-health</title>
    <desc>Created with Sketch.</desc>
    <defs></defs>
    <g id="Page-1" stroke="none" stroke-width="1" fill="none" fill-rule="evenodd">
        <g id="ico-health">
            <circle fill-opacity="0.01" fill="#FFFFFF" cx="43" cy="43" r="43"></circle>
            <g id="ico-doctor" transform="translate(19.000000, 13.000000)" fill="#085190">
                <path d="M24.8369764,27.6286278 C31.4091624,27.6286278 36.7369718,21.4437488 36.7369718,13.8143139 C36.7369718,6.18487901 31.4091624,0 24.8369764,0 C18.2647904,0 12.936981,6.18487901 12.936981,13.8143139 C12.936981,21.4437488 18.2647904,27.6286278 24.8369764,27.6286278 Z M17.6547909,49.3698114 C17.6547909,53.3498006 11.8685561,53.2805766 11.8685561,49.5443626 C11.8685561,46.879159 13.3068005,49.56367 11.8888885,45.1589183 C10.5924983,41.1296403 10.1554296,34.3665625 11.3592993,30.1793721 C11.5090343,29.6590146 11.8192223,28.8259717 11.8685561,28.2414132 C10.0813501,28.3897504 6.55534172,30.0308779 5.13301644,31.0340769 C4.06312017,31.7880067 3.33887542,32.4136914 2.73599486,33.7101115 C1.14092264,37.1328552 0.460652702,42.2731711 0.0182250596,46.1953951 C-0.312295341,49.1266639 3.69377351,59 25.1270663,59 C46.5603591,59 50.0960762,47.8383573 49.9980504,47.0070882 C49.8612029,45.8466076 49.7153944,44.555731 49.6671816,44.1010936 C49.3385526,41.0205458 48.7216442,38.0269597 47.7751611,35.1597349 C46.7123576,31.9449772 45.2230456,31.0471055 42.3325288,29.752569 C41.4478311,29.3559044 39.7132843,28.5001007 38.6946131,28.4159645 C39.1758143,29.4146114 38.7095867,34.1188629 38.3437603,34.8770309 C43.5104073,37.5995288 42.0203072,40.6957736 41.8502397,44.3064111 C41.7418,46.6119951 41.5885975,53.3855899 38.3437603,53.3855899 C37.6106891,53.3855899 35.8895242,53.5742686 35.8895242,52.5131474 C35.8895242,51.1264692 36.6121928,51.6250078 37.7788652,51.426597 C38.6002013,51.287835 38.6424423,50.988649 38.7552952,50.8280681 C39.6242313,49.5845471 39.822512,45.9907055 39.9167663,44.3010741 C40.0234722,42.3764577 40.5776495,40.5431982 39.8981676,38.9158841 C38.9367111,36.6120268 35.3985509,35.1649149 32.8633002,37.9751594 C32.1035919,38.8166787 31.8523522,39.8952236 31.441763,41.0985601 C30.5586415,43.6866912 29.2261572,45.8984068 29.2261572,48.4970549 C29.2261572,50.56734 31.1552174,49.0017153 31.1552174,51.1159522 C31.1552174,52.6650949 27.1226163,51.6433734 27.1226163,48.6709783 C27.1226163,46.56459 28.2892887,43.8009658 29.0242514,41.8349092 C29.3213572,41.040638 29.5424922,40.4973628 29.8183199,39.6575701 C30.3091356,38.1611695 30.8748188,36.925497 31.9518078,36.0197767 C33.2683729,34.913919 34.0772573,34.5276143 36.4143849,34.5276143 C36.9766006,32.1254934 37.1529727,30.1253742 36.5898113,27.7180732 C35.3076065,27.6110193 33.9221634,26.7684012 32.732479,26.6701376 C32.6176406,27.1613146 28.9976992,29.5966626 25.1270663,29.752569 C21.3902793,29.9030843 17.397922,27.8035725 17.3036228,26.6701376 C16.7934204,26.6806546 14.6703351,27.2369584 14.3179061,27.7119514 C13.126488,29.3102259 12.4496856,35.4132424 12.7184206,37.870617 C12.9871556,40.3235963 12.9643013,42.4783316 13.8939195,44.9076084 C14.9478966,47.6588319 13.7079328,46.0712314 15.9110869,46.9146344 C16.6783608,47.2091112 17.6547909,48.3350612 17.6547909,49.3698114 Z" id="Shape"></path>
            </g>
        </g>
    </g>
</svg>