<?xml version="1.0" encoding="UTF-8"?>
<svg width="87px" height="86px" viewBox="0 0 87 86" version="1.1" xmlns="http://www.w3.org/2000/svg" xmlns:xlink="http://www.w3.org/1999/xlink">
    <!-- Generator: Sketch 49.2 (51160) - http://www.bohemiancoding.com/sketch -->
    <title>ico-code</title>
    <desc>Created with Sketch.</desc>
    <defs></defs>
    <g id="Page-1" stroke="none" stroke-width="1" fill="none" fill-rule="evenodd">
        <g id="Homepage-040218A" transform="translate(-703.000000, -171.000000)" fill="#FFFFFF">
            <g id="MASTHEAD" transform="translate(0.000000, -135.000000)">
                <g id="content" transform="translate(398.000000, 306.000000)">
                    <g id="ico-code" transform="translate(305.600000, 0.000000)">
                        <circle id="Oval" fill-opacity="0.0809839221" cx="42.8" cy="42.8" r="42.8"></circle>
                        <path d="M39.8345865,61.7142857 C40.3679225,61.1809497 40.6345865,60.5333371 40.6345865,59.7714286 C40.6345865,59.00952 40.3679225,58.3619074 39.8345865,57.8285714 C39.3012505,57.2952354 38.653638,57.0285714 37.8917294,57.0285714 C37.1298208,57.0285714 36.4822082,57.2952354 35.9488722,57.8285714 C35.4155362,58.3619074 35.1488722,59.00952 35.1488722,59.7714286 C35.1488722,60.5333371 35.4155362,61.1809497 35.9488722,61.7142857 C36.4822082,62.2476217 37.1298208,62.5142857 37.8917294,62.5142857 C38.653638,62.5142857 39.3012505,62.2476217 39.8345865,61.7142857 Z M39.8345865,28.8 C40.3679225,28.266664 40.6345865,27.6190514 40.6345865,26.8571429 C40.6345865,26.0952343 40.3679225,25.4476217 39.8345865,24.9142857 C39.3012505,24.3809497 38.653638,24.1142857 37.8917294,24.1142857 C37.1298208,24.1142857 36.4822082,24.3809497 35.9488722,24.9142857 C35.4155362,25.4476217 35.1488722,26.0952343 35.1488722,26.8571429 C35.1488722,27.6190514 35.4155362,28.266664 35.9488722,28.8 C36.4822082,29.333336 37.1298208,29.6 37.8917294,29.6 C38.653638,29.6 39.3012505,29.333336 39.8345865,28.8 Z M58.1203008,32.4571429 C58.6536368,31.9238069 58.9203008,31.2761943 58.9203008,30.5142857 C58.9203008,29.7523771 58.6536368,29.1047646 58.1203008,28.5714286 C57.5869648,28.0380926 56.9393522,27.7714286 56.1774437,27.7714286 C55.4155351,27.7714286 54.7679225,28.0380926 54.2345865,28.5714286 C53.7012505,29.1047646 53.4345865,29.7523771 53.4345865,30.5142857 C53.4345865,31.2761943 53.7012505,31.9238069 54.2345865,32.4571429 C54.7679225,32.9904789 55.4155351,33.2571429 56.1774437,33.2571429 C56.9393522,33.2571429 57.5869648,32.9904789 58.1203008,32.4571429 Z M61.663158,30.5142857 C61.663158,31.5047669 61.4155414,32.4238053 60.9203008,33.2714286 C60.4250602,34.1190519 59.7584002,34.78095 58.9203008,35.2571429 C58.8822054,40.7238369 56.729846,44.6666546 52.463158,47.0857143 C51.1679134,47.8095274 49.2345994,48.5809483 46.663158,49.4 C44.2250505,50.1619086 42.610781,50.8380923 41.8203008,51.4285714 C41.0298207,52.0190506 40.6345865,52.971422 40.6345865,54.2857143 L40.6345865,55.0285714 C41.472686,55.5047643 42.139346,56.1666624 42.6345865,57.0142857 C43.1298271,57.861909 43.3774437,58.7809474 43.3774437,59.7714286 C43.3774437,61.2952457 42.8441157,62.5904709 41.7774437,63.6571429 C40.7107717,64.7238149 39.4155465,65.2571429 37.8917294,65.2571429 C36.3679122,65.2571429 35.0726871,64.7238149 34.0060151,63.6571429 C32.9393431,62.5904709 32.4060151,61.2952457 32.4060151,59.7714286 C32.4060151,58.7809474 32.6536317,57.861909 33.1488722,57.0142857 C33.6441128,56.1666624 34.3107728,55.5047643 35.1488722,55.0285714 L35.1488722,31.6 C34.3107728,31.1238071 33.6441128,30.461909 33.1488722,29.6142857 C32.6536317,28.7666624 32.4060151,27.847624 32.4060151,26.8571429 C32.4060151,25.3333257 32.9393431,24.0381006 34.0060151,22.9714286 C35.0726871,21.9047566 36.3679122,21.3714286 37.8917294,21.3714286 C39.4155465,21.3714286 40.7107717,21.9047566 41.7774437,22.9714286 C42.8441157,24.0381006 43.3774437,25.3333257 43.3774437,26.8571429 C43.3774437,27.847624 43.1298271,28.7666624 42.6345865,29.6142857 C42.139346,30.461909 41.472686,31.1238071 40.6345865,31.6 L40.6345865,45.8 C41.6631631,45.3047594 43.1298151,44.7619077 45.0345865,44.1714286 C46.0822108,43.8476174 46.9155358,43.5666679 47.5345865,43.3285714 C48.1536372,43.090475 48.8250591,42.7952399 49.5488722,42.4428571 C50.2726854,42.0904744 50.8345845,41.7142877 51.2345865,41.3142857 C51.6345885,40.9142837 52.020299,40.4285743 52.3917294,39.8571429 C52.7631598,39.2857114 53.0298238,38.6238133 53.1917294,37.8714286 C53.353635,37.1190439 53.4345865,36.247624 53.4345865,35.2571429 C52.5964871,34.78095 51.9298271,34.1190519 51.4345865,33.2714286 C50.939346,32.4238053 50.6917294,31.5047669 50.6917294,30.5142857 C50.6917294,28.9904686 51.2250574,27.6952434 52.2917294,26.6285714 C53.3584014,25.5618994 54.6536265,25.0285714 56.1774437,25.0285714 C57.7012608,25.0285714 58.996486,25.5618994 60.063158,26.6285714 C61.12983,27.6952434 61.663158,28.9904686 61.663158,30.5142857 Z" id=""></path>
                    </g>
                </g>
            </g>
        </g>
    </g>
</svg>