<?xml version="1.0" encoding="UTF-8"?>
<svg width="400px" height="560px" viewBox="0 0 400 560" version="1.1" xmlns="http://www.w3.org/2000/svg" xmlns:xlink="http://www.w3.org/1999/xlink">
    <!-- Generator: Sketch 49.3 (51167) - http://www.bohemiancoding.com/sketch -->
    <title>ico-json</title>
    <desc>Created with Sketch.</desc>
    <defs></defs>
    <g id="Page-1" stroke="none" stroke-width="1" fill="none" fill-rule="evenodd">
        <g id="ico-json" fill="#000000">
            <path d="M21.4285714,21.3430127 L21.4285714,538.656987 L378.571429,538.656987 L378.571429,122.769964 L319.220344,122.769964 C296.114554,122.769964 277.38361,104.113807 277.38361,81.1002722 L277.38361,21.3430127 L21.4285714,21.3430127 Z M20.4081633,0 L298.812181,0 L298.812181,81.1002722 C298.812181,92.3263869 307.949227,101.426951 319.220344,101.426951 L400,101.426951 L400,539.673321 C400,550.899436 390.862954,560 379.591837,560 L20.4081633,560 C9.13704592,560 1.38031378e-15,550.899436 0,539.673321 L0,20.3266788 C-1.38031378e-15,9.10056407 9.13704592,2.06220381e-15 20.4081633,0 Z" id="Rectangle" fill-rule="nonzero"></path>
            <polygon id="Rectangle-2" points="298.7499 0.299739111 355.46875 56.366833 399.98854 101.624957 297.959184 104.388612"></polygon>
            <path d="M122.904786,246.988997 C130.737216,247.703607 134.743115,252.586774 134.743115,261.519397 L134.743115,278.848684 C134.743115,288.138612 138.210908,291.473457 147.956604,291.473457 L150.647133,291.473457 L150.647133,302.60946 L145.385653,302.60946 C128.166266,302.60946 120.572994,295.820667 120.572994,280.456556 L120.572994,265.687954 C120.572994,256.338475 118.061833,253.241833 110.289193,253.241833 L110.289193,238.949637 C118.002044,238.949637 120.572994,235.793444 120.572994,226.443966 L120.572994,213.64054 C120.572994,198.633734 128.106476,192.083144 145.385653,192.083144 L150.647133,192.083144 L150.647133,203.159596 L147.956604,203.159596 C138.091329,203.159596 134.743115,206.434891 134.743115,215.903471 L134.743115,231.446234 C134.743115,240.081103 130.976374,244.547414 122.904786,245.321574 L122.904786,246.988997 Z M166.823917,283.195894 C161.980964,283.195894 158.214223,279.444192 158.214223,274.620576 C158.214223,269.79696 161.980964,266.045259 166.823917,266.045259 C171.60708,266.045259 175.373821,269.79696 175.373821,274.620576 C175.373821,279.444192 171.60708,283.195894 166.823917,283.195894 Z M198.512373,283.195894 C193.72921,283.195894 189.90268,279.444192 189.90268,274.620576 C189.90268,269.79696 193.72921,266.045259 198.512373,266.045259 C203.355326,266.045259 207.122067,269.79696 207.122067,274.620576 C207.122067,279.444192 203.355326,283.195894 198.512373,283.195894 Z M230.081251,283.195894 C225.298088,283.195894 221.531347,279.444192 221.531347,274.620576 C221.531347,269.79696 225.298088,266.045259 230.081251,266.045259 C234.924204,266.045259 238.690945,269.79696 238.690945,274.620576 C238.690945,279.444192 234.924204,283.195894 230.081251,283.195894 Z M274.000382,246.988997 L274.000382,245.321574 C265.928794,244.547414 262.162053,240.081103 262.162053,231.446234 L262.162053,215.903471 C262.162053,206.434891 258.754049,203.159596 248.888775,203.159596 L246.258035,203.159596 L246.258035,192.083144 L251.519514,192.083144 C268.798692,192.083144 276.272384,198.633734 276.272384,213.64054 L276.272384,226.443966 C276.272384,235.793444 278.903124,238.949637 286.556185,238.949637 L286.556185,253.241833 C278.843335,253.241833 276.272384,256.338475 276.272384,265.687954 L276.272384,280.456556 C276.272384,295.820667 268.738902,302.60946 251.519514,302.60946 L246.258035,302.60946 L246.258035,291.473457 L248.888775,291.473457 C258.63447,291.473457 262.162053,288.138612 262.162053,278.848684 L262.162053,261.519397 C262.162053,252.586774 266.167952,247.703607 274.000382,246.988997 Z M40.9165216,404.413566 L55.9236963,404.413566 C56.103065,411.500113 61.0058073,416.264179 68.1805522,416.264179 C76.4315088,416.264179 80.9157244,411.26191 80.9157244,401.971983 L80.9157244,341.94476 L96.2816364,341.94476 L96.2816364,402.091084 C96.2816364,419.599025 85.8782563,429.722663 68.3599208,429.722663 C51.9177971,429.722663 40.9165216,419.658575 40.9165216,404.413566 Z M108.452521,403.698956 L123.399906,403.698956 C124.356539,411.619215 132.308548,416.800136 142.831507,416.800136 C153.234887,416.800136 160.469422,411.678766 160.469422,404.532668 C160.469422,398.339383 156.044995,394.766334 145.163299,392.205649 L133.982655,389.585413 C118.078637,385.952813 110.545155,378.330309 110.545155,366.06284 C110.545155,350.817831 123.878223,340.51554 142.652138,340.51554 C161.665212,340.51554 174.221016,350.75828 174.579753,365.884188 L159.871526,365.884188 C159.154052,357.844828 152.397833,353.021211 142.532559,353.021211 C132.786864,353.021211 126.210015,357.785277 126.210015,364.931375 C126.210015,370.648253 130.574651,373.983099 141.1574,376.484233 L151.082464,378.747164 C168.600799,382.737069 176.014702,389.942718 176.014702,402.746143 C176.014702,419.063067 162.861003,429.305808 141.994453,429.305808 C122.144326,429.305808 109.110206,419.539474 108.452521,403.698956 Z M225.673629,340.51554 C250.785236,340.51554 266.569675,357.606624 266.569675,384.940449 C266.569675,412.274274 250.785236,429.305808 225.673629,429.305808 C200.502232,429.305808 184.717793,412.274274 184.717793,384.940449 C184.717793,357.606624 200.502232,340.51554 225.673629,340.51554 Z M225.673629,353.61672 C210.247927,353.61672 200.502232,365.765086 200.502232,384.940449 C200.502232,404.056261 210.247927,416.204628 225.673629,416.204628 C241.039541,416.204628 250.845026,404.056261 250.845026,384.940449 C250.845026,365.765086 241.039541,353.61672 225.673629,353.61672 Z M293.747734,427.876588 L278.860138,427.876588 L278.860138,341.94476 L292.252996,341.94476 L335.062307,402.150635 L335.600413,402.150635 L335.600413,341.94476 L350.428219,341.94476 L350.428219,427.876588 L337.154941,427.876588 L294.28584,367.611162 L293.747734,367.611162 L293.747734,427.876588 Z" id="{…}-JSON"></path>
        </g>
    </g>
</svg>