<?xml version="1.0" encoding="UTF-8"?>
<svg width="86px" height="86px" viewBox="0 0 86 86" version="1.1" xmlns="http://www.w3.org/2000/svg" xmlns:xlink="http://www.w3.org/1999/xlink">
    <!-- Generator: Sketch 49.3 (51167) - http://www.bohemiancoding.com/sketch -->
    <title>ico-ngo</title>
    <desc>Created with Sketch.</desc>
    <defs></defs>
    <g id="Page-1" stroke="none" stroke-width="1" fill="none" fill-rule="evenodd">
        <g id="ico-ngo">
            <circle id="ico-ngo-circle" fill-opacity="0.01" fill="#FFFFFF" cx="43" cy="43" r="43"></circle>
            <path d="M62.9,30.3999847 L75,30.3999847 L75,55.9999237 L68.6,55.9999237 C67.7333328,55.9999237 66.9833328,55.6832572 66.35,55.0499259 C65.7166672,54.4165946 65.4,53.6665964 65.4,52.7999313 L59.6,52.7999313 C59.4,53.6665964 59.0333328,54.4332602 58.5,55.0999258 L55.9,58.2999182 C55.1,59.2999158 54.1166672,59.9499142 52.95,60.2499135 C51.7833328,60.5499128 50.6333328,60.4665802 49.5,59.9999141 C48.2333328,61.5999103 46.6,62.3999084 44.6,62.3999084 C43.1333328,62.3999084 41.7666672,61.8665768 40.5,60.7999122 C38.9,61.9332423 37.1333328,62.4665754 35.2,62.3999084 C33.2666672,62.3332414 31.5333328,61.6665773 30,60.3999132 L21.5,52.7999313 L20.6,52.7999313 C20.6,53.6665964 20.2833328,54.4165946 19.65,55.0499259 C19.0166672,55.6832572 18.2666672,55.9999237 17.4,55.9999237 L11,55.9999237 L11,30.3999847 L22.8,30.3999847 L27.6,25.5999961 C28.6666672,24.5333315 29.9666672,24 31.5,24 L54.2,24 C55.7333328,24 57.0666672,24.5333315 58.2,25.5999961 L62.9,30.3999847 Z M15.7999886,52.7999313 C16.2666546,52.7999313 16.6499865,52.6332645 16.9499858,52.2999325 C17.2499851,51.9666005 17.3999847,51.583267 17.3999847,51.1499352 C17.3999847,50.7166034 17.2499851,50.3499371 16.9499858,50.0499378 C16.6499865,49.7499386 16.2666546,49.5999389 15.7999886,49.5999389 C15.3333225,49.5999389 14.9499906,49.7499386 14.6499913,50.0499378 C14.349992,50.3499371 14.1999924,50.7166034 14.1999924,51.1499352 C14.1999924,51.583267 14.349992,51.9666005 14.6499913,52.2999325 C14.9499906,52.6332645 15.3333225,52.7999313 15.7999886,52.7999313 Z M54.7998956,52.099933 C54.9332281,51.8999334 54.983228,51.6832668 54.9498952,51.4499345 C54.9165625,51.2166022 54.8332283,51.0332683 54.6998958,50.8999358 L43.8999216,42.1999566 L42.9999237,42.8999549 C41.7999266,44.033285 40.4332626,44.6666179 38.8999335,44.7999504 C37.6999363,44.8666174 36.4999392,44.6332836 35.2999421,44.099952 C34.2999444,43.633286 33.4999464,43.0999544 32.8999478,42.4999558 C31.5666181,41.0332922 30.9332853,39.3166306 30.9999523,37.3499681 C31.0666193,35.3833056 31.8332832,33.6999768 33.2999468,32.2999802 L37.1999375,28.7999885 L31.4999511,28.7999885 L30.9999523,28.999988 L24.7999671,35.1999732 L20.5999771,35.1999732 L20.5999771,47.9999427 L23.3999704,47.9999427 L33.0999473,56.7999218 C33.8999454,57.4665873 34.8499431,57.7332524 35.9499405,57.5999198 C37.0499379,57.4665873 37.9332686,56.9665885 38.5999342,56.0999234 L40.1999304,54.199928 L43.8999216,57.3999203 C44.0999211,57.5332528 44.3832532,57.5999198 44.7499195,57.5999198 C45.1165858,57.5999198 45.4332507,57.4332531 45.6999173,57.099921 L48.6999101,53.4999296 L51.0999044,55.3999251 C51.2332369,55.5332576 51.4165708,55.5832575 51.6499031,55.5499247 C51.8832354,55.516592 52.0665693,55.4332578 52.1999018,55.2999253 L54.7998956,52.099933 Z M65.3998703,47.9999427 L65.3998703,35.1999732 L60.899881,35.1999732 L54.7998956,28.999988 C54.599896,28.8666555 54.3998965,28.7999885 54.199897,28.7999885 L45.799917,28.7999885 C44.7999194,28.7999885 43.8999216,29.1666548 43.0999235,29.8999859 L36.599939,35.8999716 C36.0666074,36.2999706 35.7999409,36.8333022 35.7999409,37.4999678 C35.7999409,38.1666334 36.0166075,38.7499648 36.4499393,39.2499636 C36.8832711,39.7499624 37.4499369,39.9832947 38.1499353,39.9499619 C38.8499336,39.9166292 39.433265,39.6999625 39.8999311,39.2999635 L45.399918,34.1999756 C45.73325,33.9333091 46.1332491,33.7999766 46.5999151,33.7999766 C47.0665812,33.7999766 47.433246,33.9666434 47.6999125,34.2999754 L48.7999099,35.4999725 C49.0665764,35.8333046 49.1999089,36.216638 49.1999089,36.6499698 C49.1999089,37.0833016 49.0332421,37.4333007 48.6999101,37.6999673 L47.3999132,38.8999644 L57.6998887,47.1999446 L58.4998868,47.9999427 L65.3998703,47.9999427 Z M70.1998589,52.7999313 C70.6665249,52.7999313 71.0498568,52.6332645 71.3498561,52.2999325 C71.6498554,51.9666005 71.799855,51.583267 71.799855,51.1499352 C71.799855,50.7166034 71.6498554,50.3499371 71.3498561,50.0499378 C71.0498568,49.7499386 70.6665249,49.5999389 70.1998589,49.5999389 C69.7331928,49.5999389 69.3498609,49.7499386 69.0498616,50.0499378 C68.7498623,50.3499371 68.5998627,50.7166034 68.5998627,51.1499352 C68.5998627,51.583267 68.7498623,51.9666005 69.0498616,52.2999325 C69.3498609,52.6332645 69.7331928,52.7999313 70.1998589,52.7999313 Z" id="ico-meet" fill="#085190" fill-rule="nonzero"></path>
        </g>
    </g>
</svg>