<?xml version="1.0" encoding="UTF-8"?>
<svg width="86px" height="86px" viewBox="0 0 86 86" version="1.1" xmlns="http://www.w3.org/2000/svg" xmlns:xlink="http://www.w3.org/1999/xlink">
    <!-- Generator: Sketch 49.2 (51160) - http://www.bohemiancoding.com/sketch -->
    <title>ico-data</title>
    <desc>Created with Sketch.</desc>
    <defs></defs>
    <g id="Page-1" stroke="none" stroke-width="1" fill="none" fill-rule="evenodd">
        <g id="Homepage-040218A" transform="translate(-416.000000, -171.000000)" fill="#FFFFFF">
            <g id="MASTHEAD" transform="translate(0.000000, -135.000000)">
                <g id="content" transform="translate(398.000000, 306.000000)">
                    <g id="ico-data" transform="translate(18.400000, 0.000000)">
                        <circle id="Oval" fill-opacity="0.0966089221" cx="42.8" cy="42.8" r="42.8"></circle>
                        <path d="M63.7203009,29.7142857 C63.9869689,29.9809537 64.2536329,30.3238074 64.5203009,30.7428571 L51.0345866,30.7428571 L51.0345866,17.2571429 C51.4536363,17.5238109 51.79649,17.7904749 52.063158,18.0571429 L63.7203009,29.7142857 Z M50.1203009,34.4 L65.663158,34.4 L65.663158,64.5714286 C65.663158,65.3333371 65.396494,65.9809497 64.863158,66.5142857 C64.329822,67.0476217 63.6822094,67.3142857 62.9203009,67.3142857 L24.5203009,67.3142857 C23.7583923,67.3142857 23.1107797,67.0476217 22.5774437,66.5142857 C22.0441077,65.9809497 21.7774437,65.3333371 21.7774437,64.5714286 L21.7774437,18.8571429 C21.7774437,18.0952343 22.0441077,17.4476217 22.5774437,16.9142857 C23.1107797,16.3809497 23.7583923,16.1142857 24.5203009,16.1142857 L47.3774437,16.1142857 L47.3774437,31.6571429 C47.3774437,32.4190514 47.6441077,33.066664 48.1774437,33.6 C48.7107797,34.133336 49.3583923,34.4 50.1203009,34.4 Z M54.6917294,55.4285714 L54.6917294,53.6 C54.6917294,53.333332 54.606016,53.1142866 54.4345866,52.9428571 C54.2631572,52.7714277 54.0441117,52.6857143 53.7774437,52.6857143 L33.663158,52.6857143 C33.39649,52.6857143 33.1774446,52.7714277 33.0060152,52.9428571 C32.8345857,53.1142866 32.7488723,53.333332 32.7488723,53.6 L32.7488723,55.4285714 C32.7488723,55.6952394 32.8345857,55.9142849 33.0060152,56.0857143 C33.1774446,56.2571437 33.39649,56.3428571 33.663158,56.3428571 L53.7774437,56.3428571 C54.0441117,56.3428571 54.2631572,56.2571437 54.4345866,56.0857143 C54.606016,55.9142849 54.6917294,55.6952394 54.6917294,55.4285714 Z M54.6917294,48.1142857 L54.6917294,46.2857143 C54.6917294,46.0190463 54.606016,45.8000009 54.4345866,45.6285714 C54.2631572,45.457142 54.0441117,45.3714286 53.7774437,45.3714286 L33.663158,45.3714286 C33.39649,45.3714286 33.1774446,45.457142 33.0060152,45.6285714 C32.8345857,45.8000009 32.7488723,46.0190463 32.7488723,46.2857143 L32.7488723,48.1142857 C32.7488723,48.3809537 32.8345857,48.5999991 33.0060152,48.7714286 C33.1774446,48.942858 33.39649,49.0285714 33.663158,49.0285714 L53.7774437,49.0285714 C54.0441117,49.0285714 54.2631572,48.942858 54.4345866,48.7714286 C54.606016,48.5999991 54.6917294,48.3809537 54.6917294,48.1142857 Z M54.6917294,40.8 L54.6917294,38.9714286 C54.6917294,38.7047606 54.606016,38.4857151 54.4345866,38.3142857 C54.2631572,38.1428563 54.0441117,38.0571429 53.7774437,38.0571429 L33.663158,38.0571429 C33.39649,38.0571429 33.1774446,38.1428563 33.0060152,38.3142857 C32.8345857,38.4857151 32.7488723,38.7047606 32.7488723,38.9714286 L32.7488723,40.8 C32.7488723,41.066668 32.8345857,41.2857134 33.0060152,41.4571429 C33.1774446,41.6285723 33.39649,41.7142857 33.663158,41.7142857 L53.7774437,41.7142857 C54.0441117,41.7142857 54.2631572,41.6285723 54.4345866,41.4571429 C54.606016,41.2857134 54.6917294,41.066668 54.6917294,40.8 Z" id=""></path>
                    </g>
                </g>
            </g>
        </g>
    </g>
</svg>