<?xml version="1.0" encoding="UTF-8"?>
<svg width="86px" height="86px" viewBox="0 0 86 86" version="1.1" xmlns="http://www.w3.org/2000/svg" xmlns:xlink="http://www.w3.org/1999/xlink">
    <!-- Generator: Sketch 49.3 (51167) - http://www.bohemiancoding.com/sketch -->
    <title>ico-health</title>
    <desc>Created with Sketch.</desc>
    <defs></defs>
    <g id="Page-1" stroke="none" stroke-width="1" fill="none" fill-rule="evenodd">
        <g id="ico-health">
            <circle fill-opacity="0.01" fill="#FFFFFF" cx="43" cy="43" r="43"></circle>
            <g id="ico-doctor" transform="translate(16.000000, 10.000000)" fill="#085190">
                <path d="M27.320674,30.9066006 C34.5500786,30.9066006 40.4106689,23.9879224 40.4106689,15.4533003 C40.4106689,6.91867822 34.5500786,0 27.320674,0 C20.0912695,0 14.2306791,6.91867822 14.2306791,15.4533003 C14.2306791,23.9879224 20.0912695,30.9066006 27.320674,30.9066006 Z M19.42027,55.2272466 C19.42027,59.679438 13.0554117,59.6020009 13.0554117,55.4225074 C13.0554117,52.4410931 14.6374806,55.4441055 13.0777774,50.5167561 C11.6517481,46.0094281 11.1709725,38.4439513 12.4952292,33.7599755 C12.6599378,33.1778807 13.0011445,32.2460022 13.0554117,31.5920893 C11.0894851,31.7580259 7.21087589,33.5938634 5.64631809,34.716086 C4.46943219,35.5594651 3.67276296,36.2593836 3.00959435,37.7096163 C1.2550149,41.5384482 0.506717972,47.288632 0.0200475656,51.6762047 C-0.343524875,54.9552512 4.06315086,66 27.639773,66 C51.2163951,66 55.1056838,53.5140946 54.9978554,52.5842003 C54.8473232,51.2860356 54.6869338,49.8420041 54.6338997,49.3334267 C54.2724078,45.8873902 53.5938086,42.5386328 52.5526772,39.3312289 C51.3835933,35.7350593 49.7453501,34.7306604 46.5657817,33.2825349 C45.5926143,32.8388083 43.6846127,31.8814686 42.5640745,31.7873501 C43.0933957,32.9044805 42.5805453,38.1668636 42.1781363,39.0149837 C47.861448,42.0604898 46.2223379,45.5240857 46.0352637,49.5631039 C45.91598,52.1422318 45.7474572,59.7194735 42.1781363,59.7194735 C41.371758,59.7194735 39.4784766,59.9305377 39.4784766,58.7435208 C39.4784766,57.1923215 40.273412,57.7500087 41.5567517,57.5280576 C42.4602214,57.3728323 42.5066865,57.0381498 42.6308248,56.8585169 C43.5866545,55.4674595 43.8047633,51.4472299 43.9084429,49.5571337 C44.0258195,47.404173 44.6354145,45.3534082 43.8879844,43.5330229 C42.8303822,40.9558266 38.9384059,39.3370235 36.1496302,42.4806868 C35.3139511,43.4220474 35.0375875,44.6285552 34.5859393,45.9746605 C33.6145056,48.869858 32.148773,51.3439805 32.148773,54.2509427 C32.148773,56.5668549 34.2707392,54.8154782 34.2707392,57.1805567 C34.2707392,58.913496 29.834878,57.7705532 29.834878,54.4455011 C29.834878,52.0892023 31.1182176,48.9976905 31.9266765,46.798373 C32.2534929,45.9098662 32.4967414,45.3021346 32.8001519,44.3627056 C33.3400492,42.6887659 33.9623007,41.3064882 35.1469886,40.2933096 C36.5952102,39.0562483 37.4849831,38.624111 40.0558234,38.624111 C40.6742606,35.9369926 40.86827,33.6995711 40.2487925,31.0066582 C38.8383672,30.8869029 37.3143797,29.9443132 36.005727,29.8343912 C35.8794046,30.3838434 31.8974691,33.108131 27.639773,33.2825349 C23.5293073,33.4509078 19.1377142,31.1023014 19.0339851,29.8343912 C18.4727624,29.846156 16.1373686,30.4684619 15.7496967,30.99981 C14.4391368,32.7877103 13.6946542,39.6148135 13.9902627,42.363741 C14.2858712,45.1077518 14.2607315,47.5181337 15.2833115,50.2356298 C16.4426862,53.3132696 15.0787261,51.5373097 17.5021956,52.4807774 C18.3461969,52.8101922 19.42027,54.0697295 19.42027,55.2272466 Z" id="Shape"></path>
            </g>
        </g>
    </g>
</svg>