<?xml version="1.0" encoding="UTF-8"?>
<svg width="86px" height="86px" viewBox="0 0 86 86" version="1.1" xmlns="http://www.w3.org/2000/svg" xmlns:xlink="http://www.w3.org/1999/xlink">
    <!-- Generator: Sketch 49.3 (51167) - http://www.bohemiancoding.com/sketch -->
    <title>ico-gov</title>
    <desc>Created with Sketch.</desc>
    <defs></defs>
    <g id="Page-1" stroke="none" stroke-width="1" fill="none" fill-rule="evenodd">
        <g id="ico-gov">
            <circle id="ico-gov-circle" fill-opacity="0.01" fill="#FFFFFF" cx="43" cy="43" r="43"></circle>
            <g id="ico-gov-jared" transform="translate(15.000000, 10.000000)">
                <path d="M48.6956522,54.0833333 L48.6956522,31.9583333 L7.30434783,31.9583333 L7.30434783,54.0833333 L2.43478261,54.0833333 L2.43478261,29.4810267 C2.43478261,28.1338053 3.52692128,27.0416667 4.87414261,27.0416667 L51.1258574,27.0416667 C52.4730787,27.0416667 53.5652174,28.1338053 53.5652174,29.4810267 L53.5652174,54.0833333 L48.6956522,54.0833333 Z" id="Combined-Shape" fill="#085190"></path>
                <rect id="Rectangle-2" fill="#085190" x="0" y="54.0833333" width="56" height="4.91666667"></rect>
                <rect id="Rectangle-4" fill="#085190" x="12.173913" y="36.875" width="2.43478261" height="17.2083333"></rect>
                <rect id="Rectangle-4" fill="#085190" x="19.4782609" y="36.875" width="2.43478261" height="17.2083333"></rect>
                <rect id="Rectangle-4" fill="#085190" x="34.0869565" y="36.875" width="2.43478261" height="17.2083333"></rect>
                <rect id="Rectangle-4" fill="#085190" x="26.7826087" y="36.875" width="2.43478261" height="17.2083333"></rect>
                <rect id="Rectangle-4" fill="#085190" x="41.3913043" y="36.875" width="2.43478261" height="17.2083333"></rect>
                <path d="M42.6086957,29.5 C42.6086957,21.3537999 36.0681598,14.75 28,14.75 C19.9318402,14.75 13.3913043,21.3537999 13.3913043,29.5 C13.3913043,29.5 42.6086957,29.5 42.6086957,29.5 Z" id="Oval" stroke="#085190" stroke-width="4.87872"></path>
                <rect id="Rectangle-5" fill="#085190" x="26.7826087" y="2.45833333" width="2.43478261" height="9.83333333"></rect>
                <rect id="Rectangle-6" stroke="#085190" stroke-width="2.43936" x="28.0022887" y="1.21968" width="7.29977043" height="4.93564"></rect>
            </g>
        </g>
    </g>
</svg>