<?xml version="1.0" encoding="UTF-8"?>
<svg width="86px" height="86px" viewBox="0 0 86 86" version="1.1" xmlns="http://www.w3.org/2000/svg" xmlns:xlink="http://www.w3.org/1999/xlink">
    <!-- Generator: Sketch 49.3 (51167) - http://www.bohemiancoding.com/sketch -->
    <title>ico-media</title>
    <desc>Created with Sketch.</desc>
    <defs></defs>
    <g id="Page-1" stroke="none" stroke-width="1" fill="none" fill-rule="evenodd">
        <g id="ico-media">
            <circle id="ico-media-circle" fill-opacity="0.01" fill="#FFFFFF" cx="43" cy="43" r="43"></circle>
            <path d="M43.0000001,32.9999999 L31,32.9999999 L31,45 L43.0000001,45 L43.0000001,32.9999999 Z M47,53 L47,57 L27,57 L27,53 L47,53 Z M47,29 L47,49 L27,49 L27,29 L47,29 Z M67,53 L67,57 L51,57 L51,53 L67,53 Z M67,45 L67,49 L51,49 L51,45 L67,45 Z M67,37 L67,41 L51,41 L51,37 L67,37 Z M67,29 L67,32.9999999 L51,32.9999999 L51,29 L67,29 Z M19,59 L19,29 L15,29 L15,59 C15,59.5416694 15.1979147,60.0104147 15.59375,60.40625 C15.9895853,60.8020853 16.4583306,61 17,61 C17.5416694,61 18.0104147,60.8020853 18.40625,60.40625 C18.8020853,60.0104147 19,59.5416694 19,59 Z M71.0000001,59 L71.0000001,24.9999999 L23,24.9999999 L23,59 C23,59.6875034 22.8854178,60.3541634 22.65625,61 L69,61 C69.5416694,61 70.0104147,60.8020853 70.40625,60.40625 C70.8020853,60.0104147 71.0000001,59.5416694 71.0000001,59 Z M75,21 L75,59 C75,60.666675 74.4166725,62.0833275 73.25,63.25 C72.0833275,64.4166725 70.666675,65 69,65 L17,65 C15.333325,65 13.9166725,64.4166725 12.75,63.25 C11.5833275,62.0833275 11,60.666675 11,59 L11,24.9999999 L19,24.9999999 L19,21 L75,21 Z" id="ico-press" fill="#085190" fill-rule="nonzero"></path>
        </g>
    </g>
</svg>