<?xml version="1.0" encoding="UTF-8"?>
<svg width="87px" height="86px" viewBox="0 0 87 86" version="1.1" xmlns="http://www.w3.org/2000/svg" xmlns:xlink="http://www.w3.org/1999/xlink">
    <!-- Generator: Sketch 49.2 (51160) - http://www.bohemiancoding.com/sketch -->
    <title>ico-gov</title>
    <desc>Created with Sketch.</desc>
    <defs></defs>
    <g id="Page-1" stroke="none" stroke-width="1" fill="none" fill-rule="evenodd">
        <g id="Homepage-040218A" transform="translate(-584.000000, -757.000000)">
            <g id="SECTION-ROLES" transform="translate(199.000000, 704.000000)">
                <g id="roles" transform="translate(0.000000, 53.200000)">
                    <g id="gov" transform="translate(376.000000, 0.000000)">
                        <g id="ico-gov" transform="translate(9.800000, 0.000000)">
                            <circle id="Oval" fill="#A64039" cx="42.8" cy="42.8" r="42.8"></circle>
                            <path d="M25.6060152,21.0285714 C25.6060152,22.4000069 24.9964974,23.4476154 23.7774437,24.1714286 L23.7774437,60.3428571 C23.7774437,60.5904774 23.6869684,60.804761 23.5060152,60.9857143 C23.3250619,61.1666676 23.1107783,61.2571429 22.863158,61.2571429 L21.0345866,61.2571429 C20.7869663,61.2571429 20.5726827,61.1666676 20.3917294,60.9857143 C20.2107762,60.804761 20.1203009,60.5904774 20.1203009,60.3428571 L20.1203009,24.1714286 C18.9012472,23.4476154 18.2917294,22.4000069 18.2917294,21.0285714 C18.2917294,20.0190426 18.6488687,19.1571464 19.363158,18.4428571 C20.0774473,17.7285679 20.9393434,17.3714286 21.9488723,17.3714286 C22.9584012,17.3714286 23.8202973,17.7285679 24.5345866,18.4428571 C25.2488759,19.1571464 25.6060152,20.0190426 25.6060152,21.0285714 Z M67.663158,22.8571429 L67.663158,44.6571429 C67.663158,45.1333357 67.5441116,45.4999987 67.3060152,45.7571429 C67.0679187,46.014287 66.691732,46.2761891 66.1774437,46.5428571 C62.0821852,48.752392 58.5679346,49.8571429 55.6345866,49.8571429 C54.472676,49.8571429 53.2964973,49.6476211 52.1060152,49.2285714 C50.915533,48.8095217 49.88221,48.3523834 49.0060152,47.8571429 C48.1298203,47.3619023 47.0298313,46.904764 45.7060152,46.4857143 C44.382199,46.0666646 43.0250697,45.8571429 41.6345866,45.8571429 C37.9774254,45.8571429 33.558422,47.2476051 28.3774437,50.0285714 C28.0536326,50.2000009 27.73935,50.2857143 27.4345866,50.2857143 C26.939346,50.2857143 26.5107789,50.1047637 26.1488723,49.7428571 C25.7869657,49.3809506 25.6060152,48.9523834 25.6060152,48.4571429 L25.6060152,27.2571429 C25.6060152,26.647616 25.9012503,26.1238117 26.4917294,25.6857143 C26.8917314,25.4190463 27.6441049,25.0095266 28.7488723,24.4571429 C33.2441329,22.1714171 37.2536166,21.0285714 40.7774437,21.0285714 C42.8155492,21.0285714 44.720292,21.3047591 46.4917294,21.8571429 C48.2631669,22.4095266 50.3488603,23.2476134 52.7488723,24.3714286 C53.4726854,24.7333351 54.3107723,24.9142857 55.263158,24.9142857 C56.2917346,24.9142857 57.410771,24.7142877 58.6203009,24.3142857 C59.8298307,23.9142837 60.8774393,23.4666691 61.763158,22.9714286 C62.6488767,22.476188 63.4869636,22.0285734 64.2774437,21.6285714 C65.0679239,21.2285694 65.5869663,21.0285714 65.8345866,21.0285714 C66.3298272,21.0285714 66.7583943,21.209522 67.1203009,21.5714286 C67.4822074,21.9333351 67.663158,22.3619023 67.663158,22.8571429 Z" id="" fill="#FFFFFF"></path>
                        </g>
                    </g>
                </g>
            </g>
        </g>
    </g>
</svg>