<?xml version="1.0" encoding="UTF-8"?>
<svg width="400px" height="560px" viewBox="0 0 400 560" version="1.1" xmlns="http://www.w3.org/2000/svg" xmlns:xlink="http://www.w3.org/1999/xlink">
    <!-- Generator: Sketch 49.3 (51167) - http://www.bohemiancoding.com/sketch -->
    <title>ico-csv</title>
    <desc>Created with Sketch.</desc>
    <defs></defs>
    <g id="Page-1" stroke="none" stroke-width="1" fill="none" fill-rule="evenodd">
        <g id="ico-csv" fill="#000000">
            <path d="M21.4285714,21.3430127 L21.4285714,538.656987 L378.571429,538.656987 L378.571429,122.769964 L319.220344,122.769964 C296.114554,122.769964 277.38361,104.113807 277.38361,81.1002722 L277.38361,21.3430127 L21.4285714,21.3430127 Z M20.4081633,0 L298.812181,0 L298.812181,81.1002722 C298.812181,92.3263869 307.949227,101.426951 319.220344,101.426951 L400,101.426951 L400,539.673321 C400,550.899436 390.862954,560 379.591837,560 L20.4081633,560 C9.13704592,560 1.38031378e-15,550.899436 0,539.673321 L0,20.3266788 C-1.38031378e-15,9.10056407 9.13704592,2.06220381e-15 20.4081633,0 Z" id="Rectangle" fill-rule="nonzero"></path>
            <polygon id="Rectangle-2" points="298.7499 0.299739111 355.46875 56.366833 399.98854 101.624957 297.959184 104.388612"></polygon>
            <path d="M134.057801,283.195894 C129.214848,283.195894 125.448107,279.444192 125.448107,274.620576 C125.448107,269.79696 129.214848,266.045259 134.057801,266.045259 C138.840964,266.045259 142.607706,269.79696 142.607706,274.620576 C142.607706,279.444192 138.840964,283.195894 134.057801,283.195894 Z M167.274604,298.381352 L155.914591,298.381352 L161.235861,267.950885 L175.704929,267.950885 L167.274604,298.381352 Z M200.013091,283.195894 C195.170138,283.195894 191.403397,279.444192 191.403397,274.620576 C191.403397,269.79696 195.170138,266.045259 200.013091,266.045259 C204.796254,266.045259 208.562995,269.79696 208.562995,274.620576 C208.562995,279.444192 204.796254,283.195894 200.013091,283.195894 Z M233.229894,298.381352 L221.869881,298.381352 L227.19115,267.950885 L241.660219,267.950885 L233.229894,298.381352 Z M265.96838,283.195894 C261.125428,283.195894 257.358687,279.444192 257.358687,274.620576 C257.358687,269.79696 261.125428,266.045259 265.96838,266.045259 C270.751544,266.045259 274.518285,269.79696 274.518285,274.620576 C274.518285,279.444192 270.751544,283.195894 265.96838,283.195894 Z M123.717924,429.305808 C99.0846329,429.305808 83.5991418,412.452926 83.5991418,384.880898 C83.5991418,357.487523 99.204212,340.51554 123.717924,340.51554 C143.74742,340.51554 158.993753,352.961661 160.907018,371.422414 L145.720475,371.422414 C143.68763,360.643716 134.898568,353.557169 123.717924,353.557169 C108.890118,353.557169 99.3835806,365.705535 99.3835806,384.880898 C99.3835806,404.175363 108.830328,416.264179 123.777713,416.264179 C135.197516,416.264179 143.388683,410.130445 145.780264,399.768603 L160.907018,399.768603 C158.216489,418.169805 144.106157,429.305808 123.717924,429.305808 Z M169.072003,403.698956 L184.019389,403.698956 C184.976021,411.619215 192.92803,416.800136 203.450989,416.800136 C213.85437,416.800136 221.088904,411.678766 221.088904,404.532668 C221.088904,398.339383 216.664478,394.766334 205.782782,392.205649 L194.602137,389.585413 C178.69812,385.952813 171.164637,378.330309 171.164637,366.06284 C171.164637,350.817831 184.497705,340.51554 203.271621,340.51554 C222.284695,340.51554 234.840498,350.75828 235.199236,365.884188 L220.491009,365.884188 C219.773534,357.844828 213.017316,353.021211 203.152042,353.021211 C193.406347,353.021211 186.829497,357.785277 186.829497,364.931375 C186.829497,370.648253 191.194134,373.983099 201.776882,376.484233 L211.701946,378.747164 C229.220282,382.737069 236.634185,389.942718 236.634185,402.746143 C236.634185,419.063067 223.480486,429.305808 202.613936,429.305808 C182.763808,429.305808 169.729688,419.539474 169.072003,403.698956 Z M289.402167,427.876588 L271.704463,427.876588 L241.690114,341.94476 L258.670343,341.94476 L280.553315,411.381012 L280.912053,411.381012 L302.795025,341.94476 L319.416517,341.94476 L289.402167,427.876588 Z" id=".,.,.-CSV"></path>
        </g>
    </g>
</svg>