<?xml version="1.0" encoding="UTF-8"?>
<svg width="87px" height="86px" viewBox="0 0 87 86" version="1.1" xmlns="http://www.w3.org/2000/svg" xmlns:xlink="http://www.w3.org/1999/xlink">
    <!-- Generator: Sketch 49.2 (51160) - http://www.bohemiancoding.com/sketch -->
    <title>ico-ngo</title>
    <desc>Created with Sketch.</desc>
    <defs></defs>
    <g id="Page-1" stroke="none" stroke-width="1" fill="none" fill-rule="evenodd">
        <g id="Homepage-040218A" transform="translate(-1155.000000, -757.000000)">
            <g id="SECTION-ROLES" transform="translate(199.000000, 704.000000)">
                <g id="roles" transform="translate(0.000000, 53.200000)">
                    <g id="ngo" transform="translate(954.000000, 0.000000)">
                        <g id="ico-ngo" transform="translate(2.600000, 0.000000)">
                            <circle id="Oval" fill="#7BBFB2" cx="42.8" cy="42.8" r="42.8"></circle>
                            <path d="M62.563158,27.8000763 L74.663158,27.8000763 L74.663158,53.4000153 L68.263158,53.4000153 C67.3964908,53.4000153 66.6464908,53.0833488 66.013158,52.4500175 C65.3798252,51.8166862 65.063158,51.066688 65.063158,50.2000229 L59.263158,50.2000229 C59.063158,51.066688 58.6964908,51.8333518 58.163158,52.5000174 L55.563158,55.7000098 C54.763158,56.7000074 53.7798252,57.3500058 52.613158,57.6500051 C51.4464908,57.9500044 50.2964908,57.8666718 49.163158,57.4000057 C47.8964908,59.0000019 46.263158,59.8 44.263158,59.8 C42.7964908,59.8 41.4298252,59.2666684 40.163158,58.2000038 C38.563158,59.3333339 36.7964908,59.866667 34.863158,59.8 C32.9298252,59.733333 31.1964908,59.0666689 29.663158,57.8000048 L21.163158,50.2000229 L20.263158,50.2000229 C20.263158,51.066688 19.9464908,51.8166862 19.313158,52.4500175 C18.6798252,53.0833488 17.9298252,53.4000153 17.063158,53.4000153 L10.663158,53.4000153 L10.663158,27.8000763 L22.463158,27.8000763 L27.263158,23.0000877 C28.3298252,21.9334231 29.6298252,21.4000916 31.163158,21.4000916 L53.863158,21.4000916 C55.3964908,21.4000916 56.7298252,21.9334231 57.863158,23.0000877 L62.563158,27.8000763 Z M15.4631466,50.2000229 C15.9298126,50.2000229 16.3131445,50.0333561 16.6131438,49.7000241 C16.9131431,49.3666921 17.0631427,48.9833586 17.0631427,48.5500268 C17.0631427,48.116695 16.9131431,47.7500287 16.6131438,47.4500294 C16.3131445,47.1500302 15.9298126,47.0000305 15.4631466,47.0000305 C14.9964805,47.0000305 14.6131486,47.1500302 14.3131493,47.4500294 C14.01315,47.7500287 13.8631504,48.116695 13.8631504,48.5500268 C13.8631504,48.9833586 14.01315,49.3666921 14.3131493,49.7000241 C14.6131486,50.0333561 14.9964805,50.2000229 15.4631466,50.2000229 Z M54.4630536,49.5000246 C54.5963861,49.300025 54.646386,49.0833584 54.6130532,48.8500261 C54.5797205,48.6166938 54.4963863,48.4333599 54.3630538,48.3000274 L43.5630796,39.6000482 L42.6630817,40.3000465 C41.4630846,41.4333766 40.0964206,42.0667095 38.5630915,42.200042 C37.3630943,42.266709 36.1630972,42.0333752 34.9631001,41.5000436 C33.9631024,41.0333776 33.1631044,40.500046 32.5631058,39.9000474 C31.2297761,38.4333838 30.5964433,36.7167222 30.6631103,34.7500597 C30.7297773,32.7833972 31.4964412,31.1000684 32.9631048,29.7000718 L36.8630955,26.2000801 L31.1631091,26.2000801 L30.6631103,26.4000796 L24.4631251,32.6000648 L20.2631351,32.6000648 L20.2631351,45.4000343 L23.0631284,45.4000343 L32.7631053,54.2000134 C33.5631034,54.8666789 34.5131011,55.133344 35.6130985,55.0000114 C36.7130959,54.8666789 37.5964266,54.3666801 38.2630922,53.500015 L39.8630884,51.6000196 L43.5630796,54.8000119 C43.7630791,54.9333444 44.0464112,55.0000114 44.4130775,55.0000114 C44.7797438,55.0000114 45.0964087,54.8333447 45.3630753,54.5000126 L48.3630681,50.9000212 L50.7630624,52.8000167 C50.8963949,52.9333492 51.0797288,52.9833491 51.3130611,52.9500163 C51.5463934,52.9166836 51.7297273,52.8333494 51.8630598,52.7000169 L54.4630536,49.5000246 Z M65.0630283,45.4000343 L65.0630283,32.6000648 L60.563039,32.6000648 L54.4630536,26.4000796 C54.263054,26.2667471 54.0630545,26.2000801 53.863055,26.2000801 L45.463075,26.2000801 C44.4630774,26.2000801 43.5630796,26.5667464 42.7630815,27.3000775 L36.263097,33.3000632 C35.7297654,33.7000622 35.4630989,34.2333938 35.4630989,34.9000594 C35.4630989,35.566725 35.6797655,36.1500564 36.1130973,36.6500552 C36.5464291,37.150054 37.1130949,37.3833863 37.8130933,37.3500535 C38.5130916,37.3167208 39.096423,37.1000541 39.5630891,36.7000551 L45.063076,31.6000672 C45.396408,31.3334007 45.7964071,31.2000682 46.2630731,31.2000682 C46.7297392,31.2000682 47.096404,31.366735 47.3630705,31.700067 L48.4630679,32.9000641 C48.7297344,33.2333962 48.8630669,33.6167296 48.8630669,34.0500614 C48.8630669,34.4833932 48.6964001,34.8333923 48.3630681,35.1000589 L47.0630712,36.300056 L57.3630467,44.6000362 L58.1630448,45.4000343 L65.0630283,45.4000343 Z M69.8630169,50.2000229 C70.3296829,50.2000229 70.7130148,50.0333561 71.0130141,49.7000241 C71.3130134,49.3666921 71.463013,48.9833586 71.463013,48.5500268 C71.463013,48.116695 71.3130134,47.7500287 71.0130141,47.4500294 C70.7130148,47.1500302 70.3296829,47.0000305 69.8630169,47.0000305 C69.3963508,47.0000305 69.0130189,47.1500302 68.7130196,47.4500294 C68.4130203,47.7500287 68.2630207,48.116695 68.2630207,48.5500268 C68.2630207,48.9833586 68.4130203,49.3666921 68.7130196,49.7000241 C69.0130189,50.0333561 69.3963508,50.2000229 69.8630169,50.2000229 Z" id="" fill="#FFFFFF"></path>
                        </g>
                    </g>
                </g>
            </g>
        </g>
    </g>
</svg>