<?xml version="1.0" encoding="UTF-8"?>
<svg width="86px" height="86px" viewBox="0 0 86 86" version="1.1" xmlns="http://www.w3.org/2000/svg" xmlns:xlink="http://www.w3.org/1999/xlink">
    <!-- Generator: Sketch 49.3 (51167) - http://www.bohemiancoding.com/sketch -->
    <title>ico-edu</title>
    <desc>Created with Sketch.</desc>
    <defs></defs>
    <g id="Page-1" stroke="none" stroke-width="1" fill="none" fill-rule="evenodd">
        <g id="ico-edu">
            <circle id="ico-edu-circle" fill-opacity="0.01" fill="#FFFFFF" cx="43" cy="43" r="43"></circle>
            <path d="M62.4375,41.125 L63,50.9999999 C63.0833337,52.4375071 62.2291757,53.7708271 60.4375,55 C58.6458244,56.2291727 56.1979322,57.2031213 53.09375,57.921875 C49.9895678,58.6406285 46.6250181,58.9999999 43,58.9999999 C39.3749819,58.9999999 36.0104322,58.6406285 32.90625,57.921875 C29.8020678,57.2031213 27.3541756,56.2291727 25.5625,55 C23.7708243,53.7708271 22.9166663,52.4375071 23,50.9999999 L23.5625,41.125 L41.5,46.78125 C41.9583356,46.9270841 42.4583306,47 43,47 C43.5416694,47 44.0416644,46.9270841 44.5,46.78125 L62.4375,41.125 Z M78.3125,30.03125 C78.7708356,30.1979175 79,30.5208309 79,30.9999999 C79,31.4791691 78.7708356,31.8020824 78.3125,31.9687499 L43.3125,42.96875 C43.2291662,42.9895834 43.1250006,42.9999999 43,42.9999999 C42.8749994,42.9999999 42.7708338,42.9895834 42.6875,42.96875 L22.3125,36.53125 C21.4166622,37.2395869 20.6770863,38.4010335 20.09375,40.015625 C19.5104138,41.6302163 19.1562506,43.4895727 19.03125,45.59375 C20.3437566,46.3437537 21,47.4791591 21,49 C21,50.4375072 20.3958394,51.5520793 19.1875,52.34375 L21,65.8749999 C21.0416668,66.166668 20.9583344,66.4270822 20.75,66.6562499 C20.562499,66.8854178 20.3125016,67 20,67 L14,67 C13.6874985,67 13.4375009,66.8854178 13.25,66.6562499 C13.0416657,66.4270822 12.9583331,66.166668 13,65.8749999 L14.8125,52.34375 C13.6041606,51.5520793 13,50.4375072 13,49 C13,47.4791591 13.6770765,46.3229206 15.03125,45.5312499 C15.2604178,41.2187284 16.2812409,37.7812628 18.09375,35.21875 L7.68749997,31.9687499 C7.22916436,31.8020824 7,31.4791691 7,30.9999999 C7,30.5208309 7.22916436,30.1979175 7.68749997,30.03125 L42.6875,19.03125 C42.7708338,19.0104165 42.8749994,19 43,19 C43.1250006,19 43.2291662,19.0104165 43.3125,19.03125 L78.3125,30.03125 Z" id="ico-edu-cap" fill="#085190" fill-rule="nonzero"></path>
        </g>
    </g>
</svg>