<?xml version="1.0" encoding="UTF-8"?>
<svg width="87px" height="86px" viewBox="0 0 87 86" version="1.1" xmlns="http://www.w3.org/2000/svg" xmlns:xlink="http://www.w3.org/1999/xlink">
    <!-- Generator: Sketch 49.2 (51160) - http://www.bohemiancoding.com/sketch -->
    <title>ico-health</title>
    <desc>Created with Sketch.</desc>
    <defs></defs>
    <g id="Page-1" stroke="none" stroke-width="1" fill="none" fill-rule="evenodd">
        <g id="Homepage-040218A" transform="translate(-199.000000, -757.000000)">
            <g id="SECTION-ROLES" transform="translate(199.000000, 704.000000)">
                <g id="roles" transform="translate(0.000000, 53.200000)">
                    <g id="health">
                        <g id="ico-health" transform="translate(0.800000, 0.000000)">
                            <circle id="Oval" fill="#85C1F4" cx="42.8" cy="42.8" r="42.8"></circle>
                            <path d="M32.863158,50.8285714 C33.2250646,51.190478 33.4060152,51.6190451 33.4060152,52.1142857 C33.4060152,52.6095263 33.2250646,53.0380934 32.863158,53.4 C32.5012514,53.7619066 32.0726843,53.9428571 31.5774437,53.9428571 C31.0822032,53.9428571 30.653636,53.7619066 30.2917294,53.4 C29.9298229,53.0380934 29.7488723,52.6095263 29.7488723,52.1142857 C29.7488723,51.6190451 29.9298229,51.190478 30.2917294,50.8285714 C30.653636,50.4666649 31.0822032,50.2857143 31.5774437,50.2857143 C32.0726843,50.2857143 32.5012514,50.4666649 32.863158,50.8285714 Z M62.663158,53.8571429 C62.663158,56.1619163 61.9679269,57.971422 60.5774437,59.2857143 C59.1869606,60.6000066 57.33936,61.2571429 55.0345866,61.2571429 L30.063158,61.2571429 C27.7583846,61.2571429 25.910784,60.6000066 24.5203009,59.2857143 C23.1298177,57.971422 22.4345866,56.1619163 22.4345866,53.8571429 C22.4345866,52.5618983 22.486967,51.3142917 22.5917294,50.1142857 C22.6964919,48.9142797 22.925061,47.6000071 23.2774437,46.1714286 C23.6298264,44.74285 24.0822029,43.4809579 24.6345866,42.3857143 C25.1869703,41.2904707 25.9583912,40.3095281 26.9488723,39.4428571 C27.9393534,38.5761861 29.0821992,38.0000014 30.3774437,37.7142857 C29.958394,38.7047669 29.7488723,39.8476126 29.7488723,41.1428571 L29.7488723,46.9428571 C28.6441049,47.3238114 27.7583994,47.9904714 27.0917294,48.9428571 C26.4250594,49.8952429 26.0917294,50.9523751 26.0917294,52.1142857 C26.0917294,53.6381029 26.6250574,54.933328 27.6917294,56 C28.7584014,57.066672 30.0536266,57.6 31.5774437,57.6 C33.1012609,57.6 34.396486,57.066672 35.463158,56 C36.52983,54.933328 37.063158,53.6381029 37.063158,52.1142857 C37.063158,50.9523751 36.7250662,49.8952429 36.0488723,48.9428571 C35.3726784,47.9904714 34.4917349,47.3238114 33.4060152,46.9428571 L33.4060152,41.1428571 C33.4060152,39.9618989 33.644108,39.0761934 34.1203009,38.4857143 C36.6345992,40.4666766 39.4440949,41.4571429 42.5488723,41.4571429 C45.6536497,41.4571429 48.4631454,40.4666766 50.9774437,38.4857143 C51.4536366,39.0761934 51.6917294,39.9618989 51.6917294,41.1428571 L51.6917294,42.9714286 C49.6726717,42.9714286 47.9488794,43.6857071 46.5203009,45.1142857 C45.0917223,46.5428643 44.3774437,48.2666566 44.3774437,50.2857143 L44.3774437,52.8285714 C43.7679169,53.3809551 43.463158,54.0571389 43.463158,54.8571429 C43.463158,55.6190514 43.729822,56.266664 44.263158,56.8 C44.796494,57.333336 45.4441066,57.6 46.2060152,57.6 C46.9679237,57.6 47.6155363,57.333336 48.1488723,56.8 C48.6822083,56.266664 48.9488723,55.6190514 48.9488723,54.8571429 C48.9488723,54.0571389 48.6441134,53.3809551 48.0345866,52.8285714 L48.0345866,50.2857143 C48.0345866,49.2952331 48.3964877,48.4380989 49.1203009,47.7142857 C49.844114,46.9904726 50.7012483,46.6285714 51.6917294,46.6285714 C52.6822106,46.6285714 53.5393449,46.9904726 54.263158,47.7142857 C54.9869712,48.4380989 55.3488723,49.2952331 55.3488723,50.2857143 L55.3488723,52.8285714 C54.7393454,53.3809551 54.4345866,54.0571389 54.4345866,54.8571429 C54.4345866,55.6190514 54.7012506,56.266664 55.2345866,56.8 C55.7679226,57.333336 56.4155352,57.6 57.1774437,57.6 C57.9393523,57.6 58.5869649,57.333336 59.1203009,56.8 C59.6536369,56.266664 59.9203009,55.6190514 59.9203009,54.8571429 C59.9203009,54.0571389 59.615542,53.3809551 59.0060152,52.8285714 L59.0060152,50.2857143 C59.0060152,48.9904697 58.677447,47.7761961 58.0203009,46.6428571 C57.3631547,45.5095181 56.4726874,44.6190509 55.3488723,43.9714286 C55.3488723,43.7809514 55.3536342,43.3761936 55.363158,42.7571429 C55.3726819,42.1380921 55.3726819,41.6809539 55.363158,41.3857143 C55.3536342,41.0904747 55.3298249,40.6952406 55.2917294,40.2 C55.253634,39.7047594 55.186968,39.2571449 55.0917294,38.8571429 C54.9964909,38.4571409 54.8726826,38.0761923 54.7203009,37.7142857 C56.0155454,38.0000014 57.1583912,38.5761861 58.1488723,39.4428571 C59.1393534,40.3095281 59.9107743,41.2904707 60.463158,42.3857143 C61.0155417,43.4809579 61.4679182,44.74285 61.8203009,46.1714286 C62.1726836,47.6000071 62.4012527,48.9142797 62.5060152,50.1142857 C62.6107776,51.3142917 62.663158,52.5618983 62.663158,53.8571429 Z M50.2917294,20.6 C52.4441212,22.733344 53.5203009,25.3142706 53.5203009,28.3428571 C53.5203009,31.3714437 52.448883,33.9571321 50.3060152,36.1 C48.1631473,38.2428679 45.5774589,39.3142857 42.5488723,39.3142857 C39.5202857,39.3142857 36.9345973,38.2428679 34.7917294,36.1 C32.6488616,33.9571321 31.5774437,31.3714437 31.5774437,28.3428571 C31.5774437,25.3142706 32.6488616,22.7285821 34.7917294,20.5857143 C36.9345973,18.4428464 39.5202857,17.3714286 42.5488723,17.3714286 C45.5774589,17.3714286 48.1583854,18.4476083 50.2917294,20.6 Z" id="" fill="#FFFFFF"></path>
                        </g>
                    </g>
                </g>
            </g>
        </g>
    </g>
</svg>