<?xml version="1.0" encoding="UTF-8"?>
<svg width="86px" height="86px" viewBox="0 0 86 86" version="1.1" xmlns="http://www.w3.org/2000/svg" xmlns:xlink="http://www.w3.org/1999/xlink">
    <!-- Generator: Sketch 49.2 (51160) - http://www.bohemiancoding.com/sketch -->
    <title>ico-edu</title>
    <desc>Created with Sketch.</desc>
    <defs></defs>
    <g id="Page-1" stroke="none" stroke-width="1" fill="none" fill-rule="evenodd">
        <g id="Homepage-040218A" transform="translate(-781.000000, -757.000000)">
            <g id="SECTION-ROLES" transform="translate(199.000000, 704.000000)">
                <g id="roles" transform="translate(0.000000, 53.200000)">
                    <g id="edu" transform="translate(582.000000, 0.000000)">
                        <g id="ico-edu">
                            <circle id="Oval" fill="#9FC45E" cx="42.8" cy="42.8" r="42.8"></circle>
                            <path d="M62.5203009,40.8 L63.0345866,49.8285714 C63.1107774,51.1428637 62.3298329,52.3618991 60.6917294,53.4857143 C59.053626,54.6095294 56.8155532,55.4999967 53.9774437,56.1571429 C51.1393343,56.814289 48.0631746,57.1428571 44.7488723,57.1428571 C41.43457,57.1428571 38.3584103,56.814289 35.5203009,56.1571429 C32.6821914,55.4999967 30.4441186,54.6095294 28.8060152,53.4857143 C27.1679117,52.3618991 26.3869672,51.1428637 26.463158,49.8285714 L26.9774437,40.8 L43.3774437,45.9714286 C43.7964934,46.1047626 44.2536317,46.1714286 44.7488723,46.1714286 C45.2441129,46.1714286 45.7012512,46.1047626 46.1203009,45.9714286 L62.5203009,40.8 Z M77.0345866,30.6571429 C77.4536363,30.8095246 77.663158,31.1047597 77.663158,31.5428571 C77.663158,31.9809546 77.4536363,32.2761897 77.0345866,32.4285714 L45.0345866,42.4857143 C44.9583957,42.504762 44.8631586,42.5142857 44.7488723,42.5142857 C44.634586,42.5142857 44.5393489,42.504762 44.463158,42.4857143 L25.8345866,36.6 C25.0155349,37.2476223 24.3393512,38.3095164 23.8060152,39.7857143 C23.2726792,41.2619121 22.9488729,42.9618951 22.8345866,44.8857143 C24.0345926,45.571432 24.6345866,46.6095169 24.6345866,48 C24.6345866,49.3142923 24.0822112,50.3333297 22.9774437,51.0571429 L24.6345866,63.4285714 C24.672682,63.6952394 24.5964923,63.9333323 24.4060152,64.1428571 C24.2345857,64.352382 24.0060166,64.4571429 23.7203009,64.4571429 L18.2345866,64.4571429 C17.9488709,64.4571429 17.7203017,64.352382 17.5488723,64.1428571 C17.3583952,63.9333323 17.2822054,63.6952394 17.3203009,63.4285714 L18.9774437,51.0571429 C17.8726763,50.3333297 17.3203009,49.3142923 17.3203009,48 C17.3203009,46.6095169 17.9393423,45.5523846 19.1774437,44.8285714 C19.3869686,40.8856946 20.3202926,37.7428689 21.9774437,35.4 L12.463158,32.4285714 C12.0441083,32.2761897 11.8345866,31.9809546 11.8345866,31.5428571 C11.8345866,31.1047597 12.0441083,30.8095246 12.463158,30.6571429 L44.463158,20.6 C44.5393489,20.5809523 44.634586,20.5714286 44.7488723,20.5714286 C44.8631586,20.5714286 44.9583957,20.5809523 45.0345866,20.6 L77.0345866,30.6571429 Z" id="ï†" fill="#FFFFFF"></path>
                        </g>
                    </g>
                </g>
            </g>
        </g>
    </g>
</svg>