<?xml version="1.0" encoding="UTF-8"?>
<svg width="86px" height="86px" viewBox="0 0 86 86" version="1.1" xmlns="http://www.w3.org/2000/svg" xmlns:xlink="http://www.w3.org/1999/xlink">
    <!-- Generator: Sketch 49.2 (51160) - http://www.bohemiancoding.com/sketch -->
    <title>ico-media</title>
    <desc>Created with Sketch.</desc>
    <defs></defs>
    <g id="Page-1" stroke="none" stroke-width="1" fill="none" fill-rule="evenodd">
        <g id="Homepage-040218A" transform="translate(-967.000000, -757.000000)">
            <g id="SECTION-ROLES" transform="translate(199.000000, 704.000000)">
                <g id="roles" transform="translate(0.000000, 53.200000)">
                    <g id="media" transform="translate(768.000000, 0.000000)">
                        <g id="ico-media">
                            <circle id="Oval" fill="#B17BBF" cx="42.8" cy="42.8" r="42.8"></circle>
                            <path d="M42.4060152,33.9428571 L31.4345866,33.9428571 L31.4345866,44.9142857 L42.4060152,44.9142857 L42.4060152,33.9428571 Z M46.063158,52.2285714 L46.063158,55.8857143 L27.7774437,55.8857143 L27.7774437,52.2285714 L46.063158,52.2285714 Z M46.063158,30.2857143 L46.063158,48.5714286 L27.7774437,48.5714286 L27.7774437,30.2857143 L46.063158,30.2857143 Z M64.3488723,52.2285714 L64.3488723,55.8857143 L49.7203009,55.8857143 L49.7203009,52.2285714 L64.3488723,52.2285714 Z M64.3488723,44.9142857 L64.3488723,48.5714286 L49.7203009,48.5714286 L49.7203009,44.9142857 L64.3488723,44.9142857 Z M64.3488723,37.6 L64.3488723,41.2571429 L49.7203009,41.2571429 L49.7203009,37.6 L64.3488723,37.6 Z M64.3488723,30.2857143 L64.3488723,33.9428571 L49.7203009,33.9428571 L49.7203009,30.2857143 L64.3488723,30.2857143 Z M20.463158,57.7142857 L20.463158,30.2857143 L16.8060152,30.2857143 L16.8060152,57.7142857 C16.8060152,58.2095263 16.9869657,58.6380934 17.3488723,59 C17.7107789,59.3619066 18.139346,59.5428571 18.6345866,59.5428571 C19.1298272,59.5428571 19.5583943,59.3619066 19.9203009,59 C20.2822074,58.6380934 20.463158,58.2095263 20.463158,57.7142857 Z M68.0060152,57.7142857 L68.0060152,26.6285714 L24.1203009,26.6285714 L24.1203009,57.7142857 C24.1203009,58.3428603 24.01554,58.952378 23.8060152,59.5428571 L66.1774437,59.5428571 C66.6726843,59.5428571 67.1012514,59.3619066 67.463158,59 C67.8250646,58.6380934 68.0060152,58.2095263 68.0060152,57.7142857 Z M71.663158,22.9714286 L71.663158,57.7142857 C71.663158,59.2381029 71.12983,60.533328 70.063158,61.6 C68.996486,62.666672 67.7012609,63.2 66.1774437,63.2 L18.6345866,63.2 C17.1107694,63.2 15.8155443,62.666672 14.7488723,61.6 C13.6822003,60.533328 13.1488723,59.2381029 13.1488723,57.7142857 L13.1488723,26.6285714 L20.463158,26.6285714 L20.463158,22.9714286 L71.663158,22.9714286 Z" id="" fill="#FFFFFF"></path>
                        </g>
                    </g>
                </g>
            </g>
        </g>
    </g>
</svg>