<?xml version="1.0" encoding="UTF-8"?>
<svg width="86px" height="86px" viewBox="0 0 86 86" version="1.1" xmlns="http://www.w3.org/2000/svg" xmlns:xlink="http://www.w3.org/1999/xlink">
    <!-- Generator: Sketch 49.2 (51160) - http://www.bohemiancoding.com/sketch -->
    <title>ico-apis</title>
    <desc>Created with Sketch.</desc>
    <defs></defs>
    <g id="Page-1" stroke="none" stroke-width="1" fill="none" fill-rule="evenodd">
        <g id="Homepage-040218A" transform="translate(-956.000000, -171.000000)" fill="#FFFFFF">
            <g id="MASTHEAD" transform="translate(0.000000, -135.000000)">
                <g id="content" transform="translate(398.000000, 306.000000)">
                    <g id="ico-apis" transform="translate(558.400000, 0.000000)">
                        <circle id="Oval" fill-opacity="0.0964956975" cx="42.8" cy="42.8" r="42.8"></circle>
                        <path d="M36.263158,48.4857143 C37.6917365,47.0571357 38.4060151,45.3333434 38.4060151,43.3142857 C38.4060151,41.295228 37.6917365,39.5714357 36.263158,38.1428571 C34.8345794,36.7142786 33.1107871,36 31.0917294,36 C29.0726717,36 27.3488794,36.7142786 25.9203008,38.1428571 C24.4917222,39.5714357 23.7774437,41.295228 23.7774437,43.3142857 C23.7774437,45.3333434 24.4917222,47.0571357 25.9203008,48.4857143 C27.3488794,49.9142929 29.0726717,50.6285714 31.0917294,50.6285714 C33.1107871,50.6285714 34.8345794,49.9142929 36.263158,48.4857143 Z M60.3488722,57.9428571 C60.3488722,56.952376 59.9869711,56.0952417 59.263158,55.3714286 C58.5393448,54.6476154 57.6822105,54.2857143 56.6917294,54.2857143 C55.7012482,54.2857143 54.844114,54.6476154 54.1203008,55.3714286 C53.3964877,56.0952417 53.0345865,56.952376 53.0345865,57.9428571 C53.0345865,58.952386 53.3917258,59.8142821 54.1060151,60.5285714 C54.8203044,61.2428607 55.6822005,61.6 56.6917294,61.6 C57.7012582,61.6 58.5631544,61.2428607 59.2774437,60.5285714 C59.991733,59.8142821 60.3488722,58.952386 60.3488722,57.9428571 Z M60.3488722,28.6857143 C60.3488722,27.6952331 59.9869711,26.8380989 59.263158,26.1142857 C58.5393448,25.3904726 57.6822105,25.0285714 56.6917294,25.0285714 C55.7012482,25.0285714 54.844114,25.3904726 54.1203008,26.1142857 C53.3964877,26.8380989 53.0345865,27.6952331 53.0345865,28.6857143 C53.0345865,29.6952431 53.3917258,30.5571393 54.1060151,31.2714286 C54.8203044,31.9857179 55.6822005,32.3428571 56.6917294,32.3428571 C57.7012582,32.3428571 58.5631544,31.9857179 59.2774437,31.2714286 C59.991733,30.5571393 60.3488722,29.6952431 60.3488722,28.6857143 Z M49.3774437,40.7142857 L49.3774437,46 C49.3774437,46.1904771 49.3107777,46.3761896 49.1774437,46.5571429 C49.0441097,46.7380961 48.8917302,46.8380951 48.7203008,46.8571429 L44.2917294,47.5428571 C44.0822045,48.2095271 43.7774457,48.9333294 43.3774437,49.7142857 C44.025066,50.628576 44.8822002,51.7238031 45.9488722,53 C46.0822062,53.1904771 46.1488722,53.3809514 46.1488722,53.5714286 C46.1488722,53.8000011 46.0822062,53.9809517 45.9488722,54.1142857 C45.5107748,54.6857171 44.7250684,55.5380896 43.5917294,56.6714286 C42.4583904,57.8047676 41.7107788,58.3714286 41.3488722,58.3714286 C41.1393474,58.3714286 40.9393494,58.3047626 40.7488722,58.1714286 L37.463158,55.6 C36.7583925,55.9619066 36.0250665,56.2571417 35.263158,56.4857143 C35.0536331,58.5428674 34.8345877,60.0190431 34.6060151,60.9142857 C34.4726811,61.3714309 34.1869697,61.6 33.7488722,61.6 L28.4345865,61.6 C28.2250617,61.6 28.0345874,61.5285721 27.863158,61.3857143 C27.6917285,61.2428564 27.5964914,61.0761914 27.5774437,60.8857143 L26.9203008,56.5142857 C26.2726785,56.3238086 25.5584,56.0285734 24.7774437,55.6285714 L21.4060151,58.1714286 C21.2726811,58.3047626 21.0822068,58.3714286 20.8345865,58.3714286 C20.6250617,58.3714286 20.4250637,58.2952389 20.2345865,58.1428571 C17.4917157,55.6095111 16.1203008,54.0857169 16.1203008,53.5714286 C16.1203008,53.3999991 16.1869668,53.2190486 16.3203008,53.0285714 C16.510778,52.7619034 16.9012502,52.2571466 17.4917294,51.5142857 C18.0822085,50.7714249 18.5298231,50.1904783 18.8345865,49.7714286 C18.3964891,48.9333291 18.0631591,48.1523846 17.8345865,47.4285714 L13.4917294,46.7428571 C13.3012522,46.7238094 13.1393491,46.6333341 13.0060151,46.4714286 C12.8726811,46.309523 12.8060151,46.1238106 12.8060151,45.9142857 L12.8060151,40.6285714 C12.8060151,40.4380943 12.8726811,40.2523819 13.0060151,40.0714286 C13.1393491,39.8904753 13.2917285,39.7904763 13.463158,39.7714286 L17.8917294,39.0857143 C18.1012542,38.4190443 18.4060131,37.695242 18.8060151,36.9142857 C18.1583928,35.9999954 17.3012585,34.9047683 16.2345865,33.6285714 C16.1012525,33.4190466 16.0345865,33.2285723 16.0345865,33.0571429 C16.0345865,32.8285703 16.1012525,32.638096 16.2345865,32.4857143 C16.6536362,31.9142829 17.4345808,31.0666723 18.5774437,29.9428571 C19.7203065,28.819042 20.47268,28.2571429 20.8345865,28.2571429 C21.0441114,28.2571429 21.2441094,28.3238089 21.4345865,28.4571429 L24.7203008,31.0285714 C25.3679231,30.6857126 26.1012491,30.3809537 26.9203008,30.1142857 C27.1298257,28.0571326 27.3488711,26.5904806 27.5774437,25.7142857 C27.7107777,25.2571406 27.9964891,25.0285714 28.4345865,25.0285714 L33.7488722,25.0285714 C33.9583971,25.0285714 34.1488714,25.0999993 34.3203008,25.2428571 C34.4917302,25.385715 34.5869674,25.55238 34.6060151,25.7428571 L35.263158,30.1142857 C35.9107802,30.3047629 36.6250588,30.599998 37.4060151,31 L40.7774437,28.4571429 C40.9298254,28.3238089 41.1202997,28.2571429 41.3488722,28.2571429 C41.5583971,28.2571429 41.7583951,28.3333326 41.9488722,28.4857143 C44.6917431,31.0190603 46.063158,32.5428546 46.063158,33.0571429 C46.063158,33.2285723 45.996492,33.4095229 45.863158,33.6 C45.6345854,33.9047634 45.2345894,34.419044 44.663158,35.1428571 C44.0917265,35.8666703 43.6631594,36.4380931 43.3774437,36.8571429 C43.8155411,37.7714331 44.1393474,38.5523777 44.3488722,39.2 L48.6917294,39.8571429 C48.8822065,39.8952383 49.0441097,39.9952373 49.1774437,40.1571429 C49.3107777,40.3190484 49.3774437,40.5047609 49.3774437,40.7142857 Z M67.663158,55.9428571 L67.663158,59.9428571 C67.663158,60.2476206 66.2441245,60.5428557 63.4060151,60.8285714 C63.1774425,61.3428597 62.8917311,61.8380929 62.5488722,62.3142857 C63.5203057,64.4666774 64.0060151,65.78095 64.0060151,66.2571429 C64.0060151,66.3333337 63.9679202,66.3999997 63.8917294,66.4571429 C61.5679082,67.8095306 60.3869677,68.4857143 60.3488722,68.4857143 C60.1964905,68.4857143 59.7583997,68.0380997 59.0345865,67.1428571 C58.3107734,66.2476146 57.8155402,65.600002 57.5488722,65.2 C57.167918,65.2380954 56.8822065,65.2571429 56.6917294,65.2571429 C56.5012522,65.2571429 56.2155408,65.2380954 55.8345865,65.2 C55.5679185,65.600002 55.0726854,66.2476146 54.3488722,67.1428571 C53.6250591,68.0380997 53.1869682,68.4857143 53.0345865,68.4857143 C52.9964911,68.4857143 51.8155505,67.8095306 49.4917294,66.4571429 C49.4155385,66.3999997 49.3774437,66.3333337 49.3774437,66.2571429 C49.3774437,65.78095 49.8631531,64.4666774 50.8345865,62.3142857 C50.4917277,61.8380929 50.2060162,61.3428597 49.9774437,60.8285714 C47.1393342,60.5428557 45.7203008,60.2476206 45.7203008,59.9428571 L45.7203008,55.9428571 C45.7203008,55.6380937 47.1393342,55.3428586 49.9774437,55.0571429 C50.225064,54.5047591 50.5107754,54.009526 50.8345865,53.5714286 C49.8631531,51.4190369 49.3774437,50.1047643 49.3774437,49.6285714 C49.3774437,49.5523806 49.4155385,49.4857146 49.4917294,49.4285714 C49.5679202,49.390476 49.9012502,49.2000017 50.4917294,48.8571429 C51.0822085,48.514284 51.6441077,48.1904777 52.1774437,47.8857143 C52.7107797,47.5809509 52.9964911,47.4285714 53.0345865,47.4285714 C53.1869682,47.4285714 53.6250591,47.8714241 54.3488722,48.7571429 C55.0726854,49.6428616 55.5679185,50.2857123 55.8345865,50.6857143 C56.2155408,50.6476189 56.5012522,50.6285714 56.6917294,50.6285714 C56.8822065,50.6285714 57.167918,50.6476189 57.5488722,50.6857143 C58.5203057,49.3333266 59.3964874,48.2666706 60.1774437,47.4857143 L60.3488722,47.4285714 C60.4250631,47.4285714 61.6060037,48.0952314 63.8917294,49.4285714 C63.9679202,49.4857146 64.0060151,49.5523806 64.0060151,49.6285714 C64.0060151,50.1047643 63.5203057,51.4190369 62.5488722,53.5714286 C62.8726834,54.009526 63.1583948,54.5047591 63.4060151,55.0571429 C66.2441245,55.3428586 67.663158,55.6380937 67.663158,55.9428571 Z M67.663158,26.6857143 L67.663158,30.6857143 C67.663158,30.9904777 66.2441245,31.2857129 63.4060151,31.5714286 C63.1774425,32.0857169 62.8917311,32.58095 62.5488722,33.0571429 C63.5203057,35.2095346 64.0060151,36.5238071 64.0060151,37 C64.0060151,37.0761909 63.9679202,37.1428569 63.8917294,37.2 C61.5679082,38.5523877 60.3869677,39.2285714 60.3488722,39.2285714 C60.1964905,39.2285714 59.7583997,38.7809569 59.0345865,37.8857143 C58.3107734,36.9904717 57.8155402,36.3428591 57.5488722,35.9428571 C57.167918,35.9809526 56.8822065,36 56.6917294,36 C56.5012522,36 56.2155408,35.9809526 55.8345865,35.9428571 C55.5679185,36.3428591 55.0726854,36.9904717 54.3488722,37.8857143 C53.6250591,38.7809569 53.1869682,39.2285714 53.0345865,39.2285714 C52.9964911,39.2285714 51.8155505,38.5523877 49.4917294,37.2 C49.4155385,37.1428569 49.3774437,37.0761909 49.3774437,37 C49.3774437,36.5238071 49.8631531,35.2095346 50.8345865,33.0571429 C50.4917277,32.58095 50.2060162,32.0857169 49.9774437,31.5714286 C47.1393342,31.2857129 45.7203008,30.9904777 45.7203008,30.6857143 L45.7203008,26.6857143 C45.7203008,26.3809509 47.1393342,26.0857157 49.9774437,25.8 C50.225064,25.2476163 50.5107754,24.7523831 50.8345865,24.3142857 C49.8631531,22.161894 49.3774437,20.8476214 49.3774437,20.3714286 C49.3774437,20.2952377 49.4155385,20.2285717 49.4917294,20.1714286 C49.5679202,20.1333331 49.9012502,19.9428589 50.4917294,19.6 C51.0822085,19.2571411 51.6441077,18.9333349 52.1774437,18.6285714 C52.7107797,18.323808 52.9964911,18.1714286 53.0345865,18.1714286 C53.1869682,18.1714286 53.6250591,18.6142813 54.3488722,19.5 C55.0726854,20.3857187 55.5679185,21.0285694 55.8345865,21.4285714 C56.2155408,21.390476 56.5012522,21.3714286 56.6917294,21.3714286 C56.8822065,21.3714286 57.167918,21.390476 57.5488722,21.4285714 C58.5203057,20.0761837 59.3964874,19.0095277 60.1774437,18.2285714 L60.3488722,18.1714286 C60.4250631,18.1714286 61.6060037,18.8380886 63.8917294,20.1714286 C63.9679202,20.2285717 64.0060151,20.2952377 64.0060151,20.3714286 C64.0060151,20.8476214 63.5203057,22.161894 62.5488722,24.3142857 C62.8726834,24.7523831 63.1583948,25.2476163 63.4060151,25.8 C66.2441245,26.0857157 67.663158,26.3809509 67.663158,26.6857143 Z" id=""></path>
                    </g>
                </g>
            </g>
        </g>
    </g>
</svg>