<?xml version="1.0" encoding="UTF-8"?>
<svg width="177px" height="51px" viewBox="0 0 177 51" version="1.1" xmlns="http://www.w3.org/2000/svg" xmlns:xlink="http://www.w3.org/1999/xlink">
    <!-- Generator: Sketch 49.3 (51167) - http://www.bohemiancoding.com/sketch -->
    <title>site-logo</title>
    <desc>Created with Sketch.</desc>
    <defs>
        <rect id="path-1" x="0" y="0" width="91" height="49"></rect>
        <polygon id="path-3" points="0.227833608 0.405017167 91.2313757 0.405017167 91.2313757 53.2996438 0.227833608 53.2996438"></polygon>
    </defs>
    <g id="Page-1" stroke="none" stroke-width="1" fill="none" fill-rule="evenodd">
        <g id="Artboard" transform="translate(-20.000000, -20.000000)">
            <g id="site-logo" transform="translate(19.000000, 21.000000)">
                <g id="US_CDC_logo" transform="translate(86.000000, 0.000000)">
                    <g id="CDC">
                        <g id="Mask" fill-rule="nonzero" stroke="#FFFFFF">
                            <rect id="path-1" x="0" y="0" width="91" height="49"></rect>
                        </g>
                        <g id="Group-Clipped">
                            <mask id="mask-2" fill="white">
                                <use xlink:href="#path-1"></use>
                            </mask>
                            <g id="path-1"></g>
                            <g id="Group" mask="url(#mask-2)">
                                <g transform="translate(0.000000, -1.000000)">
                                    <g>
                                        <g transform="translate(0.015290, 0.431862)">
                                            <g id="g1390-Clipped">
                                                <g id="rays" transform="translate(0.091620, 0.037382)">
                                                    <g id="Clipped">
                                                        <g id="Group-Clipped">
                                                            <mask id="mask-4" fill="white">
                                                                <use xlink:href="#path-3"></use>
                                                            </mask>
                                                            <g id="path-3"></g>
                                                            <g id="Group" mask="url(#mask-4)" opacity="0.849999964">
                                                                <g transform="translate(2.000000, -4.000000)">
                                                                    <g transform="translate(0.206897, 0.405797)">
                                                                        <g transform="translate(0.780607, 0.580795)" fill="#FFFFFF" fill-rule="nonzero">
                                                                            <polygon id="ray09" points="34.8902845 53.0981305 88.5033931 0.744146714 88.5033931 0.203503826 88.2483245 0.203503826 34.0747764 53.0981305"></polygon>
                                                                            <polygon id="ray01" points="1.07057693 53.0981305 4.69171495 0.203503826 4.13121245 0.203503826 0.510121665 53.0981305"></polygon>
                                                                            <polygon id="ray02" points="3.97849555 53.0981305 11.7828013 0.203503826 11.222346 0.203503826 3.41645015 53.0981305"></polygon>
                                                                            <polygon id="ray03" points="7.08954339 53.0981305 19.3320855 0.203503826 18.7196277 0.203503826 6.47866007 53.0981305"></polygon>
                                                                            <polygon id="ray04" points="10.4571713 53.0981305 27.9534896 0.203503826 27.3914284 0.203503826 9.89511021 53.0981305"></polygon>
                                                                            <polygon id="ray05" points="13.6705238 53.0981305 36.1655494 0.203503826 35.5531231 0.203503826 13.0580975 53.0981305"></polygon>
                                                                            <polygon id="ray06" points="17.3939821 53.0981305 45.5001728 0.203503826 44.8373657 0.203503826 16.7311593 53.0981305"></polygon>
                                                                            <polygon id="ray07" points="59.5281014 0.203503826 58.814882 0.203503826 22.4446605 53.0981305 23.1578642 53.0981305"></polygon>
                                                                            <polygon id="ray08" points="72.4854058 0.203503826 71.7706435 0.203503826 27.5457197 53.0981305 28.3108629 53.0981305"></polygon>
                                                                            <polygon id="ray10" points="88.5033931 20.2299521 88.5033931 19.5404919 44.6846489 53.0981305 45.5521438 53.0981305"></polygon>
                                                                            <polygon id="ray11" points="88.5033931 34.7938116 88.5033931 34.1544746 57.0295427 53.0981305 58.1001197 53.0981305"></polygon>
                                                                            <polygon id="ray12" points="88.5033931 48.5224327 88.5033931 47.9316653 76.9236421 53.0981305 78.2493035 53.0981305"></polygon>
                                                                        </g>
                                                                    </g>
                                                                </g>
                                                            </g>
                                                        </g>
                                                    </g>
                                                </g>
                                            </g>
                                            <path d="M21.9831957,36.0319918 C12.4958553,36.0319918 6.0675918,30.4236006 6.0675918,21.2707 C6.0675918,12.4139243 12.954006,6.1646667 22.0336079,6.1646667 C24.4833759,6.1646667 27.1362258,6.6081235 29.1750751,7.54208036 L29.1750751,11.9218737 C28.154879,10.6431769 26.1664106,8.33027856 22.1359125,8.33027856 C16.4224271,8.33027856 13.2090747,13.3980027 13.2090747,20.679934 C13.2090747,28.3066052 16.2193294,33.7691938 22.7483703,33.7691938 C25.0438311,33.7691938 27.8998103,32.6378063 29.1750751,31.5048878 L30.2472422,33.7691938 C29.0223582,34.7031719 26.7268816,36.0319918 21.9831957,36.0319918" id="path1884" fill="#004AA1" fill-rule="nonzero"></path>
                                            <path d="M21.9831957,6.1646728 C12.4958553,6.1646728 6.0675918,11.7730671 6.0675918,20.9259631 C6.0675918,29.7827373 12.954006,36.0319872 22.0336079,36.0319872 C24.4833759,36.0319872 27.1362258,35.5885411 29.1750751,34.6545857 L29.1750751,30.2747803 C28.154879,31.5534847 26.1664106,33.8663754 22.1359125,33.8663754 C16.4224271,33.8663754 13.2090747,28.7986512 13.2090747,21.5167184 C13.2090747,13.8900518 16.2193294,8.42746318 22.7483703,8.42746318 C25.0438311,8.42746318 27.8998103,9.55885838 29.1750751,10.6917722 L30.2472422,8.42746318 C29.0223582,7.49349265 26.7268816,6.1646728 21.9831957,6.1646728 Z" id="C1" stroke="#FFFFFF" stroke-width="0.5" fill="#FFFFFF" fill-rule="nonzero" transform="translate(18.157417, 21.098330) scale(-1, 1) rotate(-180.000000) translate(-18.157417, -21.098330) "></path>
                                            <path d="M46.5186607,32.3902509 C44.4798113,33.0797337 42.2347313,33.1784491 40.1423682,33.1784491 L40.1423682,8.87090018 C42.2347313,8.87090018 44.5301923,8.96961562 46.5186607,9.65909849 L46.5186607,6.75543267 C45.9077931,6.70684039 45.2953668,6.6567173 44.6829091,6.6567173 L33.7660284,6.6567173 L33.7660284,35.4913474 L45.3977029,35.4913474 C45.7535175,35.4913474 46.1628618,35.4913474 46.5186607,35.4412259 L46.5186607,32.3902509 Z M52.8950004,21.1233908 C52.8950004,28.2580114 50.039037,31.1601464 46.5186607,32.3902509 L46.5186607,35.4412259 C52.2321934,35.0478906 59.9357216,31.4061725 59.9357216,20.9760817 C59.9357216,10.3971508 52.7422835,7.24746049 46.5186607,6.75543267 L46.5186607,9.65909849 C50.0894178,10.8390799 52.8950004,13.7913379 52.8950004,21.1233908 Z" id="D" fill="#FFFFFF" fill-rule="nonzero"></path>
                                            <path d="M63.404127,21.2707 C63.404127,12.4139243 70.2905412,6.1646667 79.3701432,6.1646667 C81.8183206,6.1646667 84.4711865,6.6081235 86.5116105,7.54208036 L86.5116105,11.9218737 C85.4914141,10.6431769 83.501356,8.33027856 79.4724478,8.33027856 C73.7589623,8.33027856 70.5455942,13.3980027 70.5455942,20.679934 C70.5455942,28.3066052 73.5543059,33.7691938 80.0849055,33.7691938 C82.3803661,33.7691938 85.1859805,32.6378063 86.5116105,31.5048878 L87.5821872,33.7691938 C86.3069383,34.7031719 84.0634007,36.0319918 79.3197309,36.0319918 C69.8308318,36.0319918 63.404127,30.4236006 63.404127,21.2707 Z" id="C2" fill="#004AA1" fill-rule="nonzero"></path>
                                            <path d="M79.3197309,6.1646728 C69.8308318,6.1646728 63.404127,11.7730671 63.404127,20.9259631 C63.404127,29.7827373 70.2905412,36.0319872 79.3701432,36.0319872 C81.8183206,36.0319872 84.4711865,35.5885411 86.5116105,34.6545857 L86.5116105,30.2747803 C85.4914141,31.5534847 83.501356,33.8663754 79.4724478,33.8663754 C73.7589623,33.8663754 70.5455942,28.7986512 70.5455942,21.5167184 C70.5455942,13.8900518 73.5543059,8.42746318 80.0849055,8.42746318 C82.3803661,8.42746318 85.1859805,9.55885838 86.5116105,10.6917722 L87.5821872,8.42746318 C86.3069383,7.49349265 84.0634007,6.1646728 79.3197309,6.1646728 Z" id="path1892" stroke="#FFFFFF" stroke-width="0.5" fill="#FFFFFF" fill-rule="nonzero" transform="translate(75.493157, 21.098330) scale(-1, 1) rotate(-180.000000) translate(-75.493157, -21.098330) "></path>
                                        </g>
                                    </g>
                                </g>
                            </g>
                        </g>
                    </g>
                </g>
                <g id="open" transform="translate(0.000000, 1.000000)" fill="#FFFFFF" font-family="HelveticaNeue-Thin, Helvetica Neue" font-size="36" font-weight="300">
                    <text>
                        <tspan x="0.356999924" y="35">open</tspan>
                    </text>
                </g>
            </g>
        </g>
    </g>
</svg>