<?xml version="1.0" encoding="UTF-8"?>
<svg width="177px" height="51px" viewBox="0 0 177 51" version="1.1" xmlns="http://www.w3.org/2000/svg" xmlns:xlink="http://www.w3.org/1999/xlink">
    <!-- Generator: Sketch 49.3 (51167) - http://www.bohemiancoding.com/sketch -->
    <title>site-logo</title>
    <desc>Created with Sketch.</desc>
    <defs>
        <rect id="path-1" x="0" y="0" width="91" height="49"></rect>
        <polygon id="path-3" points="0.227833608 0.405017167 91.2313757 0.405017167 91.2313757 53.2996438 0.227833608 53.2996438"></polygon>
    </defs>
    <g id="Page-1" stroke="none" stroke-width="1" fill="none" fill-rule="evenodd">
        <g id="site-logo" transform="translate(0.000000, 1.000000)">
            <g id="US_CDC_logo" transform="translate(85.000000, 0.000000)">
                <g id="CDC">
                    <g id="Mask" stroke="#FFFFFF">
                        <rect id="path-1" x="0" y="0" width="91" height="49"></rect>
                    </g>
                    <g id="Group-Clipped">
                        <g>
                            <mask id="mask-2" fill="white">
                                <use xlink:href="#path-1"></use>
                            </mask>
                            <g id="path-1"></g>
                            <g id="Group" mask="url(#mask-2)">
                                <g transform="translate(0.000000, -1.000000)">
                                    <g>
                                        <g>
                                            <g transform="translate(0.015290, 0.431862)">
                                                <g id="g1390-Clipped">
                                                    <g id="rays" transform="translate(0.091620, 0.037382)">
                                                        <g id="Clipped">
                                                            <g id="Group-Clipped">
                                                                <g>
                                                                    <mask id="mask-4" fill="white">
                                                                        <use xlink:href="#path-3"></use>
                                                                    </mask>
                                                                    <g id="path-3"></g>
                                                                    <g id="Group" opacity="0.849999964" mask="url(#mask-4)">
                                                                        <g transform="translate(2.000000, -4.000000)">
                                                                            <g>
                                                                                <g transform="translate(0.206897, 0.405797)" fill="#FFFFFF" fill-rule="nonzero">
                                                                                    <g transform="translate(0.780607, 0.580795)">
                                                                                        <polygon id="ray09" points="34.8902845 53.0981305 88.5033931 0.744146714 88.5033931 0.203503826 88.2483245 0.203503826 34.0747764 53.0981305"></polygon>
                                                                                        <polygon id="ray01" points="1.07057693 53.0981305 4.69171495 0.203503826 4.13121245 0.203503826 0.510121665 53.0981305"></polygon>
                                                                                        <polygon id="ray02" points="3.97849555 53.0981305 11.7828013 0.203503826 11.222346 0.203503826 3.41645015 53.0981305"></polygon>
                                                                                        <polygon id="ray03" points="7.08954339 53.0981305 19.3320855 0.203503826 18.7196277 0.203503826 6.47866007 53.0981305"></polygon>
                                                                                        <polygon id="ray04" points="10.4571713 53.0981305 27.9534896 0.203503826 27.3914284 0.203503826 9.89511021 53.0981305"></polygon>
                                                                                        <polygon id="ray05" points="13.6705238 53.0981305 36.1655494 0.203503826 35.5531231 0.203503826 13.0580975 53.0981305"></polygon>
                                                                                        <polygon id="ray06" points="17.3939821 53.0981305 45.5001728 0.203503826 44.8373657 0.203503826 16.7311593 53.0981305"></polygon>
                                                                                        <polygon id="ray07" points="59.5281014 0.203503826 58.814882 0.203503826 22.4446605 53.0981305 23.1578642 53.0981305"></polygon>
                                                                                        <polygon id="ray08" points="72.4854058 0.203503826 71.7706435 0.203503826 27.5457197 53.0981305 28.3108629 53.0981305"></polygon>
                                                                                        <polygon id="ray10" points="88.5033931 20.2299521 88.5033931 19.5404919 44.6846489 53.0981305 45.5521438 53.0981305"></polygon>
                                                                                        <polygon id="ray11" points="88.5033931 34.7938116 88.5033931 34.1544746 57.0295427 53.0981305 58.1001197 53.0981305"></polygon>
                                                                                        <polygon id="ray12" points="88.5033931 48.5224327 88.5033931 47.9316653 76.9236421 53.0981305 78.2493035 53.0981305"></polygon>
                                                                                    </g>
                                                                                </g>
                                                                            </g>
                                                                        </g>
                                                                    </g>
                                                                </g>
                                                            </g>
                                                        </g>
                                                    </g>
                                                </g>
                                                <path d="M21.9831957,36.0319918 C12.4958553,36.0319918 6.0675918,30.4236006 6.0675918,21.2707 C6.0675918,12.4139243 12.954006,6.1646667 22.0336079,6.1646667 C24.4833759,6.1646667 27.1362258,6.6081235 29.1750751,7.54208036 L29.1750751,11.9218737 C28.154879,10.6431769 26.1664106,8.33027856 22.1359125,8.33027856 C16.4224271,8.33027856 13.2090747,13.3980027 13.2090747,20.679934 C13.2090747,28.3066052 16.2193294,33.7691938 22.7483703,33.7691938 C25.0438311,33.7691938 27.8998103,32.6378063 29.1750751,31.5048878 L30.2472422,33.7691938 C29.0223582,34.7031719 26.7268816,36.0319918 21.9831957,36.0319918" id="path1884" fill="#004AA1" fill-rule="nonzero"></path>
                                                <path d="M21.9831957,6.1646728 C12.4958553,6.1646728 6.0675918,11.7730671 6.0675918,20.9259631 C6.0675918,29.7827373 12.954006,36.0319872 22.0336079,36.0319872 C24.4833759,36.0319872 27.1362258,35.5885411 29.1750751,34.6545857 L29.1750751,30.2747803 C28.154879,31.5534847 26.1664106,33.8663754 22.1359125,33.8663754 C16.4224271,33.8663754 13.2090747,28.7986512 13.2090747,21.5167184 C13.2090747,13.8900518 16.2193294,8.42746318 22.7483703,8.42746318 C25.0438311,8.42746318 27.8998103,9.55885838 29.1750751,10.6917722 L30.2472422,8.42746318 C29.0223582,7.49349265 26.7268816,6.1646728 21.9831957,6.1646728 Z" id="C1" stroke="#FFFFFF" stroke-width="0.5" fill="#FFFFFF" fill-rule="nonzero" transform="translate(18.157417, 21.098330) scale(-1, 1) rotate(-180.000000) translate(-18.157417, -21.098330) "></path>
                                                <path d="M46.5186607,32.3902509 C44.4798113,33.0797337 42.2347313,33.1784491 40.1423682,33.1784491 L40.1423682,8.87090018 C42.2347313,8.87090018 44.5301923,8.96961562 46.5186607,9.65909849 L46.5186607,6.75543267 C45.9077931,6.70684039 45.2953668,6.6567173 44.6829091,6.6567173 L33.7660284,6.6567173 L33.7660284,35.4913474 L45.3977029,35.4913474 C45.7535175,35.4913474 46.1628618,35.4913474 46.5186607,35.4412259 L46.5186607,32.3902509 Z M52.8950004,21.1233908 C52.8950004,28.2580114 50.039037,31.1601464 46.5186607,32.3902509 L46.5186607,35.4412259 C52.2321934,35.0478906 59.9357216,31.4061725 59.9357216,20.9760817 C59.9357216,10.3971508 52.7422835,7.24746049 46.5186607,6.75543267 L46.5186607,9.65909849 C50.0894178,10.8390799 52.8950004,13.7913379 52.8950004,21.1233908 Z" id="D" fill="#FFFFFF" fill-rule="nonzero"></path>
                                                <path d="M63.404127,21.2707 C63.404127,12.4139243 70.2905412,6.1646667 79.3701432,6.1646667 C81.8183206,6.1646667 84.4711865,6.6081235 86.5116105,7.54208036 L86.5116105,11.9218737 C85.4914141,10.6431769 83.501356,8.33027856 79.4724478,8.33027856 C73.7589623,8.33027856 70.5455942,13.3980027 70.5455942,20.679934 C70.5455942,28.3066052 73.5543059,33.7691938 80.0849055,33.7691938 C82.3803661,33.7691938 85.1859805,32.6378063 86.5116105,31.5048878 L87.5821872,33.7691938 C86.3069383,34.7031719 84.0634007,36.0319918 79.3197309,36.0319918 C69.8308318,36.0319918 63.404127,30.4236006 63.404127,21.2707 Z" id="C2" fill="#004AA1" fill-rule="nonzero"></path>
                                                <path d="M79.3197309,6.1646728 C69.8308318,6.1646728 63.404127,11.7730671 63.404127,20.9259631 C63.404127,29.7827373 70.2905412,36.0319872 79.3701432,36.0319872 C81.8183206,36.0319872 84.4711865,35.5885411 86.5116105,34.6545857 L86.5116105,30.2747803 C85.4914141,31.5534847 83.501356,33.8663754 79.4724478,33.8663754 C73.7589623,33.8663754 70.5455942,28.7986512 70.5455942,21.5167184 C70.5455942,13.8900518 73.5543059,8.42746318 80.0849055,8.42746318 C82.3803661,8.42746318 85.1859805,9.55885838 86.5116105,10.6917722 L87.5821872,8.42746318 C86.3069383,7.49349265 84.0634007,6.1646728 79.3197309,6.1646728 Z" id="path1892" stroke="#FFFFFF" stroke-width="0.5" fill="#FFFFFF" fill-rule="nonzero" transform="translate(75.493157, 21.098330) scale(-1, 1) rotate(-180.000000) translate(-75.493157, -21.098330) "></path>
                                            </g>
                                        </g>
                                    </g>
                                </g>
                            </g>
                        </g>
                    </g>
                </g>
            </g>
            <g id="open" transform="translate(0.000000, 17.000000)" fill="#FFFFFF">
                <g id="Group">
                    <path d="M0.508999924,9.748 C0.508999924,8.4279934 0.694998064,7.18600582 1.06699992,6.022 C1.43900178,4.85799418 1.98499632,3.83200444 2.70499992,2.944 C3.42500352,2.05599556 4.31299464,1.35400258 5.36899992,0.838 C6.4250052,0.32199742 7.63699308,0.064 9.00499992,0.064 C10.3730068,0.064 11.5849946,0.32199742 12.6409999,0.838 C13.6970052,1.35400258 14.5849963,2.05599556 15.3049999,2.944 C16.0250035,3.83200444 16.5709981,4.85799418 16.9429999,6.022 C17.3150018,7.18600582 17.5009999,8.4279934 17.5009999,9.748 C17.5009999,11.0680066 17.3150018,12.3159941 16.9429999,13.492 C16.5709981,14.6680059 16.0250035,15.6939956 15.3049999,16.57 C14.5849963,17.4460044 13.6970052,18.1419974 12.6409999,18.658 C11.5849946,19.1740026 10.3730068,19.432 9.00499992,19.432 C7.63699308,19.432 6.4250052,19.1740026 5.36899992,18.658 C4.31299464,18.1419974 3.42500352,17.4460044 2.70499992,16.57 C1.98499632,15.6939956 1.43900178,14.6680059 1.06699992,13.492 C0.694998064,12.3159941 0.508999924,11.0680066 0.508999924,9.748 Z M1.87699992,9.748 C1.87699992,10.8520055 2.03299836,11.9139949 2.34499992,12.934 C2.65700148,13.9540051 3.11299692,14.859996 3.71299992,15.652 C4.31300292,16.444004 5.05699548,17.0739977 5.94499992,17.542 C6.83300436,18.0100023 7.85299416,18.244 9.00499992,18.244 C10.1570057,18.244 11.1769955,18.0100023 12.0649999,17.542 C12.9530044,17.0739977 13.6969969,16.444004 14.2969999,15.652 C14.8970029,14.859996 15.3529984,13.9540051 15.6649999,12.934 C15.9770015,11.9139949 16.1329999,10.8520055 16.1329999,9.748 C16.1329999,8.64399448 15.9770015,7.5820051 15.6649999,6.562 C15.3529984,5.5419949 14.8970029,4.63600396 14.2969999,3.844 C13.6969969,3.05199604 12.9530044,2.42200234 12.0649999,1.954 C11.1769955,1.48599766 10.1570057,1.252 9.00499992,1.252 C7.85299416,1.252 6.83300436,1.48599766 5.94499992,1.954 C5.05699548,2.42200234 4.31300292,3.05199604 3.71299992,3.844 C3.11299692,4.63600396 2.65700148,5.5419949 2.34499992,6.562 C2.03299836,7.5820051 1.87699992,8.64399448 1.87699992,9.748 Z M22.3969999,4.744 L22.4689999,4.744 C22.6130006,4.28799772 22.8529982,3.78400276 23.1889999,3.232 C23.5250016,2.67999724 23.9689972,2.17000234 24.5209999,1.702 C25.0730027,1.23399766 25.738996,0.84400156 26.5189999,0.532 C27.2990038,0.21999844 28.1929949,0.064 29.2009999,0.064 C30.617007,0.064 31.8469947,0.32799736 32.8909999,0.856 C33.9350051,1.38400264 34.7989965,2.09199556 35.4829999,2.98 C36.1670033,3.86800444 36.6769982,4.89999412 37.0129999,6.076 C37.3490016,7.25200588 37.5169999,8.48799352 37.5169999,9.784 C37.5169999,11.2000071 37.3490016,12.4959941 37.0129999,13.672 C36.6769982,14.8480059 36.1670033,15.8619957 35.4829999,16.714 C34.7989965,17.5660043 33.9350051,18.2319976 32.8909999,18.712 C31.8469947,19.1920024 30.617007,19.432 29.2009999,19.432 C27.6649922,19.432 26.2970059,19.0960034 25.0969999,18.424 C23.8969939,17.7519966 23.0210027,16.6600076 22.4689999,15.148 L22.3969999,15.148 L22.3969999,25.624 L21.0289999,25.624 L21.0289999,0.496 L22.3969999,0.496 L22.3969999,4.744 Z M29.2009999,18.244 C30.4010059,18.244 31.4389955,18.0160023 32.3149999,17.56 C33.1910043,17.1039977 33.9109971,16.4920038 34.4749999,15.724 C35.0390027,14.9559962 35.4589985,14.0620051 35.7349999,13.042 C36.0110013,12.0219949 36.1489999,10.9360058 36.1489999,9.784 C36.1489999,8.72799472 36.0170012,7.6900051 35.7529999,6.67 C35.4889986,5.6499949 35.0810027,4.73800402 34.5289999,3.934 C33.9769972,3.12999598 33.2630043,2.48200246 32.3869999,1.99 C31.5109955,1.49799754 30.4490062,1.252 29.2009999,1.252 C27.9769938,1.252 26.9330042,1.4919976 26.0689999,1.972 C25.2049956,2.4520024 24.5030026,3.08799604 23.9629999,3.88 C23.4229972,4.67200396 23.0330011,5.5779949 22.7929999,6.598 C22.5529987,7.6180051 22.4329999,8.67999448 22.4329999,9.784 C22.4329999,10.8880055 22.5409988,11.9499949 22.7569999,12.97 C22.973001,13.9900051 23.3389973,14.8899961 23.8549999,15.67 C24.3710025,16.4500039 25.0669955,17.0739977 25.9429999,17.542 C26.8190043,18.0100023 27.9049934,18.244 29.2009999,18.244 Z M41.2609999,9.928 L41.2609999,10.144 C41.2609999,11.2240054 41.4049985,12.2559951 41.6929999,13.24 C41.9810014,14.2240049 42.4069971,15.0879963 42.9709999,15.832 C43.5350027,16.5760037 44.2429957,17.1639978 45.0949999,17.596 C45.9470042,18.0280022 46.9369943,18.244 48.0649999,18.244 C49.9130092,18.244 51.3769945,17.7580049 52.4569999,16.786 C53.5370053,15.8139951 54.2809979,14.4640086 54.6889999,12.736 L56.0569999,12.736 C55.6489979,14.8960108 54.7670067,16.5519942 53.4109999,17.704 C52.0549931,18.8560058 50.2610111,19.432 48.0289999,19.432 C46.6609931,19.432 45.467005,19.1860025 44.4469999,18.694 C43.4269948,18.2019975 42.5750033,17.5300043 41.8909999,16.678 C41.2069965,15.8259957 40.6970016,14.8180058 40.3609999,13.654 C40.0249982,12.4899942 39.8569999,11.2360067 39.8569999,9.892 C39.8569999,8.59599352 40.0309982,7.35400594 40.3789999,6.166 C40.7270017,4.97799406 41.2489964,3.9340045 41.9449999,3.034 C42.6410034,2.1339955 43.5109947,1.4140027 44.5549999,0.874 C45.5990051,0.3339973 46.8289928,0.064 48.2449999,0.064 C49.5410064,0.064 50.6869949,0.3039976 51.6829999,0.784 C52.6790049,1.2640024 53.5129966,1.91799586 54.1849999,2.746 C54.8570033,3.57400414 55.3669982,4.53399454 55.7149999,5.626 C56.0630017,6.71800546 56.2369999,7.88799376 56.2369999,9.136 C56.2369999,9.2560006 56.231,9.39399922 56.2189999,9.55 C56.2069999,9.70600078 56.2009999,9.83199952 56.2009999,9.928 L41.2609999,9.928 Z M54.8329999,8.74 C54.7849997,7.73199496 54.6170014,6.7780045 54.3289999,5.878 C54.0409985,4.9779955 53.6150027,4.18600342 53.0509999,3.502 C52.4869971,2.81799658 51.8030039,2.27200204 50.9989999,1.864 C50.1949959,1.45599796 49.2770051,1.252 48.2449999,1.252 C47.1409944,1.252 46.1690041,1.4619979 45.3289999,1.882 C44.4889957,2.3020021 43.7810028,2.85399658 43.2049999,3.538 C42.628997,4.22200342 42.1850015,5.01999544 41.8729999,5.932 C41.5609984,6.84400456 41.3690003,7.7799952 41.2969999,8.74 L54.8329999,8.74 Z M59.4049999,0.496 L60.7729999,0.496 L60.7729999,4.456 L60.8449999,4.456 C61.0850011,3.75999652 61.4269977,3.1420027 61.8709999,2.602 C62.3150021,2.0619973 62.830997,1.60000192 63.4189999,1.216 C64.0070029,0.83199808 64.6489964,0.54400096 65.3449999,0.352 C66.0410034,0.15999904 66.7489963,0.064 67.4689999,0.064 C68.5490053,0.064 69.4669961,0.19599868 70.2229999,0.46 C70.9790037,0.72400132 71.5969975,1.07199784 72.0769999,1.504 C72.5570023,1.93600216 72.9349985,2.4219973 73.2109999,2.962 C73.4870013,3.5020027 73.6849993,4.04799724 73.8049999,4.6 C73.9250005,5.15200276 73.9969998,5.68599742 74.0209999,6.202 C74.045,6.71800258 74.0569999,7.16799808 74.0569999,7.552 L74.0569999,19 L72.6889999,19 L72.6889999,7.3 C72.6889999,6.84399772 72.6530003,6.26800348 72.5809999,5.572 C72.5089996,4.87599652 72.2990017,4.21000318 71.9509999,3.574 C71.6029982,2.93799682 71.0750035,2.39200228 70.3669999,1.936 C69.6589964,1.47999772 68.6810062,1.252 67.4329999,1.252 C66.3769946,1.252 65.441004,1.44399808 64.6249999,1.828 C63.8089958,2.21200192 63.1130028,2.74599658 62.5369999,3.43 C61.960997,4.11400342 61.5230014,4.92999526 61.2229999,5.878 C60.9229984,6.82600474 60.7729999,7.86399436 60.7729999,8.992 L60.7729999,19 L59.4049999,19 L59.4049999,0.496 Z" id="open"></path>
                </g>
            </g>
        </g>
    </g>
</svg>