<?xml version="1.0" encoding="UTF-8"?>
<svg width="220px" height="75px" viewBox="0 0 220 75" version="1.1" xmlns="http://www.w3.org/2000/svg" xmlns:xlink="http://www.w3.org/1999/xlink">
    <!-- Generator: Sketch 49.2 (51160) - http://www.bohemiancoding.com/sketch -->
    <title>open-logo</title>
    <desc>Created with Sketch.</desc>
    <defs>
        <polygon id="path-1" points="0.284179554 0.508112446 113.793974 0.508112446 113.793974 66.8668259 0.284179554 66.8668259"></polygon>
    </defs>
    <g id="open-logo" stroke="none" stroke-width="1" fill="none" fill-rule="evenodd">
        <g id="logo" transform="translate(6.000000, 4.000000)">
            <path d="M8.89639303,18 C13.774367,18 17.8357638,21.2401747 17.8357638,27.2518195 L17.8357638,30.573508 C17.8357638,36.6462882 13.8173447,39.7234352 8.89639303,39.7234352 C3.95395246,39.7234352 0,36.6259098 0,30.573508 L0,27.2518195 C0,21.1382824 3.88948584,18 8.89639303,18 Z M8.89639303,19.0800582 C4.57712975,19.0800582 1.20337683,21.8719068 1.20337683,27.4352256 L1.20337683,30.3901019 C1.20337683,35.8922853 4.534152,38.643377 8.9178819,38.643377 C13.2156563,38.643377 16.6108981,35.9534207 16.6108981,30.3901019 L16.6108981,27.4352256 C16.6108981,21.9330422 13.1941674,19.0800582 8.89639303,19.0800582 Z M33.5308263,39.7234352 C28.6743413,39.7234352 26.6328984,36.6666667 26.0956766,35.0160116 L26.0097211,35.0160116 L26.0097211,46 L24.8063443,46 L24.8063443,18.3668122 L26.0097211,18.3668122 L26.0097211,22.768559 L26.0956766,22.768559 C26.3965208,21.6069869 28.3090304,18 33.5738041,18 C38.3443337,18 41.9329753,21.3624454 41.9329753,26.7627365 L41.9329753,30.9199418 C41.9329753,36.8908297 37.8286007,39.7234352 33.5308263,39.7234352 Z M33.5308263,38.643377 C37.1409568,38.643377 40.7081096,36.1979622 40.7081096,30.6142649 L40.7081096,27.007278 C40.7081096,21.9126638 37.4632899,19.0800582 33.5308263,19.0800582 C28.6528524,19.0800582 26.0097211,22.9723435 26.0097211,26.9665211 L26.0097211,30.6550218 C26.0097211,35.1179039 28.9536966,38.643377 33.5308263,38.643377 Z M56.5535942,39.7234352 C51.1383985,39.7234352 47.8291122,36.2998544 47.8291122,30.125182 L47.8291122,27.944687 C47.8291122,21.30131 51.2888206,18 56.3172167,18 C61.3456127,18 64.8053211,21.30131 64.8053211,27.944687 L64.8053211,28.8005822 L49.032489,28.8005822 L49.032489,30.0436681 C49.032489,35.6681223 51.9979534,38.643377 56.5750831,38.643377 C61.0232796,38.643377 63.0862114,36.0756914 63.2796112,34.1601164 L64.482988,34.1601164 C64.2895882,36.4425036 61.9043234,39.7234352 56.5535942,39.7234352 Z M49.032489,27.7612809 L63.6019443,27.7612809 L63.6019443,27.6797671 C63.6019443,22.1775837 60.7009466,19.0800582 56.3172167,19.0800582 C51.9334868,19.0800582 49.032489,22.1775837 49.032489,27.6797671 L49.032489,27.7612809 Z M71.7759016,39.356623 L71.7759016,18.3668122 L72.9792784,18.3668122 L72.9792784,22.6462882 L73.0652339,22.6462882 C73.7528778,20.4250364 76.0951649,18 80.4144282,18 C84.7981581,18 88,20.6899563 88,25.5196507 L88,39.356623 L86.7966232,39.356623 L86.7966232,25.6419214 C86.7966232,21.9737991 84.5188027,19.0800582 80.3714504,19.0800582 C75.4934765,19.0800582 72.9792784,22.7889374 72.9792784,26.5793304 L72.9792784,39.356623 L71.7759016,39.356623 Z" id="open" fill="#989898"></path>
            <g id="US_CDC_logo" transform="translate(96.000000, 0.000000)">
                <rect id="Rectangle-2" fill="#055CAE" x="0.917647059" y="1.78064516" width="111.952941" height="64.1032258"></rect>
                <g stroke-width="1" id="CDC">
                    <g transform="translate(0.019071, 0.541790)">
                        <g id="g1390-Clipped" transform="translate(-0.000000, 0.000000)">
                            <g id="rays" transform="translate(0.114279, 0.046898)">
                                <mask id="mask-2" fill="white">
                                    <use xlink:href="#path-1"></use>
                                </mask>
                                <g id="Mask" fill-rule="nonzero"></g>
                                <g mask="url(#mask-2)" fill="#FFFFFF" fill-rule="nonzero">
                                    <g transform="translate(4.973660, -1.271366)">
                                        <polygon id="ray09" points="43.5190646 66.6140183 110.391329 0.933565878 110.391329 0.2553048 110.073179 0.2553048 42.5018716 66.6140183"></polygon>
                                        <polygon id="ray01" points="1.33534327 66.6140183 5.85203155 0.2553048 5.15291015 0.2553048 0.636280786 66.6140183"></polygon>
                                        <polygon id="ray02" points="4.96242456 66.6140183 14.6968274 0.2553048 13.9977649 0.2553048 4.26137868 66.6140183"></polygon>
                                        <polygon id="ray03" points="8.84287133 66.6140183 24.1131389 0.2553048 23.3492131 0.2553048 8.08090933 66.6140183"></polygon>
                                        <polygon id="ray04" points="13.0433535 66.6140183 34.8667182 0.2553048 34.1656526 0.2553048 12.342288 66.6140183"></polygon>
                                        <polygon id="ray05" points="17.051406 66.6140183 45.1097175 0.2553048 44.345831 0.2553048 16.2875195 66.6140183"></polygon>
                                        <polygon id="ray06" points="21.6957196 66.6140183 56.7529037 0.2553048 55.9261766 0.2553048 20.8689729 66.6140183"></polygon>
                                        <polygon id="ray07" points="74.250105 0.2553048 73.360498 0.2553048 27.9954905 66.6140183 28.8850779 66.6140183"></polygon>
                                        <polygon id="ray08" points="90.411904 0.2553048 89.5203725 0.2553048 34.358102 66.6140183 35.3124741 66.6140183"></polygon>
                                        <polygon id="ray10" points="110.391329 25.3793944 110.391329 24.5144353 55.7356911 66.6140183 56.8177278 66.6140183"></polygon>
                                        <polygon id="ray11" points="110.391329 43.6504182 110.391329 42.8483409 71.1336232 66.6140183 72.4689665 66.6140183"></polygon>
                                        <polygon id="ray12" points="110.391329 60.8735974 110.391329 60.1324528 95.9477687 66.6140183 97.6012818 66.6140183"></polygon>
                                    </g>
                                </g>
                            </g>
                        </g>
                        <path d="M27.4199,45.2037715 C15.5862281,45.2037715 7.56817902,38.1677898 7.56817902,26.68506 C7.56817902,15.5738323 16.1576849,7.73385459 27.4827798,7.73385459 C30.5384044,7.73385459 33.8473354,8.2901913 36.3904163,9.46188263 L36.3904163,14.9565324 C35.1179136,13.3523492 32.6376734,10.4507131 27.6103855,10.4507131 C20.4838876,10.4507131 16.4758351,16.8084034 16.4758351,25.9439172 C16.4758351,35.5119229 20.2305614,42.3649886 28.3743113,42.3649886 C31.2374668,42.3649886 34.7997634,40.9456115 36.3904163,39.5243138 L37.7277429,42.3649886 C36.1999307,43.5367066 33.3367555,45.2037715 27.4199,45.2037715" id="path1884" fill="#004AA1" fill-rule="nonzero"></path>
                        <path d="M27.4199,7.73386221 C15.5862281,7.73386221 7.56817902,14.7698478 7.56817902,26.2525719 C7.56817902,37.3637977 16.1576849,45.2037658 27.4827798,45.2037658 C30.5384044,45.2037658 33.8473354,44.6474425 36.3904163,43.475753 L36.3904163,37.981088 C35.1179136,39.5852808 32.6376734,42.4869073 27.6103855,42.4869073 C20.4838876,42.4869073 16.4758351,36.129217 16.4758351,26.9937013 C16.4758351,17.4257013 20.2305614,10.5726356 28.3743113,10.5726356 C31.2374668,10.5726356 34.7997634,11.9920223 36.3904163,13.4133142 L37.7277429,10.5726356 C36.1999307,9.40092712 33.3367555,7.73386221 27.4199,7.73386221 Z" id="C1" stroke="#FFFFFF" stroke-width="0.5" fill="#FFFFFF" transform="translate(22.647961, 26.468814) scale(-1, 1) rotate(-180.000000) translate(-22.647961, -26.468814) "></path>
                        <path d="M58.0232757,40.635042 C55.4801948,41.5000296 52.6798799,41.6238725 50.0700506,41.6238725 L50.0700506,11.1289475 C52.6798799,11.1289475 55.5430355,11.2527905 58.0232757,12.1177781 L58.0232757,8.47499735 C57.2613333,8.41403612 56.4974468,8.35115443 55.733521,8.35115443 L42.1167666,8.35115443 L42.1167666,44.5255086 L56.6250918,44.5255086 C57.0689036,44.5255086 57.5794835,44.5255086 58.0232757,44.4626288 L58.0232757,40.635042 Z M65.9765597,26.5002539 C65.9765597,35.4509598 62.4142827,39.09182 58.0232757,40.635042 L58.0232757,44.4626288 C65.1498326,43.9691718 74.7585345,39.4004709 74.7585345,26.3154479 C74.7585345,13.0436983 65.7860741,9.09226862 58.0232757,8.47499735 L58.0232757,12.1177781 C62.4771233,13.5981184 65.9765597,17.3018603 65.9765597,26.5002539 Z" id="D" fill="#FFFFFF" fill-rule="nonzero"></path>
                        <path d="M79.0847176,26.68506 C79.0847176,15.5738323 87.6742234,7.73385459 98.9993184,7.73385459 C102.052959,7.73385459 105.36191,8.2901913 107.906955,9.46188263 L107.906955,14.9565324 C106.634452,13.3523492 104.152229,10.4507131 99.1269241,10.4507131 C92.0004261,10.4507131 87.992354,16.8084034 87.992354,25.9439172 C87.992354,35.5119229 91.7451558,42.3649886 99.8908499,42.3649886 C102.754005,42.3649886 106.253481,40.9456115 107.906955,39.5243138 L109.242298,42.3649886 C107.651665,43.5367066 104.853274,45.2037715 98.9364385,45.2037715 C87.1008225,45.2037715 79.0847176,38.1677898 79.0847176,26.68506 Z" id="C2" fill="#004AA1" fill-rule="nonzero"></path>
                        <path d="M98.9364385,7.73386221 C87.1008225,7.73386221 79.0847176,14.7698478 79.0847176,26.2525719 C79.0847176,37.3637977 87.6742234,45.2037658 98.9993184,45.2037658 C102.052959,45.2037658 105.36191,44.6474425 107.906955,43.475753 L107.906955,37.981088 C106.634452,39.5852808 104.152229,42.4869073 99.1269241,42.4869073 C92.0004261,42.4869073 87.992354,36.129217 87.992354,26.9937013 C87.992354,17.4257013 91.7451558,10.5726356 99.8908499,10.5726356 C102.754005,10.5726356 106.253481,11.9920223 107.906955,13.4133142 L109.242298,10.5726356 C107.651665,9.40092712 104.853274,7.73386221 98.9364385,7.73386221 Z" id="path1892" stroke="#FFFFFF" stroke-width="0.5" fill="#FFFFFF" transform="translate(94.163508, 26.468814) scale(-1, 1) rotate(-180.000000) translate(-94.163508, -26.468814) "></path>
                    </g>
                </g>
            </g>
        </g>
    </g>
</svg>