<?xml version="1.0" encoding="UTF-8"?>
<svg width="127px" height="78px" viewBox="0 0 127 78" version="1.1" xmlns="http://www.w3.org/2000/svg" xmlns:xlink="http://www.w3.org/1999/xlink">
    <!-- Generator: Sketch 49.2 (51160) - http://www.bohemiancoding.com/sketch -->
    <title>US_CDC_logo</title>
    <desc>Created with Sketch.</desc>
    <defs>
        <polygon id="path-1" points="0.309682847 0.570706008 124.006253 0.570706008 124.006253 75.1040436 0.309682847 75.1040436"></polygon>
    </defs>
    <g id="US_CDC_logo" stroke="none" stroke-width="1" fill="none" fill-rule="evenodd">
        <rect id="Rectangle-2" fill="#055CAE" x="1" y="2" width="122" height="72"></rect>
        <g id="CDC">
            <g transform="translate(0.020782, 0.608533)">
                <g id="g1390-Clipped" transform="translate(-0.000000, 0.000000)">
                    <g id="rays" transform="translate(0.124535, 0.052675)">
                        <mask id="mask-2" fill="white">
                            <use xlink:href="#path-1"></use>
                        </mask>
                        <g id="Mask" fill-rule="nonzero"></g>
                        <g mask="url(#mask-2)" fill="#FFFFFF" fill-rule="nonzero">
                            <g transform="translate(5.420014, -1.427984)">
                                <polygon id="ray09" points="47.4246217 74.820093 120.298243 1.04857037 120.298243 0.286755391 119.951541 0.286755391 46.3161421 74.820093"></polygon>
                                <polygon id="ray01" points="1.45518176 74.820093 6.37721386 0.286755391 5.61535081 0.286755391 0.693382907 74.820093"></polygon>
                                <polygon id="ray02" points="5.40777036 74.820093 16.0157734 0.286755391 15.2539746 0.286755391 4.6438101 74.820093"></polygon>
                                <polygon id="ray03" points="9.63646235 74.820093 26.2771385 0.286755391 25.4446553 0.286755391 8.80611915 74.820093"></polygon>
                                <polygon id="ray04" points="14.2139109 74.820093 37.9957826 0.286755391 37.2318009 0.286755391 13.4499292 74.820093"></polygon>
                                <polygon id="ray05" points="18.5816604 74.820093 49.1580255 0.286755391 48.3255851 0.286755391 17.74922 74.820093"></polygon>
                                <polygon id="ray06" points="23.6427714 74.820093 61.8461131 0.286755391 60.9451925 0.286755391 22.7418294 74.820093"></polygon>
                                <polygon id="ray07" points="80.9135759 0.286755391 79.9441324 0.286755391 30.5079063 74.820093 31.4773284 74.820093"></polygon>
                                <polygon id="ray08" points="98.5257928 0.286755391 97.5542521 0.286755391 37.4415214 74.820093 38.4815423 74.820093"></polygon>
                                <polygon id="ray10" points="120.298243 28.5058415 120.298243 27.5343295 60.7376121 74.820093 61.9167546 74.820093"></polygon>
                                <polygon id="ray11" points="120.298243 49.0276436 120.298243 48.1267597 77.5174099 74.820093 78.9725917 74.820093"></polygon>
                                <polygon id="ray12" points="120.298243 68.3725188 120.298243 67.5400737 104.558466 74.820093 106.360371 74.820093"></polygon>
                            </g>
                        </g>
                    </g>
                </g>
                <path d="M29.8806602,50.7723521 C16.9849922,50.7723521 8.24737457,42.8696189 8.24737457,29.97235 C8.24737457,17.4923478 17.6077335,8.6865758 29.9491832,8.6865758 C33.2790304,8.6865758 36.8849168,9.31144675 39.6562229,10.6274769 L39.6562229,16.7990038 C38.2695212,14.9972038 35.5666954,11.7381198 30.0882407,11.7381198 C22.3221852,11.7381198 17.9544357,18.8790038 17.9544357,29.139907 C17.9544357,39.8865801 22.0461246,47.583864 30.9207239,47.583864 C34.0408293,47.583864 37.9228191,45.989636 39.6562229,44.393251 L41.113566,47.583864 C39.4486424,48.8999241 36.3285156,50.7723521 29.8806602,50.7723521" id="path1884" fill="#004AA1" fill-rule="nonzero"></path>
                <path d="M29.8806602,8.68658436 C16.9849922,8.68658436 8.24737457,16.5893218 8.24737457,29.4865844 C8.24737457,41.9665844 17.6077335,50.7723457 29.9491832,50.7723457 C33.2790304,50.7723457 36.8849168,50.1474897 39.6562229,48.8314617 L39.6562229,42.6599177 C38.2695212,44.4617284 35.5666954,47.7208016 30.0882407,47.7208016 C22.3221852,47.7208016 17.9544357,40.5799177 17.9544357,30.3190123 C17.9544357,19.5723457 22.0461246,11.8750617 30.9207239,11.8750617 C34.0408293,11.8750617 37.9228191,13.4693004 39.6562229,15.065679 L41.113566,11.8750617 C39.4486424,10.5590123 36.3285156,8.68658436 29.8806602,8.68658436 Z" id="C1" stroke="#FFFFFF" stroke-width="0.5" fill="#FFFFFF" transform="translate(24.680470, 29.729465) scale(-1, 1) rotate(-180.000000) translate(-24.680470, -29.729465) "></path>
                <path d="M63.2304927,45.6408081 C60.4591867,46.6123521 57.4075615,46.751451 54.5635167,46.751451 L54.5635167,12.4999049 C57.4075615,12.4999049 60.5276668,12.6390038 63.2304927,13.6105478 L63.2304927,9.51901877 C62.4001709,9.45054782 61.5677305,9.37991984 60.7352473,9.37991984 L45.8964764,9.37991984 L45.8964764,50.010535 L61.7068308,50.010535 C62.1904719,50.010535 62.7468731,50.010535 63.2304927,49.9399091 L63.2304927,45.6408081 Z M71.897533,29.7647779 C71.897533,39.818107 68.0155645,43.907479 63.2304927,45.6408081 L63.2304927,49.9399091 C70.9966124,49.385664 81.4676338,44.2541521 81.4676338,29.5572059 C81.4676338,14.6505307 71.6899525,10.2123307 63.2304927,9.51901877 L63.2304927,13.6105478 C68.0840447,15.2732489 71.897533,19.4332489 71.897533,29.7647779 Z" id="D" fill="#FFFFFF" fill-rule="nonzero"></path>
                <path d="M86.182064,29.97235 C86.182064,17.4923478 95.542423,8.6865758 107.883873,8.6865758 C111.211558,8.6865758 114.817466,9.31144675 117.590912,10.6274769 L117.590912,16.7990038 C116.204211,14.9972038 113.499223,11.7381198 108.02293,11.7381198 C100.256875,11.7381198 95.8891037,18.8790038 95.8891037,29.139907 C95.8891037,39.8865801 99.9786954,47.583864 108.855413,47.583864 C111.975519,47.583864 115.78905,45.989636 117.590912,44.393251 L119.046094,47.583864 C117.312712,48.8999241 114.263184,50.7723521 107.81535,50.7723521 C94.917563,50.7723521 86.182064,42.8696189 86.182064,29.97235 Z" id="C2" fill="#004AA1" fill-rule="nonzero"></path>
                <path d="M107.81535,8.68658436 C94.917563,8.68658436 86.182064,16.5893218 86.182064,29.4865844 C86.182064,41.9665844 95.542423,50.7723457 107.883873,50.7723457 C111.211558,50.7723457 114.817466,50.1474897 117.590912,48.8314617 L117.590912,42.6599177 C116.204211,44.4617284 113.499223,47.7208016 108.02293,47.7208016 C100.256875,47.7208016 95.8891037,40.5799177 95.8891037,30.3190123 C95.8891037,19.5723457 99.9786954,11.8750617 108.855413,11.8750617 C111.975519,11.8750617 115.78905,13.4693004 117.590912,15.065679 L119.046094,11.8750617 C117.312712,10.5590123 114.263184,8.68658436 107.81535,8.68658436 Z" id="path1892" stroke="#FFFFFF" stroke-width="0.5" fill="#FFFFFF" transform="translate(102.614079, 29.729465) scale(-1, 1) rotate(-180.000000) translate(-102.614079, -29.729465) "></path>
            </g>
        </g>
    </g>
</svg>